<?xml version="1.0" standalone="no"?>
<!DOCTYPE svg PUBLIC "-//W3C//DTD SVG 1.1//EN" "http://www.w3.org/Graphics/SVG/1.1/DTD/svg11.dtd" >
<svg>
<metadata>
Created by FontForge 20110222 at Thu May 17 07:28:40 2012
 By Stefan Warting
</metadata>
<defs>
<font id="AvantGarde" horiz-adv-x="0" >
  <font-face 
    font-family="AvantGarde"
    font-weight="400"
    font-stretch="normal"
    units-per-em="1000"
    panose-1="0 0 4 0 0 0 0 0 0 0"
    ascent="800"
    descent="-200"
    x-height="547"
    cap-height="739"
    bbox="-600 -223 1151 1111.67"
    underline-thickness="58"
    underline-position="-67"
    unicode-range="U+0020-F02A"
  />
<missing-glyph horiz-adv-x="500" 
d="M63 0v825h375v-825h-375zM125 63h250v700h-250v-700z" />
    <glyph glyph-name=".notdef" horiz-adv-x="500" 
d="M63 0v825h375v-825h-375zM125 63h250v700h-250v-700z" />
    <glyph glyph-name=".null" 
 />
    <glyph glyph-name="nonmarkingreturn" horiz-adv-x="277" 
 />
    <glyph glyph-name="space" unicode=" " horiz-adv-x="277" 
 />
    <glyph glyph-name="space" unicode="&#x2031;" horiz-adv-x="277" 
 />
    <glyph glyph-name="space" unicode="&#x2025;" horiz-adv-x="277" 
 />
    <glyph glyph-name="space" unicode="&#x2024;" horiz-adv-x="277" 
 />
    <glyph glyph-name="space" unicode="&#x2023;" horiz-adv-x="277" 
 />
    <glyph glyph-name="space" unicode="&#x201f;" horiz-adv-x="277" 
 />
    <glyph glyph-name="space" unicode="&#x201b;" horiz-adv-x="277" 
 />
    <glyph glyph-name="space" unicode="&#x2017;" horiz-adv-x="277" 
 />
    <glyph glyph-name="space" unicode="&#x2016;" horiz-adv-x="277" 
 />
    <glyph glyph-name="space" unicode="&#x2015;" horiz-adv-x="277" 
 />
    <glyph glyph-name="exclam" unicode="!" horiz-adv-x="295" 
d="M111 0v126h74v-126h-74zM111 193v546h74v-546h-74z" />
    <glyph glyph-name="quotedbl" unicode="&#x22;" horiz-adv-x="309" 
d="M74 513v226h52v-226h-52zM185 513v226h52v-226h-52z" />
    <glyph glyph-name="numbersign" unicode="#" horiz-adv-x="554" 
d="M80 0l74 250h-149l16 58h150l36 123h-149l16 58h151l73 250h42l-72 -250h89l74 250h41l-73 -250h150l-16 -58h-151l-36 -123h150l-17 -58h-151l-73 -250h-43l74 250h-90l-74 -250h-42zM213 308h91l35 123h-90z" />
    <glyph glyph-name="dollar" unicode="$" horiz-adv-x="554" 
d="M245 -54v83q-70 12 -120 64.5t-50 121.5v12h70q-2 -56 37 -95t96 -39q53 0 91.5 37.5t38.5 89.5q0 62 -39 97q-30 27 -96 45q-89 25 -126 62q-49 50 -49 126q0 67 40.5 115t106.5 60v83h65v-83q71 -10 115.5 -60t46.5 -122h-70q-1 51 -35 84.5t-86 33.5q-43 0 -73 -25
q-39 -32 -39 -91q0 -54 36 -82q23 -18 84 -36q95 -28 133 -65q57 -55 57 -141q0 -72 -49 -130t-120 -62v-83h-65z" />
    <glyph glyph-name="percent" unicode="%" horiz-adv-x="775" 
d="M181 0l332 739h72l-332 -739h-72zM189 751q73 0 122.5 -51t49.5 -124q0 -71 -51.5 -123t-121.5 -52q-71 0 -123 52.5t-52 124.5q0 74 50.5 123.5t125.5 49.5zM189 680q-46 0 -75.5 -29t-29.5 -74q0 -43 30.5 -74t72.5 -31q44 0 73.5 32t29.5 77q0 41 -29.5 70t-71.5 29z
M579 338q73 0 123 -53t50 -126q0 -71 -51.5 -121.5t-122.5 -50.5t-123 51t-52 122q0 74 51 126t125 52zM579 267q-46 0 -75.5 -31t-29.5 -77q0 -42 31 -71.5t73 -29.5q44 0 73.5 30.5t29.5 74.5q0 42 -30 73t-72 31z" />
    <glyph glyph-name="percent" unicode="&#x202f;" horiz-adv-x="775" 
d="M181 0l332 739h72l-332 -739h-72zM189 751q73 0 122.5 -51t49.5 -124q0 -71 -51.5 -123t-121.5 -52q-71 0 -123 52.5t-52 124.5q0 74 50.5 123.5t125.5 49.5zM189 680q-46 0 -75.5 -29t-29.5 -74q0 -43 30.5 -74t72.5 -31q44 0 73.5 32t29.5 77q0 41 -29.5 70t-71.5 29z
M579 338q73 0 123 -53t50 -126q0 -71 -51.5 -121.5t-122.5 -50.5t-123 51t-52 122q0 74 51 126t125 52zM579 267q-46 0 -75.5 -31t-29.5 -77q0 -42 31 -71.5t73 -29.5q44 0 73.5 30.5t29.5 74.5q0 42 -30 73t-72 31z" />
    <glyph glyph-name="percent" unicode="&#x202e;" horiz-adv-x="775" 
d="M181 0l332 739h72l-332 -739h-72zM189 751q73 0 122.5 -51t49.5 -124q0 -71 -51.5 -123t-121.5 -52q-71 0 -123 52.5t-52 124.5q0 74 50.5 123.5t125.5 49.5zM189 680q-46 0 -75.5 -29t-29.5 -74q0 -43 30.5 -74t72.5 -31q44 0 73.5 32t29.5 77q0 41 -29.5 70t-71.5 29z
M579 338q73 0 123 -53t50 -126q0 -71 -51.5 -121.5t-122.5 -50.5t-123 51t-52 122q0 74 51 126t125 52zM579 267q-46 0 -75.5 -31t-29.5 -77q0 -42 31 -71.5t73 -29.5q44 0 73.5 30.5t29.5 74.5q0 42 -30 73t-72 31z" />
    <glyph glyph-name="percent" unicode="&#x202d;" horiz-adv-x="775" 
d="M181 0l332 739h72l-332 -739h-72zM189 751q73 0 122.5 -51t49.5 -124q0 -71 -51.5 -123t-121.5 -52q-71 0 -123 52.5t-52 124.5q0 74 50.5 123.5t125.5 49.5zM189 680q-46 0 -75.5 -29t-29.5 -74q0 -43 30.5 -74t72.5 -31q44 0 73.5 32t29.5 77q0 41 -29.5 70t-71.5 29z
M579 338q73 0 123 -53t50 -126q0 -71 -51.5 -121.5t-122.5 -50.5t-123 51t-52 122q0 74 51 126t125 52zM579 267q-46 0 -75.5 -31t-29.5 -77q0 -42 31 -71.5t73 -29.5q44 0 73.5 30.5t29.5 74.5q0 42 -30 73t-72 31z" />
    <glyph glyph-name="percent" unicode="&#x202c;" horiz-adv-x="775" 
d="M181 0l332 739h72l-332 -739h-72zM189 751q73 0 122.5 -51t49.5 -124q0 -71 -51.5 -123t-121.5 -52q-71 0 -123 52.5t-52 124.5q0 74 50.5 123.5t125.5 49.5zM189 680q-46 0 -75.5 -29t-29.5 -74q0 -43 30.5 -74t72.5 -31q44 0 73.5 32t29.5 77q0 41 -29.5 70t-71.5 29z
M579 338q73 0 123 -53t50 -126q0 -71 -51.5 -121.5t-122.5 -50.5t-123 51t-52 122q0 74 51 126t125 52zM579 267q-46 0 -75.5 -31t-29.5 -77q0 -42 31 -71.5t73 -29.5q44 0 73.5 30.5t29.5 74.5q0 42 -30 73t-72 31z" />
    <glyph glyph-name="percent" unicode="&#x202b;" horiz-adv-x="775" 
d="M181 0l332 739h72l-332 -739h-72zM189 751q73 0 122.5 -51t49.5 -124q0 -71 -51.5 -123t-121.5 -52q-71 0 -123 52.5t-52 124.5q0 74 50.5 123.5t125.5 49.5zM189 680q-46 0 -75.5 -29t-29.5 -74q0 -43 30.5 -74t72.5 -31q44 0 73.5 32t29.5 77q0 41 -29.5 70t-71.5 29z
M579 338q73 0 123 -53t50 -126q0 -71 -51.5 -121.5t-122.5 -50.5t-123 51t-52 122q0 74 51 126t125 52zM579 267q-46 0 -75.5 -31t-29.5 -77q0 -42 31 -71.5t73 -29.5q44 0 73.5 30.5t29.5 74.5q0 42 -30 73t-72 31z" />
    <glyph glyph-name="percent" unicode="&#x202a;" horiz-adv-x="775" 
d="M181 0l332 739h72l-332 -739h-72zM189 751q73 0 122.5 -51t49.5 -124q0 -71 -51.5 -123t-121.5 -52q-71 0 -123 52.5t-52 124.5q0 74 50.5 123.5t125.5 49.5zM189 680q-46 0 -75.5 -29t-29.5 -74q0 -43 30.5 -74t72.5 -31q44 0 73.5 32t29.5 77q0 41 -29.5 70t-71.5 29z
M579 338q73 0 123 -53t50 -126q0 -71 -51.5 -121.5t-122.5 -50.5t-123 51t-52 122q0 74 51 126t125 52zM579 267q-46 0 -75.5 -31t-29.5 -77q0 -42 31 -71.5t73 -29.5q44 0 73.5 30.5t29.5 74.5q0 42 -30 73t-72 31z" />
    <glyph glyph-name="percent" unicode="&#x2029;" horiz-adv-x="775" 
d="M181 0l332 739h72l-332 -739h-72zM189 751q73 0 122.5 -51t49.5 -124q0 -71 -51.5 -123t-121.5 -52q-71 0 -123 52.5t-52 124.5q0 74 50.5 123.5t125.5 49.5zM189 680q-46 0 -75.5 -29t-29.5 -74q0 -43 30.5 -74t72.5 -31q44 0 73.5 32t29.5 77q0 41 -29.5 70t-71.5 29z
M579 338q73 0 123 -53t50 -126q0 -71 -51.5 -121.5t-122.5 -50.5t-123 51t-52 122q0 74 51 126t125 52zM579 267q-46 0 -75.5 -31t-29.5 -77q0 -42 31 -71.5t73 -29.5q44 0 73.5 30.5t29.5 74.5q0 42 -30 73t-72 31z" />
    <glyph glyph-name="percent" unicode="&#x2028;" horiz-adv-x="775" 
d="M181 0l332 739h72l-332 -739h-72zM189 751q73 0 122.5 -51t49.5 -124q0 -71 -51.5 -123t-121.5 -52q-71 0 -123 52.5t-52 124.5q0 74 50.5 123.5t125.5 49.5zM189 680q-46 0 -75.5 -29t-29.5 -74q0 -43 30.5 -74t72.5 -31q44 0 73.5 32t29.5 77q0 41 -29.5 70t-71.5 29z
M579 338q73 0 123 -53t50 -126q0 -71 -51.5 -121.5t-122.5 -50.5t-123 51t-52 122q0 74 51 126t125 52zM579 267q-46 0 -75.5 -31t-29.5 -77q0 -42 31 -71.5t73 -29.5q44 0 73.5 30.5t29.5 74.5q0 42 -30 73t-72 31z" />
    <glyph glyph-name="percent" unicode="&#x2027;" horiz-adv-x="775" 
d="M181 0l332 739h72l-332 -739h-72zM189 751q73 0 122.5 -51t49.5 -124q0 -71 -51.5 -123t-121.5 -52q-71 0 -123 52.5t-52 124.5q0 74 50.5 123.5t125.5 49.5zM189 680q-46 0 -75.5 -29t-29.5 -74q0 -43 30.5 -74t72.5 -31q44 0 73.5 32t29.5 77q0 41 -29.5 70t-71.5 29z
M579 338q73 0 123 -53t50 -126q0 -71 -51.5 -121.5t-122.5 -50.5t-123 51t-52 122q0 74 51 126t125 52zM579 267q-46 0 -75.5 -31t-29.5 -77q0 -42 31 -71.5t73 -29.5q44 0 73.5 30.5t29.5 74.5q0 42 -30 73t-72 31z" />
    <glyph glyph-name="ampersand" unicode="&#x26;" horiz-adv-x="757" 
d="M602 480h83l-137 -261l187 -182l-53 -50l-169 165q-82 -165 -227 -165q-95 0 -162 67t-67 162q0 137 166 220q-78 78 -78 154q0 66 53 113.5t120 47.5q75 0 128.5 -50.5t53.5 -124.5q0 -112 -145 -166l140 -138zM280 379l-32 -17q-117 -62 -117 -152q0 -60 44.5 -106
t104.5 -46q64 0 110 45q32 32 68 102zM426 586q0 38 -32.5 66t-71.5 28q-42 0 -72.5 -26.5t-30.5 -68.5q0 -32 28 -67q13 -16 53 -54q126 44 126 122z" />
    <glyph glyph-name="quotesingle" unicode="'" horiz-adv-x="198" 
d="M74 513v226h50v-226h-50z" />
    <glyph glyph-name="parenleft" unicode="(" horiz-adv-x="369" 
d="M335 739v-65q-93 -53 -150 -158q-54 -101 -54 -212q0 -107 56 -209q57 -105 148 -157v-65q-102 27 -193 160q-85 124 -85 271t79 268q91 140 199 167z" />
    <glyph glyph-name="parenright" unicode=")" horiz-adv-x="369" 
d="M34 -127v65q92 51 149 157q55 101 55 209q0 112 -54 212q-56 105 -150 158v65q109 -30 199 -167q79 -120 79 -268t-85 -271q-92 -133 -193 -160z" />
    <glyph glyph-name="asterisk" unicode="*" horiz-adv-x="425" 
d="M360 633v-51h-100l53 -88l-46 -28l-54 90l-52 -90l-48 28l54 88h-103v51h103l-54 90l48 28l52 -90l54 90l46 -28l-53 -90h100z" />
    <glyph glyph-name="asterisk" horiz-adv-x="425" 
d="M360 633v-51h-100l53 -88l-46 -28l-54 90l-52 -90l-48 28l54 88h-103v51h103l-54 90l48 28l52 -90l54 90l46 -28l-53 -90h100z" />
    <glyph glyph-name="plus" unicode="+" horiz-adv-x="606" 
d="M265 341v213h76v-213h214v-76h-214v-216h-76v216h-214v76h214z" />
    <glyph glyph-name="comma" unicode="," horiz-adv-x="277" 
d="M91 -67l88 193h74l-88 -193h-74z" />
    <glyph glyph-name="hyphen" unicode="-" horiz-adv-x="332" 
d="M31 334h271v-67h-271v67z" />
    <glyph glyph-name="period" unicode="." horiz-adv-x="277" 
d="M101 0v126h74v-126h-74z" />
    <glyph glyph-name="slash" unicode="/" horiz-adv-x="437" 
d="M40 -128l289 867h68l-291 -867h-66z" />
    <glyph glyph-name="zero" unicode="0" horiz-adv-x="554" 
d="M30 281v192q0 119 58 190q72 88 190 88q110 0 182 -79q65 -72 65 -199v-192q0 -67 -9 -106q-11 -55 -45 -97q-73 -91 -193 -91q-118 0 -190 86q-36 43 -49 98q-9 41 -9 110zM451 293v163q0 104 -32 151q-22 33 -61 53t-80 20q-44 0 -86.5 -23t-62.5 -61q-25 -46 -25 -140
v-163q0 -118 32 -164q50 -71 142 -71q100 0 148 82q25 43 25 153z" />
    <glyph glyph-name="one" unicode="1" horiz-adv-x="554" 
d="M280 0v672h-125v67h199v-739h-74z" />
    <glyph glyph-name="two" unicode="2" horiz-adv-x="554" 
d="M33 0v66l282 272q56 54 78 84q39 53 39 104q0 66 -48 110t-114 44q-48 0 -89.5 -28t-57.5 -72q-11 -33 -10 -80h-74q-5 107 62.5 179t174.5 72q95 0 160 -65q70 -70 70 -159q0 -73 -44 -136q-25 -37 -98 -106l-229 -218h367v-67h-469z" />
    <glyph glyph-name="three" unicode="3" horiz-adv-x="554" 
d="M157 555h-74q0 83 52.5 139.5t136.5 56.5q78 0 131 -55.5t53 -133.5q0 -80 -76 -139q56 -25 90 -80.5t34 -117.5q0 -99 -69.5 -168.5t-168.5 -69.5t-167 72.5t-66 171.5h74q4 -62 25 -95q50 -78 132 -78q70 0 118 48.5t48 117.5q0 52 -31 94.5t-79 59.5q-22 8 -100 10v66
l25 -2q57 -5 95 25q42 33 42 91q0 49 -33.5 80.5t-82.5 31.5t-79 -37t-30 -88z" />
    <glyph glyph-name="four" unicode="4" horiz-adv-x="554" 
d="M386 0v135h-374v67l358 537h90v-537h67v-67h-67v-135h-74zM386 202v435l-287 -435h287z" />
    <glyph glyph-name="five" unicode="5" horiz-adv-x="554" 
d="M66 375l67 364h334v-67h-274l-37 -204q60 35 125 35q104 0 175.5 -76.5t71.5 -180.5q0 -106 -71.5 -182.5t-176.5 -76.5q-103 0 -176 72q-70 69 -78 173h74q5 -72 54.5 -123t121.5 -51q76 0 127 55t51 131t-50.5 132t-126.5 56q-88 0 -152 -78z" />
    <glyph glyph-name="six" unicode="6" horiz-adv-x="554" 
d="M295 739h86l-175 -260q38 23 88 23q98 0 168 -80q67 -78 67 -177q0 -103 -72.5 -180.5t-181.5 -77.5q-103 0 -176.5 76.5t-73.5 180.5q0 65 28 124q15 31 67 109zM276 431q-74 0 -125.5 -53.5t-51.5 -128.5q0 -78 50 -133q51 -58 127 -58q74 0 126.5 55t52.5 130
q0 76 -51.5 132t-127.5 56z" />
    <glyph glyph-name="seven" unicode="7" horiz-adv-x="554" 
d="M108 0l304 672h-348v67h426v-67l-302 -672h-80z" />
    <glyph glyph-name="eight" unicode="8" horiz-adv-x="554" 
d="M167 413q-86 42 -86 148q0 83 58 136.5t141 53.5q81 0 137 -57t56 -138q0 -46 -23.5 -85.5t-64.5 -57.5q57 -25 92 -79t35 -116q0 -97 -70.5 -164t-167.5 -67q-95 0 -163.5 67.5t-68.5 162.5q0 61 35 118.5t90 77.5zM275 373q-67 0 -113 -46.5t-46 -113.5
q0 -65 46.5 -110t111.5 -45q69 0 116.5 46t47.5 114q0 66 -48 110.5t-115 44.5zM280 680q-50 0 -87.5 -32.5t-37.5 -82.5q0 -52 36 -86.5t88 -34.5q48 0 84 35t36 83q0 49 -35 83.5t-84 34.5z" />
    <glyph glyph-name="nine" unicode="9" horiz-adv-x="554" 
d="M259 0h-86l175 259q-38 -23 -89 -23q-98 0 -167 81q-67 77 -67 176q0 103 72.5 180.5t181.5 77.5q103 0 176.5 -76t73.5 -180q0 -65 -28 -124q-15 -31 -67 -109zM99 496q0 -75 55 -132.5t124 -53.5q74 -4 125.5 50t51.5 129q0 78 -49 133q-52 58 -128 58
q-74 0 -126.5 -55t-52.5 -129z" />
    <glyph glyph-name="colon" unicode=":" horiz-adv-x="277" 
d="M101 0v126h74v-126h-74zM101 384v126h74v-126h-74z" />
    <glyph glyph-name="semicolon" unicode=";" horiz-adv-x="277" 
d="M41 -67l88 193h74l-88 -193h-74zM129 384v126h74v-126h-74z" />
    <glyph glyph-name="less" unicode="&#x3c;" horiz-adv-x="606" 
d="M144 301l414 -191v-73l-509 232v64l509 232v-73z" />
    <glyph glyph-name="equal" unicode="=" horiz-adv-x="606" 
d="M555 436v-75h-504v75h504zM555 241v-75h-504v75h504z" />
    <glyph glyph-name="greater" unicode="&#x3e;" horiz-adv-x="606" 
d="M48 110l414 191l-414 191v73l509 -232v-64l-509 -232v73z" />
    <glyph glyph-name="question" unicode="?" horiz-adv-x="591" 
d="M264 0v126h74v-126h-74zM136 508h-71v21q0 89 68.5 155.5t168.5 66.5q96 0 159.5 -64.5t63.5 -160.5q0 -63 -48 -120q-44 -47 -89 -93q-49 -57 -50 -120h-74q-4 104 104 202q44 40 58 60q25 36 25 79q0 62 -47 104t-109 42q-68 0 -116 -52t-43 -120z" />
    <glyph glyph-name="at" unicode="@" horiz-adv-x="867" 
d="M720 175l60 1q-47 -87 -137 -137.5t-190 -50.5q-161 0 -271.5 112t-110.5 273q0 157 112.5 268t270.5 111q137 0 237 -87q106 -92 106 -232q0 -101 -59 -184q-78 -110 -176 -110q-70 0 -87 53q-48 -51 -120 -51q-63 0 -101.5 44t-38.5 107q0 110 69 204q75 102 181 102
q83 0 113 -67l15 47h68l-102 -305q-13 -39 -13 -52q0 -29 30 -29q31 0 68 27q31 23 53 54q51 72 51 164q0 118 -91 195q-86 71 -206 71q-138 0 -233.5 -99.5t-95.5 -237.5q0 -136 97.5 -232.5t233.5 -96.5q78 0 150 37t117 101zM370 205q69 0 115 89q52 102 52 171
q0 30 -20 51.5t-50 21.5q-74 0 -128 -86q-47 -76 -47 -155q0 -38 20.5 -65t57.5 -27z" />
    <glyph glyph-name="A" unicode="A" horiz-adv-x="740" 
d="M11 0l319 739h82l317 -739h-80l-107 248h-344l-107 -248h-80zM227 315h286l-142 339z" />
    <glyph glyph-name="B" unicode="B" horiz-adv-x="574" 
d="M76 0v739h173q111 0 168 -37q87 -57 87 -159q0 -90 -82 -148q122 -50 122 -186q0 -51 -24.5 -96.5t-67 -72.5t-97.5 -35q-32 -5 -105 -5h-174zM150 67h91q113 0 156 22q31 16 51.5 50t20.5 69q0 101 -92 133q-43 15 -149 15h-78v-289zM150 423h80q99 0 140 22
q27 14 43.5 43t16.5 60q0 66 -59 102q-36 22 -135 22h-86v-249z" />
    <glyph glyph-name="C" unicode="C" horiz-adv-x="813" 
d="M767 549h-82q-40 61 -111 96t-147 35q-125 0 -217 -93t-92 -215q0 -129 93.5 -221.5t220.5 -92.5q74 0 143 37t113 98h82q-48 -92 -141 -149t-197 -57q-163 0 -275.5 111t-112.5 274q0 157 112 268t270 111q118 0 213 -62q101 -66 128 -140z" />
    <glyph glyph-name="D" unicode="D" horiz-adv-x="744" 
d="M76 0v739h199q184 0 290 -86q63 -51 99 -126.5t36 -155.5q0 -164 -121 -275q-61 -56 -140 -78q-63 -18 -159 -18h-204zM150 67h95q91 0 139 10q72 14 128 58q114 90 114 236q0 144 -115 234q-55 43 -127 57q-48 10 -139 10h-95v-605z" />
    <glyph glyph-name="E" unicode="E" horiz-adv-x="536" 
d="M76 0v739h404v-67h-330v-266h319v-67h-319v-272h330v-67h-404z" />
    <glyph glyph-name="F" unicode="F" horiz-adv-x="485" 
d="M76 0v739h375v-67h-301v-267h290v-67h-290v-338h-74z" />
    <glyph glyph-name="G" unicode="G" horiz-adv-x="872" 
d="M329 341h502q-10 -150 -125 -252t-266 -102q-161 0 -278.5 112.5t-117.5 273.5q0 153 114.5 265.5t281.5 112.5q122 0 217 -63q103 -68 129 -146h-84q-38 64 -110.5 101t-151.5 37q-130 0 -220 -83q-102 -94 -102 -225q0 -133 97 -224q94 -90 228 -90q101 0 186.5 60.5
t112.5 155.5h-413v67z" />
    <glyph glyph-name="H" unicode="H" horiz-adv-x="683" 
d="M76 0v739h74v-325h383v325h74v-739h-74v347h-383v-347h-74z" />
    <glyph glyph-name="I" unicode="I" horiz-adv-x="226" 
d="M76 0v739h74v-739h-74z" />
    <glyph glyph-name="J" unicode="J" horiz-adv-x="482" 
d="M406 739v-531q0 -53 -5 -78q-9 -37 -35 -70q-59 -73 -158 -73q-81 0 -138 54t-59 134h73q4 -52 41 -84.5t90 -32.5q81 0 108 74q9 25 9 98v509h74z" />
    <glyph glyph-name="K" unicode="K" horiz-adv-x="591" 
d="M76 0v739h74v-425l341 425h94l-292 -360l292 -379h-92l-247 320l-96 -118v-202h-74z" />
    <glyph glyph-name="L" unicode="L" horiz-adv-x="462" 
d="M76 0v739h74v-672h306v-67h-380z" />
    <glyph glyph-name="M" unicode="M" horiz-adv-x="919" 
d="M76 0v739h114l270 -629l269 629h114v-739h-74v657l-278 -657h-63l-278 657v-657h-74z" />
    <glyph glyph-name="N" unicode="N" horiz-adv-x="740" 
d="M76 0v739h100l414 -613v613h74v-739h-74l-440 650v-650h-74z" />
    <glyph glyph-name="O" unicode="O" horiz-adv-x="869" 
d="M434 751q158 0 274.5 -111t116.5 -268q0 -161 -115 -273t-276 -112q-157 0 -273.5 111t-116.5 268q0 161 114.5 273t275.5 112zM435 58q131 0 223.5 91.5t92.5 222.5q0 127 -94 217.5t-222 90.5q-132 0 -224.5 -91.5t-92.5 -222.5q0 -127 95 -217.5t222 -90.5z" />
    <glyph glyph-name="P" unicode="P" horiz-adv-x="592" 
d="M76 0v739h194q134 0 198 -40q97 -61 97 -182q0 -109 -84 -171q-65 -48 -192 -48h-139v-298h-74zM150 365h127q101 0 149 30q65 40 65 123q0 99 -92 138q-32 13 -76 16h-78h-95v-307z" />
    <glyph glyph-name="Q" unicode="Q" horiz-adv-x="871" 
d="M827 56v-69h-9q-90 0 -156 63q-92 -63 -222 -63q-160 0 -278 109t-118 268q0 167 115 277t283 110q169 0 283 -110.5t114 -278.5q0 -157 -124 -271q54 -39 96 -36zM605 102l-39 30q-41 31 -59 43q-33 21 -66 33q-82 29 -167 29q-64 0 -114 -21q30 -59 103 -107
q77 -51 183 -51q97 0 159 44zM130 279q77 27 158 27q111 0 204 -44q80 -37 172 -120q101 94 101 221q0 135 -94 226t-230 91q-134 0 -228.5 -91.5t-94.5 -225.5q0 -47 12 -84z" />
    <glyph glyph-name="R" unicode="R" horiz-adv-x="607" 
d="M76 0v739h176q147 0 210 -36q115 -65 115 -205q0 -90 -64 -155t-154 -67l208 -276h-92l-251 335h22q117 0 161 20q96 44 96 150q0 83 -69 132q-50 35 -167 35h-117v-672h-74z" />
    <glyph glyph-name="S" unicode="S" horiz-adv-x="498" 
d="M22 207h79q2 -62 44.5 -105.5t103.5 -43.5q64 0 108.5 41.5t44.5 104.5t-51 105q-35 28 -114 49q-47 12 -68 21q-37 14 -62 35q-62 53 -62 138q0 88 62 144q59 55 148 55q85 0 144.5 -58t58.5 -142h-77q-4 57 -41 93t-94 36q-53 0 -90 -38t-37 -91q0 -59 46 -91
q28 -19 100 -39q58 -16 75 -23q38 -15 67 -40q69 -61 69 -155q0 -90 -67 -153t-158 -63q-96 0 -163 62.5t-66 157.5z" />
    <glyph glyph-name="T" unicode="T" horiz-adv-x="426" 
d="M177 0v672h-170v67h412v-67h-168v-672h-74z" />
    <glyph glyph-name="U" unicode="U" horiz-adv-x="655" 
d="M76 739h74v-449q0 -101 34 -155q49 -77 144 -77q87 0 136 67q41 56 41 165v449h74v-449q0 -137 -55 -209q-72 -94 -196 -94q-121 0 -193 88q-59 72 -59 215v449z" />
    <glyph glyph-name="V" unicode="V" horiz-adv-x="702" 
d="M315 0l-305 739h81l259 -647l261 647h81l-307 -739h-70z" />
    <glyph glyph-name="W" unicode="W" horiz-adv-x="960" 
d="M220 0l-210 739h77l181 -644l177 644h70l177 -643l181 643h77l-211 -739h-97l-162 606l-163 -606h-97z" />
    <glyph glyph-name="X" unicode="X" horiz-adv-x="609" 
d="M8 0l251 378l-236 361h86l196 -296l195 296h86l-239 -361l254 -378h-87l-209 316l-210 -316h-87z" />
    <glyph glyph-name="Y" unicode="Y" horiz-adv-x="592" 
d="M259 0v247l-257 492h81l213 -415l213 415h81l-257 -492v-247h-74z" />
    <glyph glyph-name="Z" unicode="Z" horiz-adv-x="480" 
d="M17 0v66l363 606h-352v67h435v-67l-362 -605h373v-67h-457z" />
    <glyph glyph-name="bracketleft" unicode="[" horiz-adv-x="351" 
d="M313 -51v-76q-75 18 -132 81q-41 45 -56 96q-13 42 -13 110v289q0 63 9 101q13 48 47 91q64 80 145 98v-76q-71 -31 -101 -84q-28 -48 -28 -130v-277q0 -88 24 -135q29 -55 105 -88z" />
    <glyph glyph-name="backslash" unicode="\" horiz-adv-x="605" 
d="M394 0l-310 739h71l309 -739h-70z" />
    <glyph glyph-name="bracketright" unicode="]" horiz-adv-x="351" 
d="M38 663v76q75 -19 132 -82q41 -45 56 -96q13 -42 13 -110v-289q0 -62 -10 -101q-13 -47 -47 -91q-64 -82 -144 -97v76q70 29 101 83q28 49 28 130v276q0 54 -5 79q-7 36 -31 72q-33 48 -93 74z" />
    <glyph glyph-name="asciicircum" unicode="^" horiz-adv-x="606" 
d="M82 180h-64l255 559h58l257 -559h-64l-223 484z" />
    <glyph glyph-name="underscore" unicode="_" horiz-adv-x="500" 
d="M500 -125h-500v58h500v-58z" />
    <glyph glyph-name="grave" unicode="`" horiz-adv-x="378" 
d="M106 779l198 -108l-33 -58l-197 106z" />
    <glyph glyph-name="a" unicode="a" horiz-adv-x="683" 
d="M620 547v-547h-71v103h-2q-29 -56 -88 -87q-55 -29 -122 -29q-139 0 -241 116q-19 21 -34 64q-20 54 -20 110q0 110 79 192q87 90 214 90q68 0 124 -29q60 -31 88 -87h2v104h71zM335 488q-90 0 -154.5 -63.5t-64.5 -153.5q0 -89 66 -151t155 -62q86 0 149 63.5t63 148.5
q0 91 -61.5 154.5t-152.5 63.5z" />
    <glyph glyph-name="b" unicode="b" horiz-adv-x="682" 
d="M63 0v739h74v-294h2q24 54 85 86q55 28 120 28q121 0 208.5 -81.5t87.5 -201.5q0 -109 -65 -182q-95 -107 -224 -107q-64 0 -122 27q-65 29 -94 80h-2v-94h-70zM346 488q-91 0 -156 -66q-58 -59 -58 -153q0 -90 64 -150.5t155 -60.5q89 0 152 63.5t63 152.5q0 92 -64 153
t-156 61z" />
    <glyph glyph-name="c" unicode="c" horiz-adv-x="647" 
d="M525 160h82q-37 -81 -107.5 -127t-158.5 -46q-124 0 -211.5 82t-87.5 205q0 120 88 202.5t208 82.5q89 0 164 -48.5t106 -129.5h-83q-29 49 -79.5 78t-106.5 29q-92 0 -157.5 -61t-65.5 -152t63 -154t154 -63q119 0 192 102z" />
    <glyph glyph-name="d" unicode="d" horiz-adv-x="685" 
d="M622 739v-739h-70v100h-2q-78 -113 -219 -113q-122 0 -229 113q-22 19 -40 66q-20 53 -20 109q0 121 86.5 202.5t207.5 81.5q64 0 121.5 -28t88.5 -79h2v287h74zM550 276q0 90 -64.5 151t-154.5 61q-88 0 -151.5 -62t-63.5 -150q0 -90 63.5 -154t153.5 -64t153.5 64
t63.5 154z" />
    <glyph glyph-name="e" unicode="e" horiz-adv-x="650" 
d="M611 247h-495q3 -77 66 -133t140 -56q62 0 117 32.5t79 87.5h77q-29 -83 -104 -137t-162 -54q-120 0 -203.5 83t-83.5 203q0 119 83 202.5t202 83.5q134 0 220 -106q61 -74 64 -206zM116 314h421q-14 73 -74 123.5t-135 50.5q-78 0 -138.5 -49.5t-73.5 -124.5z" />
    <glyph glyph-name="f" unicode="f" horiz-adv-x="314" 
d="M101 0v480h-85v67h85q-4 91 51 142q52 50 144 50h14v-67h-14q-121 0 -121 -114v-11h136v-67h-136v-480h-74z" />
    <glyph glyph-name="g" unicode="g" horiz-adv-x="673" 
d="M610 547v-469q0 -74 -9 -109q-13 -48 -55 -94q-82 -89 -216 -89q-92 0 -169 56.5t-99 144.5h72q69 -130 202 -130q55 0 102 24q51 25 77 71q24 42 24 126v30h-2q-23 -58 -86 -91q-57 -30 -126 -30q-112 0 -197.5 80.5t-85.5 204.5q0 52 19 105q15 42 33 64
q96 118 227 118q69 0 126 -29q61 -32 90 -89h2v106h71zM319 488q-85 0 -144 -62t-59 -147q0 -93 59 -157t151 -64q91 0 151.5 63.5t60.5 151.5q0 92 -63.5 153.5t-155.5 61.5z" />
    <glyph glyph-name="h" unicode="h" horiz-adv-x="610" 
d="M63 0v739h74v-271q23 43 70 68q44 23 96 23q114 0 187 -84q57 -65 57 -187v-288h-74v288q0 86 -32 131q-49 69 -141 69q-85 0 -135 -67q-28 -37 -28 -133v-288h-74z" />
    <glyph glyph-name="i" unicode="i" horiz-adv-x="200" 
d="M63 0v547h74v-547h-74zM68 613v80h66v-80h-66z" />
    <glyph glyph-name="j" unicode="j" horiz-adv-x="203" 
d="M140 547v-497q0 -71 -5 -99q-10 -49 -45 -86q-54 -57 -135 -57v72q71 3 95 55q16 35 16 115v497h74zM69 613v80h66v-80h-66z" />
    <glyph glyph-name="k" unicode="k" horiz-adv-x="502" 
d="M63 0v739h74v-519l251 327h95l-212 -274l226 -273h-95l-178 216l-87 -112v-104h-74z" />
    <glyph glyph-name="l" unicode="l" horiz-adv-x="200" 
d="M63 0v739h74v-739h-74z" />
    <glyph glyph-name="m" unicode="m" horiz-adv-x="938" 
d="M63 0v547h70v-71h2q36 83 144 83q109 0 177 -83q5 -7 14 -21q4 7 11 21q28 39 77 61q46 22 96 22q87 0 170 -83q51 -51 51 -164v-312h-74v305q0 80 -27 118q-46 65 -124 65q-77 0 -121 -62q-23 -32 -23 -121v-305h-74v313q0 71 -26 109q-45 66 -123 66t-120 -58
q-26 -36 -26 -117v-313h-74z" />
    <glyph glyph-name="n" unicode="n" horiz-adv-x="610" 
d="M63 0v547h70v-79h2q62 91 168 91q120 0 194 -91q50 -62 50 -180v-288h-74v288q0 85 -32 130q-50 70 -141 70q-85 0 -134 -67q-29 -40 -29 -133v-288h-74z" />
    <glyph glyph-name="o" unicode="o" horiz-adv-x="655" 
d="M329 559q114 0 199 -84t85 -198q0 -118 -83 -204t-201 -86q-117 0 -202 83t-85 200q0 120 83.5 204.5t203.5 84.5zM329 488q-90 0 -151.5 -64t-61.5 -154q0 -88 62.5 -150t150.5 -62q90 0 150 64t60 155q0 90 -63.5 150.5t-146.5 60.5z" />
    <glyph glyph-name="p" unicode="p" horiz-adv-x="682" 
d="M63 547h70v-94h2q29 50 94 80q58 26 122 26q120 0 224 -106q26 -27 44 -73q21 -53 21 -109q0 -120 -87.5 -202t-208.5 -82q-65 0 -120 29q-61 32 -85 86h-2v-294h-74v739zM346 58q92 0 156 61t64 153q0 89 -63 152.5t-152 63.5q-91 0 -155 -60t-64 -150q0 -94 58 -153
q65 -67 156 -67z" />
    <glyph glyph-name="q" unicode="q" horiz-adv-x="682" 
d="M619 547v-739h-74v294h-2q-24 -54 -85 -86q-55 -29 -120 -29q-121 0 -208.5 82t-87.5 202q0 56 20 110q19 47 44 72q91 106 225 106q64 0 122 -26q65 -30 94 -80h2v94h70zM336 58q92 0 157 67q57 59 57 153q0 90 -64 150t-155 60q-89 0 -152 -63.5t-63 -152.5
q0 -92 64 -153t156 -61z" />
    <glyph glyph-name="r" unicode="r" horiz-adv-x="301" 
d="M63 0v547h70v-79h2q36 87 157 91v-73q-59 -4 -99 -38q-36 -30 -47 -64q-9 -26 -9 -78v-306h-74z" />
    <glyph glyph-name="s" unicode="s" horiz-adv-x="388" 
d="M18 161h74q-2 -42 27.5 -72.5t71.5 -30.5q40 0 68 25.5t28 65.5q0 74 -106 105q-69 20 -99 48q-44 41 -44 104q0 66 46 109.5t112 43.5q61 0 106 -44t45 -104h-74q0 35 -24 56t-61 21q-31 0 -53.5 -22t-22.5 -54q0 -40 30 -62q18 -14 66 -29q74 -23 107 -53
q46 -39 46 -107q0 -77 -50 -125.5t-127 -48.5q-70 0 -120 52t-46 122z" />
    <glyph glyph-name="t" unicode="t" horiz-adv-x="339" 
d="M126 0v480h-114v67h114v192h74v-192h127v-67h-127v-480h-74z" />
    <glyph glyph-name="u" unicode="u" horiz-adv-x="608" 
d="M545 547v-547h-70v85h-2q-48 -98 -179 -98q-106 0 -192 98q-39 44 -39 173v289h74v-289q0 -80 24 -121q46 -79 143 -79q85 0 134 67q33 45 33 133v289h74z" />
    <glyph glyph-name="v" unicode="v" horiz-adv-x="554" 
d="M238 0l-230 547h80l189 -453l189 453h80l-231 -547h-77z" />
    <glyph glyph-name="w" unicode="w" horiz-adv-x="831" 
d="M214 0l-207 547h78l172 -458l127 391h61l126 -391l175 458h78l-208 -547h-85l-117 363l-115 -363h-85z" />
    <glyph glyph-name="x" unicode="x" horiz-adv-x="480" 
d="M8 0l187 278l-187 269h87l145 -211l145 211h87l-188 -269l188 -278h-87l-145 219l-145 -219h-87z" />
    <glyph glyph-name="y" unicode="y" horiz-adv-x="536" 
d="M448 547h79l-316 -739h-78l86 209l-210 530h79l175 -436z" />
    <glyph glyph-name="z" unicode="z" horiz-adv-x="425" 
d="M10 0v65l296 415h-286v67h376v-67l-294 -413h313v-67h-405z" />
    <glyph glyph-name="braceleft" unicode="{" horiz-adv-x="351" 
d="M119 419v169q0 87 32 120.5t120 30.5q-80 -24 -80 -115v-178q0 -61 -16 -90q-20 -37 -74 -50q53 -11 73 -43q17 -27 17 -84v-191q0 -49 17 -75t63 -40q-79 0 -114 26q-38 28 -38 108v190q0 52 -22 78t-60 31q32 9 52.5 25t26.5 40q3 13 3 48z" />
    <glyph glyph-name="bar" unicode="|" horiz-adv-x="672" 
d="M304 0v739h64v-739h-64z" />
    <glyph glyph-name="braceright" unicode="}" horiz-adv-x="351" 
d="M115 446v178q0 91 -77 115q86 3 119 -32q30 -33 30 -119v-169q0 -64 30 -88q21 -17 52 -25q-36 -5 -59 -31t-23 -78v-190q0 -80 -36.5 -107t-112.5 -27q44 14 60.5 40t16.5 75v191q0 57 17 84q20 32 73 43q-54 13 -74 50q-16 29 -16 90z" />
    <glyph glyph-name="asciitilde" unicode="~" horiz-adv-x="606" 
d="M513 391l42 -47q-62 -111 -142 -111q-29 0 -135 44q-60 25 -84 25q-35 0 -62 -30q-14 -15 -40 -60l-41 48q65 118 143 118q38 0 117 -35t103 -35q55 0 99 83z" />
    <glyph glyph-name="exclamdown" horiz-adv-x="480" 
d="M17 0v66l363 606h-352v67h435v-67l-362 -605h373v-67h-457zM97 896h82l77 -66l78 66h80l-127 -113h-60z" />
    <glyph glyph-name="cent" horiz-adv-x="302" 
d="M149 0h50q-80 -45 -80 -89q0 -28 21 -43q18 -14 46 -14q21 0 42 9v-44q-25 -9 -52 -9q-42 0 -70 22q-32 24 -32 65q0 65 75 103z" />
    <glyph glyph-name="sterling" horiz-adv-x="502" 
d="M74 739h92l86 -74l87 74h89l-142 -126h-67z" />
    <glyph glyph-name="currency" unicode="&#x201a;" horiz-adv-x="354" 
d="M89 -67l88 193h74l-88 -193h-74z" />
    <glyph glyph-name="yen" unicode="&#x192;" horiz-adv-x="554" 
d="M393 521h112l-12 -67h-112l-78 -419q-14 -75 -17 -86q-13 -50 -35 -81q-60 -83 -178 -82q-19 0 -55 6l13 65l26 -4l28 -2q77 -5 112 57q18 34 37 134l78 412h-114l13 67h112l1 9q11 95 56 151q57 70 145 70h21l-13 -71l-7 2l-10 1q-43 0 -78 -39q-24 -27 -42 -109z" />
    <glyph glyph-name="brokenbar" unicode="&#x201e;" horiz-adv-x="502" 
d="M89 -67l88 193h74l-88 -193h-74zM237 -67l88 193h73l-87 -193h-74z" />
    <glyph glyph-name="section" unicode="&#x2026;" horiz-adv-x="1000" 
d="M130 0v80h66v-80h-66zM463 -46v80h66v-80h-66zM796 -92v80h66v-80h-66z" />
    <glyph glyph-name="dieresis" unicode="&#x2020;" horiz-adv-x="553" 
d="M313 739v-200h181v-67h-181v-599h-74v599h-180v67h180v200h74z" />
    <glyph glyph-name="copyright" unicode="&#x2021;" horiz-adv-x="553" 
d="M313 739v-177h181v-69h-181v-94h181v-66h-181v-461h-73v461h-181v66h181v94h-181v69h181v177h73z" />
    <glyph glyph-name="ordfeminine" unicode="&#x2c6;" horiz-adv-x="502" 
d="M74 613l145 126h64l145 -126h-90l-87 73l-87 -73h-90z" />
    <glyph glyph-name="guillemotleft" unicode="&#x2030;" horiz-adv-x="1174" 
d="M181 0l332 739h72l-332 -739h-72zM189 751q73 0 122.5 -53t49.5 -126q0 -71 -51.5 -121t-121.5 -50q-72 0 -123.5 50.5t-51.5 122.5q0 75 50.5 126t125.5 51zM189 680v1q-46 -1 -75.5 -32t-29.5 -76q0 -42 30.5 -71.5t72.5 -29.5q44 0 73.5 30.5t29.5 74.5
q0 42 -29.5 72.5t-71.5 30.5zM579 338q73 0 123 -53t50 -126q0 -71 -51.5 -121.5t-122.5 -50.5t-123 51t-52 122q0 74 51 126t125 52zM579 267q-46 0 -75.5 -32.5t-29.5 -79.5q0 -42 30.5 -69.5t73.5 -27.5q44 0 73.5 29t29.5 72t-30.5 75.5t-71.5 32.5zM978 338
q73 0 123 -53t50 -126q0 -71 -51.5 -121.5t-122.5 -50.5t-123 51t-52 122q0 74 51 126t125 52zM978 267q-46 0 -75.5 -32.5t-29.5 -78.5q0 -43 30.5 -70.5t72.5 -27.5q45 0 74.5 28.5t29.5 72.5q0 43 -30.5 75.5t-71.5 32.5z" />
    <glyph glyph-name="logicalnot" unicode="&#x160;" horiz-adv-x="498" 
d="M22 207h79q2 -62 44.5 -105.5t103.5 -43.5q64 0 108.5 41.5t44.5 104.5t-51 105q-35 28 -114 49q-47 12 -68 21q-37 14 -62 35q-62 53 -62 138q0 88 62 144q59 55 148 55q85 0 144.5 -58t58.5 -142h-77q-4 57 -41 93t-94 36q-53 0 -90 -38t-37 -91q0 -59 46 -91
q28 -19 100 -39q58 -16 75 -23q38 -15 67 -40q69 -61 69 -155q0 -90 -67 -153t-158 -63q-96 0 -163 62.5t-66 157.5zM91 917h82l77 -66l78 66h80l-127 -113h-60z" />
    <glyph glyph-name="registered" unicode="&#x2039;" horiz-adv-x="251" 
d="M153 101l-113 200l113 199l58 -31l-94 -168l94 -168z" />
    <glyph glyph-name="degree" unicode="&#x152;" horiz-adv-x="1194" 
d="M748 739h390v-67h-316v-267h305v-67h-305v-271h316v-67h-390v143h-2q-51 -72 -133.5 -114t-171.5 -42q-167 0 -282 108t-115 274q0 163 112.5 272.5t275.5 109.5q92 0 177 -40.5t137 -111.5h2v140zM435 680q-134 0 -225.5 -89.5t-91.5 -223.5q0 -129 91.5 -219t220.5 -90
q133 0 225.5 91t92.5 223q0 128 -92 218t-221 91v-1z" />
    <glyph glyph-name="plusminus" horiz-adv-x="517" 
d="M122 0v320l-96 -80v87l96 80v332h74v-277l148 125v-85l-148 -125v-310h306v-67h-380z" />
    <glyph glyph-name="twosuperior" horiz-adv-x="400" 
d="M350 589q0 -62 -44 -106t-106 -44t-106 44t-44 106t44 106t106 44t106 -44t44 -106zM310 589q0 45 -32.5 77.5t-78.5 32.5q-45 0 -77 -32.5t-32 -77.5q0 -46 32 -78t78 -32q45 0 77.5 32t32.5 78z" />
    <glyph glyph-name="threesuperior" horiz-adv-x="166" 
d="M-115 0l332 739h64l-332 -739h-64z" />
    <glyph glyph-name="acute" horiz-adv-x="453" 
d="M74 716h63q22 -46 89 -46t89 46h63q-13 -51 -57 -78q-40 -25 -95 -25t-95 25q-44 27 -57 78z" />
    <glyph glyph-name="paragraph" unicode="&#x2018;" horiz-adv-x="351" 
d="M260 546h-74l-88 193h74z" />
    <glyph glyph-name="cedilla" unicode="&#x2019;" horiz-adv-x="351" 
d="M91 546l88 193h74l-88 -193h-74z" />
    <glyph glyph-name="onesuperior" unicode="&#x201c;" horiz-adv-x="502" 
d="M406 546h-74l-88 193h74zM258 546h-74l-88 193h74z" />
    <glyph glyph-name="ordmasculine" unicode="&#x201d;" horiz-adv-x="484" 
d="M87 546l84 193h74l-88 -193h-70zM231 546l88 193h74l-88 -193h-74z" />
    <glyph glyph-name="guillemotright" unicode="&#x2022;" horiz-adv-x="606" 
d="M488 300q0 -76 -54.5 -130t-131.5 -54q-76 0 -130 54t-54 130q0 77 54 131.5t130 54.5q77 0 131.5 -54.5t54.5 -131.5z" />
    <glyph glyph-name="onequarter" unicode="&#x2013;" horiz-adv-x="500" 
d="M0 334h500v-67h-500v67z" />
    <glyph glyph-name="onehalf" unicode="&#x2014;" horiz-adv-x="1000" 
d="M0 334h1000v-67h-1000v67z" />
    <glyph glyph-name="threequarters" unicode="&#x2dc;" horiz-adv-x="439" 
d="M335 700l30 -48q-41 -39 -82 -39q-27 0 -72 23q-33 17 -51 17q-31 0 -56 -29l-29 49q39 42 88 42q28 0 64.5 -20t54.5 -20q19 0 53 25z" />
    <glyph glyph-name="questiondown" unicode="&#x2122;" horiz-adv-x="1000" 
d="M938 739v-421h-66v361l-146 -361h-39l-142 361v-361h-67v421h108l121 -297l125 297h106zM404 739v-60h-133v-361h-74v361h-134v60h341z" />
    <glyph glyph-name="Agrave" unicode="&#x161;" horiz-adv-x="388" 
d="M18 161h74q-2 -42 27.5 -72.5t71.5 -30.5q40 0 68 25.5t28 65.5q0 74 -106 105q-69 20 -99 48q-44 41 -44 104q0 66 46 109.5t112 43.5q61 0 106 -44t45 -104h-74q0 35 -24 56t-61 21q-31 0 -53.5 -22t-22.5 -54q0 -40 30 -62q18 -14 66 -29q74 -23 107 -53
q46 -39 46 -107q0 -77 -50 -125.5t-127 -48.5q-70 0 -120 52t-46 122zM22 721h82l77 -66l78 66h80l-127 -113h-60z" />
    <glyph glyph-name="Aacute" unicode="&#x203a;" horiz-adv-x="251" 
d="M98 101l-58 32l94 168l-94 168l58 31l113 -199z" />
    <glyph glyph-name="Acircumflex" unicode="&#x153;" horiz-adv-x="1137" 
d="M1098 245h-487q3 -78 66 -132.5t142 -54.5q60 0 113 32.5t76 86.5h75q-24 -83 -100 -136.5t-164 -53.5q-76 0 -144 40q-71 42 -101 109q-36 -67 -104 -108t-143 -41q-119 0 -202 85t-83 204q0 117 83.5 200t200.5 83q74 0 143 -42q66 -40 106 -106q30 66 99 108
q66 40 141 40q122 0 202.5 -84.5t80.5 -207.5v-22zM611 312h413q-9 72 -70 124t-134 52q-77 0 -136 -50t-73 -126zM329 58q87 0 147.5 62.5t60.5 149.5q0 88 -60.5 153t-147.5 65q-88 0 -150.5 -61.5t-62.5 -149.5q0 -90 61.5 -154.5t151.5 -64.5z" />
    <glyph glyph-name="Atilde" horiz-adv-x="200" 
d="M63 0v547h74v-547h-74z" />
    <glyph glyph-name="Atilde" unicode="&#x131;" horiz-adv-x="200" 
d="M63 0v547h74v-547h-74z" />
    <glyph glyph-name="Adieresis" horiz-adv-x="425" 
d="M10 0v65l296 415h-286v67h376v-67l-294 -413h313v-67h-405zM50 720h82l77 -66l78 66h80l-127 -113h-60z" />
    <glyph glyph-name="Aring" horiz-adv-x="592" 
d="M259 0v247l-257 492h81l213 -415l213 415h81l-257 -492v-247h-74zM179 887h74v-85h-74v85zM343 887h74v-85h-74v85z" />
    <glyph glyph-name="Aring" unicode="&#x178;" horiz-adv-x="592" 
d="M259 0v247l-257 492h81l213 -415l213 415h81l-257 -492v-247h-74zM179 887h74v-85h-74v85zM343 887h74v-85h-74v85z" />
    <glyph glyph-name="AE" unicode="&#xa0;" horiz-adv-x="485" 
d="M98 0v480h-85v67h85q-4 91 51 142q52 50 144 50h14v-67h-14q-121 0 -121 -114v-11h136v-67h-136v-480h-74zM348 0v739h74v-739h-74z" />
    <glyph glyph-name="Ccedilla" unicode="&#xa1;" horiz-adv-x="295" 
d="M111 -192v548h74v-548h-74zM111 421v80h66v-80h-66z" />
    <glyph glyph-name="Egrave" unicode="&#xa2;" horiz-adv-x="554" 
d="M260 62v89q-90 5 -152.5 74.5t-62.5 160.5q0 87 64 154t151 72v93h66v-93q62 -8 113 -49t70 -101h-83q-43 79 -143 79q-65 0 -114.5 -46t-49.5 -110q0 -67 49.5 -115t116.5 -48q83 0 138 68h80q-18 -54 -68.5 -92.5t-108.5 -46.5v-89h-66z" />
    <glyph glyph-name="Eacute" unicode="&#xa3;" horiz-adv-x="554" 
d="M58 0v67h139q43 39 43 113q0 53 -27 95q-21 31 -70 71h-125v67h73q-21 51 -21 92q0 88 60 160q71 86 185 86q89 0 159.5 -61.5t79.5 -149.5h-70q-11 58 -59.5 99t-108.5 41q-73 0 -122.5 -50t-49.5 -123q0 -58 28 -94h284v-67h-214q72 -76 72 -163q0 -56 -30 -116h25
q60 0 77 2q43 5 72 25q63 43 60 125q0 17 -6 48h72q8 -30 8 -57q0 -102 -80 -164q-59 -46 -180 -46h-274z" />
    <glyph glyph-name="Ecircumflex" unicode="&#xa4;" horiz-adv-x="554" 
d="M31 110l43 42q-48 71 -48 148q0 83 48 151l-43 43l52 53l44 -43q65 49 154 49q75 0 146 -49l44 43l52 -53l-43 -43q48 -69 48 -156q0 -72 -48 -143l43 -42l-52 -53l-44 43q-68 -50 -155 -50q-74 0 -145 50l-44 -43zM456 303q0 72 -51.5 125t-123.5 53q-78 0 -130.5 -51.5
t-52.5 -129.5q0 -73 52.5 -125.5t124.5 -52.5q75 0 128 52.5t53 128.5z" />
    <glyph glyph-name="Edieresis" unicode="&#xa5;" horiz-adv-x="554" 
d="M259 0v237h-206v62h177l-51 97h-133v62h101l-147 281h81l216 -415l211 415h81l-145 -281h99v-62h-132l-49 -97h174v-62h-203v-237h-74z" />
    <glyph glyph-name="Igrave" unicode="&#xa6;" horiz-adv-x="672" 
d="M304 0v296h64v-296h-64zM304 444v295h64v-295h-64z" />
    <glyph glyph-name="Iacute" unicode="&#xa7;" horiz-adv-x="615" 
d="M482 606h-70q-1 34 -38 56q-31 18 -68 18q-44 0 -72 -24.5t-28 -67.5q0 -53 70 -88l126 -63q60 -30 86 -55q41 -38 41 -90q0 -41 -23 -82.5t-58 -62.5q52 -41 52 -108q0 -80 -55 -129t-136 -49q-86 0 -144 59t-60 145h70q2 -57 40 -96.5t94 -36.5q50 -3 85 26t35 79
q0 37 -35 66q-17 13 -68 40l-162 84q-77 40 -77 111q0 92 88 153q-40 37 -40 99q0 69 49.5 115t119.5 46q66 0 119 -39q58 -42 59 -106zM223 270l177 -88q24 13 41 41t17 55q0 36 -22 58q-15 15 -54 35l-164 83q-26 -15 -43 -44t-17 -60q0 -48 65 -80z" />
    <glyph glyph-name="Icircumflex" unicode="&#xa8;" horiz-adv-x="369" 
d="M74 739h74v-126h-74v126zM221 739h74v-126h-74v126z" />
    <glyph glyph-name="Idieresis" unicode="&#xa9;" horiz-adv-x="747" 
d="M374 -13q-159 0 -271 112t-112 271q0 158 112 269.5t271 111.5q158 0 269.5 -111.5t111.5 -269.5q0 -159 -111.5 -271t-269.5 -112zM374 33q139 0 237 98.5t98 238.5q0 139 -98 237t-237 98t-237.5 -98t-98.5 -237q0 -140 98 -238.5t238 -98.5zM513 300h55
q-7 -67 -58 -107.5t-119 -40.5q-95 0 -153.5 63t-58.5 158q0 96 56.5 157.5t152.5 61.5q70 0 119.5 -38.5t60.5 -105.5h-55q-8 44 -43 71.5t-81 27.5q-73 0 -115 -51q-39 -47 -39 -122q0 -73 41 -122q44 -54 115 -54q46 0 81 28t41 74z" />
    <glyph glyph-name="Eth" unicode="&#xaa;" horiz-adv-x="369" 
d="M339 745v-292h-44v44h-2q-34 -51 -105 -51q-64 0 -110.5 43.5t-46.5 107.5q0 66 45 110t111 44q74 0 106 -51h2v45h44zM187 708q-46 0 -79 -32.5t-33 -77.5t34 -76.5t79 -31.5q43 0 75 32t32 75q0 46 -31.5 78.5t-76.5 32.5zM31 369h308v-44h-308v44z" />
    <glyph glyph-name="Ntilde" unicode="&#xab;" horiz-adv-x="425" 
d="M153 101l-113 200l113 199l58 -31l-94 -168l94 -168zM326 101l-113 200l113 199l59 -31l-94 -168l94 -168z" />
    <glyph glyph-name="Ograve" unicode="&#xac;" horiz-adv-x="606" 
d="M479 166v194h-428v76h504v-270h-76z" />
    <glyph glyph-name="Oacute" unicode="&#xad;" horiz-adv-x="606" 
d="M51 263v76h504v-76h-504z" />
    <glyph glyph-name="Ocircumflex" unicode="&#xae;" horiz-adv-x="747" 
d="M374 -13q-159 0 -271 112t-112 271q0 158 112 269.5t271 111.5q158 0 269.5 -111.5t111.5 -269.5q0 -159 -111.5 -271t-269.5 -112zM374 33q139 0 237 98.5t98 238.5q0 139 -98 237t-237 98t-237.5 -98t-98.5 -237q0 -140 98 -238.5t238 -98.5zM435 353l129 -197h-62
l-122 197h-96v-197h-52v427h186q68 0 104 -21q48 -28 48 -92q0 -113 -135 -117zM284 394h80q77 0 99 6q54 15 54 71q0 74 -111 74h-122v-151z" />
    <glyph glyph-name="Otilde" unicode="&#xaf;" horiz-adv-x="485" 
d="M74 680h337v-67h-337v67z" />
    <glyph glyph-name="Odieresis" unicode="&#xb0;" horiz-adv-x="332" 
d="M166 797q38 0 65 -27t27 -65t-27 -65t-65 -27t-65 27t-27 65t27 65t65 27zM166 760q-23 0 -39 -16t-16 -38q0 -23 16 -39.5t39 -16.5t39 16t16 39t-16 39t-39 16z" />
    <glyph glyph-name="multiply" unicode="&#xb1;" horiz-adv-x="606" 
d="M265 392v162h76v-162h214v-76h-214v-164h-76v164h-214v76h214zM51 0v76h504v-76h-504z" />
    <glyph glyph-name="Oslash" unicode="&#xb2;" horiz-adv-x="332" 
d="M12 296v40l183 163q71 63 71 113q0 40 -28.5 66.5t-71.5 26.5q-47 0 -72.5 -30.5t-23.5 -78.5h-54q-4 65 40 107.5t114 42.5q63 0 104 -38q46 -43 46 -95q0 -47 -29 -86q-16 -22 -64 -65l-140 -125h230v-41h-305z" />
    <glyph glyph-name="Ugrave" unicode="&#xb3;" horiz-adv-x="332" 
d="M134 529v41h16q90 0 90 67q0 30 -22 49.5t-54 19.5t-51.5 -23t-19.5 -54h-48q0 50 34 84t89 34q51 0 87 -33t36 -80q0 -46 -53 -84q36 -15 58.5 -48t22.5 -71q0 -59 -45 -100.5t-110 -41.5q-64 0 -108.5 43.5t-42.5 102.5h48q2 -44 30 -74.5t72 -30.5q45 0 75 29.5
t30 71.5q0 31 -19 56.5t-50 35.5q-19 6 -65 6z" />
    <glyph glyph-name="Uacute" unicode="&#xb4;" horiz-adv-x="375" 
d="M74 669l192 116l35 -58l-193 -114z" />
    <glyph glyph-name="Ucircumflex" unicode="&#xb5;" horiz-adv-x="608" 
d="M471 258v289h74v-547h-70v85h-2q-48 -98 -179 -98q-89 0 -157 62v-241h-74v739h74v-289q0 -80 24 -121q46 -79 143 -79q85 0 134 67q33 45 33 133z" />
    <glyph glyph-name="Udieresis" unicode="&#xb6;" horiz-adv-x="564" 
d="M229 -127v482q-77 -1 -134.5 56t-57.5 134q0 88 64 146q33 30 74 40q31 8 85 8h231v-866h-74v799h-114v-799h-74z" />
    <glyph glyph-name="Yacute" unicode="&#xb7;" horiz-adv-x="222" 
d="M74 739h74v-126h-74v126z" />
    <glyph glyph-name="Yacute" unicode="&#x2219;" horiz-adv-x="222" 
d="M74 739h74v-126h-74v126z" />
    <glyph glyph-name="Thorn" unicode="&#xb8;" horiz-adv-x="324" 
d="M165 0l-24 -58q15 7 31 7q36 0 57 -22t21 -58q0 -38 -25 -65t-62 -27q-73 0 -89 72l44 5q2 -14 16.5 -23.5t29.5 -9.5q43 0 43 47q0 20 -14 33.5t-34 13.5q-26 0 -40 -22l-31 17l40 90h37z" />
    <glyph glyph-name="germandbls" unicode="&#xb9;" horiz-adv-x="332" 
d="M179 296v402h-81v41h135v-443h-54z" />
    <glyph glyph-name="agrave" unicode="&#xba;" horiz-adv-x="369" 
d="M185 751q63 0 107.5 -45.5t44.5 -108.5q0 -61 -45.5 -106t-106.5 -45q-63 0 -108 44t-45 107q0 64 44.5 109t108.5 45zM185 490q45 0 75.5 32t30.5 77t-30.5 76.5t-75.5 31.5t-76 -31.5t-31 -76.5t31 -77t76 -32zM32 369h305v-44h-305v44z" />
    <glyph glyph-name="aacute" unicode="&#xbb;" horiz-adv-x="425" 
d="M272 101l-59 32l94 168l-94 168l59 31l113 -199zM98 101l-58 32l94 168l-94 168l58 31l113 -199z" />
    <glyph glyph-name="acircumflex" unicode="&#xbc;" horiz-adv-x="831" 
d="M217 0l332 739h64l-332 -739h-64zM182 296v402h-81v41h135v-443h-54zM707 0v81h-239v41l232 322h59v-322h44v-41h-44v-81h-52zM707 122v261l-188 -261h188z" />
    <glyph glyph-name="atilde" unicode="&#xbd;" horiz-adv-x="831" 
d="M207 0l332 739h64l-332 -739h-64zM177 296v402h-81v41h135v-443h-54zM506 0v40l183 163q71 63 71 113q0 40 -28.5 66.5t-71.5 26.5q-47 0 -72.5 -30.5t-23.5 -78.5h-54q-4 65 40 107.5t114 42.5q63 0 104 -38q46 -43 46 -95q0 -47 -29 -86q-16 -22 -64 -65l-140 -125h230
v-41h-305z" />
    <glyph glyph-name="adieresis" unicode="&#xbe;" horiz-adv-x="831" 
d="M707 0v81h-239v41l232 322h59v-322h44v-41h-44v-81h-52zM707 122v261l-188 -261h188zM232 0l332 739h64l-332 -739h-64zM134 529v41h16q90 0 90 67q0 30 -22 49.5t-54 19.5t-51.5 -23t-19.5 -54h-48q0 50 34 84t89 34q51 0 87 -33t36 -80q0 -46 -53 -84q36 -15 58.5 -48
t22.5 -71q0 -59 -45 -100.5t-110 -41.5q-64 0 -108.5 43.5t-42.5 102.5h48q2 -44 30 -74.5t72 -30.5q45 0 75 29.5t30 71.5q0 31 -19 56.5t-50 35.5q-19 6 -65 6z" />
    <glyph glyph-name="aring" unicode="&#xbf;" horiz-adv-x="591" 
d="M328 547v-126h-74v126h74zM455 34h71v-22q0 -89 -67.5 -157.5t-169.5 -68.5q-96 0 -159.5 65.5t-63.5 163.5q0 65 48 123q45 47 89 95q49 58 51 123h74q2 -108 -105 -208q-44 -41 -58 -61q-25 -36 -25 -81q0 -62 47 -105.5t109 -43.5q69 0 116.5 53.5t42.5 123.5z" />
    <glyph glyph-name="ae" unicode="&#xc0;" horiz-adv-x="740" 
d="M11 0l319 739h82l317 -739h-80l-107 248h-344l-107 -248h-80zM227 315h286l-142 339zM295 938l178 -97l-29 -52l-177 95z" />
    <glyph glyph-name="ccedilla" unicode="&#xc1;" horiz-adv-x="740" 
d="M11 0l319 739h82l317 -739h-80l-107 248h-344l-107 -248h-80zM227 315h286l-142 339zM289 839l172 104l31 -52l-173 -102z" />
    <glyph glyph-name="egrave" unicode="&#xc2;" horiz-adv-x="740" 
d="M11 0l319 739h82l317 -739h-80l-107 248h-344l-107 -248h-80zM227 315h286l-142 339zM213 775l131 113h57l130 -113h-81l-78 65l-78 -65h-81z" />
    <glyph glyph-name="eacute" unicode="&#xc3;" horiz-adv-x="740" 
d="M11 0l319 739h82l317 -739h-80l-107 248h-344l-107 -248h-80zM227 315h286l-142 339zM474 864l23 -40q-35 -35 -72 -35q-25 0 -63 19q-30 15 -45 15q-27 0 -48 -25l-26 44q34 37 78 37q24 0 57 -18t49 -18q17 0 47 21z" />
    <glyph glyph-name="ecircumflex" unicode="&#xc4;" horiz-adv-x="740" 
d="M11 0l319 739h82l317 -739h-80l-107 248h-344l-107 -248h-80zM227 315h286l-142 339zM258 870h74v-85h-74v85zM422 870h74v-85h-74v85z" />
    <glyph glyph-name="edieresis" unicode="&#xc5;" horiz-adv-x="740" 
d="M11 0l319 739h82l317 -739h-80l-107 248h-344l-107 -248h-80zM227 315h286l-142 339zM378 955q34 0 57.5 -23.5t23.5 -57.5t-23.5 -57.5t-57.5 -23.5t-57.5 23.5t-23.5 57.5t23.5 57.5t57.5 23.5zM378 922v1q-20 0 -34.5 -14t-14.5 -34t14 -34.5t34 -14.5t34.5 14
t14.5 34t-14 34t-34 14z" />
    <glyph glyph-name="igrave" unicode="&#xc6;" horiz-adv-x="992" 
d="M11 0l514 739h411v-67h-317v-266h306v-67h-306v-272h317v-67h-391v249h-272l-174 -249h-88zM320 316h225v328h-2z" />
    <glyph glyph-name="iacute" unicode="&#xc7;" horiz-adv-x="813" 
d="M767 549h-82q-40 61 -111 96t-147 35q-125 0 -217 -93t-92 -215q0 -129 93.5 -221.5t220.5 -92.5q74 0 143 37t113 98h82q-48 -92 -141 -149t-197 -57q-163 0 -275.5 111t-112.5 274q0 157 112 268t270 111q118 0 213 -62q101 -66 128 -140zM380 -6l-22 -50q11 5 26 5
q32 0 51 -19.5t19 -51.5q0 -34 -22 -58t-55 -24q-65 0 -79 64l39 4q1 -12 13.5 -20.5t26.5 -8.5q38 0 38 41q0 17 -12 29t-30 12q-22 0 -35 -19l-27 15l36 81h33z" />
    <glyph glyph-name="icircumflex" unicode="&#xc8;" horiz-adv-x="536" 
d="M76 0v739h404v-67h-330v-266h319v-67h-319v-272h330v-67h-404zM203 938l178 -97l-29 -52l-177 95z" />
    <glyph glyph-name="idieresis" unicode="&#xc9;" horiz-adv-x="536" 
d="M76 0v739h404v-67h-330v-266h319v-67h-319v-272h330v-67h-404zM212 839l172 104l31 -52l-173 -102z" />
    <glyph glyph-name="eth" unicode="&#xca;" horiz-adv-x="536" 
d="M76 0v739h404v-67h-330v-266h319v-67h-319v-272h330v-67h-404zM106 774l131 113h57l130 -113h-81l-78 65l-78 -65h-81z" />
    <glyph glyph-name="ntilde" unicode="&#xcb;" horiz-adv-x="536" 
d="M76 0v739h404v-67h-330v-266h319v-67h-319v-272h330v-67h-404zM156 874h74v-85h-74v85zM320 874h74v-85h-74v85z" />
    <glyph glyph-name="ograve" unicode="&#xcc;" horiz-adv-x="226" 
d="M76 0v739h74v-739h-74zM23 943l178 -97l-29 -52l-177 95z" />
    <glyph glyph-name="oacute" unicode="&#xcd;" horiz-adv-x="226" 
d="M76 0v739h74v-739h-74zM32 839l172 104l31 -52l-173 -102z" />
    <glyph glyph-name="ocircumflex" unicode="&#xce;" horiz-adv-x="226" 
d="M76 0v739h74v-739h-74zM-44 817l131 113h57l130 -113h-81l-78 65l-78 -65h-81z" />
    <glyph glyph-name="otilde" unicode="&#xcf;" horiz-adv-x="226" 
d="M76 0v739h74v-739h-74zM-9 894h74v-85h-74v85zM155 894h74v-85h-74v85z" />
    <glyph glyph-name="odieresis" unicode="&#xd0;" horiz-adv-x="790" 
d="M196 67h95q91 0 139 10q72 14 128 58q114 90 114 236q0 144 -115 234q-55 43 -127 57q-48 10 -139 10h-95v-245h130v-67h-130v-293zM326 0h-204v360h-96v67h96v312h199q184 0 290 -86q63 -51 99 -126.5t36 -155.5q0 -164 -121 -275q-61 -56 -140 -78q-63 -18 -159 -18z
" />
    <glyph glyph-name="divide" unicode="&#xd1;" horiz-adv-x="740" 
d="M76 0v739h100l414 -613v613h74v-739h-74l-440 650v-650h-74zM471 874l23 -40q-35 -35 -72 -35q-25 0 -63 19q-30 15 -45 15q-27 0 -48 -25l-26 44q34 37 78 37q24 0 57 -18t49 -18q17 0 47 21z" />
    <glyph glyph-name="oslash" unicode="&#xd2;" horiz-adv-x="869" 
d="M434 751q158 0 274.5 -111t116.5 -268q0 -161 -115 -273t-276 -112q-157 0 -273.5 111t-116.5 268q0 161 114.5 273t275.5 112zM435 58q131 0 223.5 91.5t92.5 222.5q0 127 -94 217.5t-222 90.5q-132 0 -224.5 -91.5t-92.5 -222.5q0 -127 95 -217.5t222 -90.5zM359 950
l178 -97l-29 -52l-177 95z" />
    <glyph glyph-name="ugrave" unicode="&#xd3;" horiz-adv-x="869" 
d="M434 751q158 0 274.5 -111t116.5 -268q0 -161 -115 -273t-276 -112q-157 0 -273.5 111t-116.5 268q0 161 114.5 273t275.5 112zM435 58q131 0 223.5 91.5t92.5 222.5q0 127 -94 217.5t-222 90.5q-132 0 -224.5 -91.5t-92.5 -222.5q0 -127 95 -217.5t222 -90.5zM358 851
l172 104l31 -52l-173 -102z" />
    <glyph glyph-name="uacute" unicode="&#xd4;" horiz-adv-x="869" 
d="M434 751q158 0 274.5 -111t116.5 -268q0 -161 -115 -273t-276 -112q-157 0 -273.5 111t-116.5 268q0 161 114.5 273t275.5 112zM435 58q131 0 223.5 91.5t92.5 222.5q0 127 -94 217.5t-222 90.5q-132 0 -224.5 -91.5t-92.5 -222.5q0 -127 95 -217.5t222 -90.5zM270 783
l131 113h57l130 -113h-81l-78 65l-78 -65h-81z" />
    <glyph glyph-name="ucircumflex" unicode="&#xd5;" horiz-adv-x="869" 
d="M434 751q158 0 274.5 -111t116.5 -268q0 -161 -115 -273t-276 -112q-157 0 -273.5 111t-116.5 268q0 161 114.5 273t275.5 112zM435 58q131 0 223.5 91.5t92.5 222.5q0 127 -94 217.5t-222 90.5q-132 0 -224.5 -91.5t-92.5 -222.5q0 -127 95 -217.5t222 -90.5zM538 876
l23 -40q-35 -35 -72 -35q-25 0 -63 19q-30 15 -45 15q-27 0 -48 -25l-26 44q34 37 78 37q24 0 57 -18t49 -18q17 0 47 21z" />
    <glyph glyph-name="udieresis" unicode="&#xd6;" horiz-adv-x="869" 
d="M434 751q158 0 274.5 -111t116.5 -268q0 -161 -115 -273t-276 -112q-157 0 -273.5 111t-116.5 268q0 161 114.5 273t275.5 112zM435 58q131 0 223.5 91.5t92.5 222.5q0 127 -94 217.5t-222 90.5q-132 0 -224.5 -91.5t-92.5 -222.5q0 -127 95 -217.5t222 -90.5zM310 873
h74v-85h-74v85zM474 873h74v-85h-74v85z" />
    <glyph glyph-name="yacute" unicode="&#xd7;" horiz-adv-x="606" 
d="M249 303l-198 198l54 54l198 -198l198 198l54 -54l-198 -198l198 -198l-54 -54l-198 198l-198 -198l-54 54z" />
    <glyph glyph-name="thorn" unicode="&#xd8;" horiz-adv-x="868" 
d="M727 821l54 -43l-91 -121q134 -117 134 -292q0 -158 -117 -268t-275 -110q-106 0 -202 58l-95 -128l-55 41l95 127q-131 115 -131 281q0 157 110 269q114 116 274 116q118 0 205 -55zM645 599l-373 -497q73 -44 161 -44q127 0 222 90.5t95 216.5q0 137 -105 234zM218 143
l372 496q-63 41 -156 41q-133 0 -224.5 -93.5t-91.5 -226.5q0 -120 100 -217z" />
    <glyph glyph-name="ydieresis" unicode="&#xd9;" horiz-adv-x="655" 
d="M76 739h74v-449q0 -101 34 -155q49 -77 144 -77q87 0 136 67q41 56 41 165v449h74v-449q0 -137 -55 -209q-72 -94 -196 -94q-121 0 -193 88q-59 72 -59 215v449zM252 938l178 -97l-29 -52l-177 95z" />
    <glyph glyph-name="dotlessi" unicode="&#xda;" horiz-adv-x="655" 
d="M76 739h74v-449q0 -101 34 -155q49 -77 144 -77q87 0 136 67q41 56 41 165v449h74v-449q0 -137 -55 -209q-72 -94 -196 -94q-121 0 -193 88q-59 72 -59 215v449zM281 849l172 104l31 -52l-173 -102z" />
    <glyph glyph-name="Lslash" unicode="&#xdb;" horiz-adv-x="655" 
d="M76 739h74v-449q0 -101 34 -155q49 -77 144 -77q87 0 136 67q41 56 41 165v449h74v-449q0 -137 -55 -209q-72 -94 -196 -94q-121 0 -193 88q-59 72 -59 215v449zM175 797l131 113h57l130 -113h-81l-78 65l-78 -65h-81z" />
    <glyph glyph-name="lslash" unicode="&#xdc;" horiz-adv-x="655" 
d="M76 739h74v-449q0 -101 34 -155q49 -77 144 -77q87 0 136 67q41 56 41 165v449h74v-449q0 -137 -55 -209q-72 -94 -196 -94q-121 0 -193 88q-59 72 -59 215v449zM210 879h74v-85h-74v85zM374 879h74v-85h-74v85z" />
    <glyph glyph-name="OE" unicode="&#xdd;" horiz-adv-x="592" 
d="M259 0v247l-257 492h81l213 -415l213 415h81l-257 -492v-247h-74zM225 844l172 104l31 -52l-173 -102z" />
    <glyph glyph-name="oe" unicode="&#xde;" horiz-adv-x="592" 
d="M150 523v-307h127q101 0 149 30q65 40 65 123q0 99 -92 138q-32 13 -76 16h-78h-95zM289 149h-139v-149h-74v739h74v-149h120q134 0 198 -40q97 -61 97 -182q0 -109 -84 -171q-65 -48 -192 -48z" />
    <glyph glyph-name="Scaron" unicode="&#xdf;" horiz-adv-x="554" 
d="M59 0v468q0 130 34 186q27 45 74.5 71t100.5 26q84 0 144 -61.5t60 -145.5q0 -110 -84 -155q136 -47 136 -188q0 -90 -57 -148q-64 -66 -150 -66q-60 0 -112 33q-55 34 -74 89h-2v-109h-70zM133 203h49q-2 -55 37 -100t93 -45q59 0 98.5 41t39.5 101q0 43 -23.5 77
t-62.5 50q-34 14 -134 14h-7v67h12q66 0 107 28q56 38 56 110q0 55 -38 94.5t-92 39.5q-86 0 -119 -78q-16 -38 -16 -134v-265z" />
    <glyph glyph-name="scaron" unicode="&#xe0;" horiz-adv-x="683" 
d="M620 547v-547h-71v103h-2q-29 -56 -88 -87q-55 -29 -122 -29q-139 0 -241 116q-19 21 -34 64q-20 54 -20 110q0 110 79 192q87 90 214 90q68 0 124 -29q60 -31 88 -87h2v104h71zM335 488q-90 0 -154.5 -63.5t-64.5 -153.5q0 -89 66 -151t155 -62q86 0 149 63.5t63 148.5
q0 91 -61.5 154.5t-152.5 63.5zM296 763l178 -97l-29 -52l-177 95z" />
    <glyph glyph-name="Ydieresis" unicode="&#xe1;" horiz-adv-x="683" 
d="M620 547v-547h-71v103h-2q-29 -56 -88 -87q-55 -29 -122 -29q-139 0 -241 116q-19 21 -34 64q-20 54 -20 110q0 110 79 192q87 90 214 90q68 0 124 -29q60 -31 88 -87h2v104h71zM335 488q-90 0 -154.5 -63.5t-64.5 -153.5q0 -89 66 -151t155 -62q86 0 149 63.5t63 148.5
q0 91 -61.5 154.5t-152.5 63.5zM305 664l172 104l31 -52l-173 -102z" />
    <glyph glyph-name="Zcaron" unicode="&#xe2;" horiz-adv-x="683" 
d="M620 547v-547h-71v103h-2q-29 -56 -88 -87q-55 -29 -122 -29q-139 0 -241 116q-19 21 -34 64q-20 54 -20 110q0 110 79 192q87 90 214 90q68 0 124 -29q60 -31 88 -87h2v104h71zM335 488q-90 0 -154.5 -63.5t-64.5 -153.5q0 -89 66 -151t155 -62q86 0 149 63.5t63 148.5
q0 91 -61.5 154.5t-152.5 63.5zM190 608l131 113h57l130 -113h-81l-78 65l-78 -65h-81z" />
    <glyph glyph-name="zcaron" unicode="&#xe3;" horiz-adv-x="683" 
d="M620 547v-547h-71v103h-2q-29 -56 -88 -87q-55 -29 -122 -29q-139 0 -241 116q-19 21 -34 64q-20 54 -20 110q0 110 79 192q87 90 214 90q68 0 124 -29q60 -31 88 -87h2v104h71zM335 488q-90 0 -154.5 -63.5t-64.5 -153.5q0 -89 66 -151t155 -62q86 0 149 63.5t63 148.5
q0 91 -61.5 154.5t-152.5 63.5zM470 689l23 -40q-35 -35 -72 -35q-25 0 -63 19q-30 15 -45 15q-27 0 -48 -25l-26 44q34 37 78 37q24 0 57 -18t49 -18q17 0 47 21z" />
    <glyph glyph-name="florin" unicode="&#xe4;" horiz-adv-x="683" 
d="M620 547v-547h-71v103h-2q-29 -56 -88 -87q-55 -29 -122 -29q-139 0 -241 116q-19 21 -34 64q-20 54 -20 110q0 110 79 192q87 90 214 90q68 0 124 -29q60 -31 88 -87h2v104h71zM335 488q-90 0 -154.5 -63.5t-64.5 -153.5q0 -89 66 -151t155 -62q86 0 149 63.5t63 148.5
q0 91 -61.5 154.5t-152.5 63.5zM245 693h74v-85h-74v85zM409 693h74v-85h-74v85z" />
    <glyph glyph-name="circumflex" unicode="&#xe5;" horiz-adv-x="683" 
d="M620 547v-547h-71v103h-2q-29 -56 -88 -87q-55 -29 -122 -29q-139 0 -241 116q-19 21 -34 64q-20 54 -20 110q0 110 79 192q87 90 214 90q68 0 124 -29q60 -31 88 -87h2v104h71zM335 488q-90 0 -154.5 -63.5t-64.5 -153.5q0 -89 66 -151t155 -62q86 0 149 63.5t63 148.5
q0 91 -61.5 154.5t-152.5 63.5zM360 773q34 0 57.5 -23.5t23.5 -57.5t-23.5 -57.5t-57.5 -23.5t-57.5 23.5t-23.5 57.5t23.5 57.5t57.5 23.5zM360 740v1q-20 0 -34.5 -14t-14.5 -34t14 -34.5t34 -14.5t34.5 14t14.5 34t-14 34t-34 14z" />
    <glyph glyph-name="caron" unicode="&#xe6;" horiz-adv-x="1157" 
d="M1118 246h-493q4 -76 67 -132t140 -56q60 0 114.5 33t76.5 87h77q-26 -83 -102 -137t-165 -54q-127 0 -212 100v-100h-70v100q-86 -100 -213 -100q-124 0 -205 77q-91 86 -91 208q0 120 89 207q82 80 209 80q63 0 119.5 -27.5t91.5 -76.5v104h70v-104q31 47 93 76
q59 28 118 28q64 0 124 -29t100 -79q64 -79 62 -205zM627 313h413q-8 72 -69 123.5t-135 51.5q-93 0 -156 -66q-46 -48 -53 -109zM332 58q92 0 155.5 61.5t63.5 153.5q0 93 -63 154t-157 61q-92 0 -153.5 -64t-61.5 -156q0 -87 64 -148.5t152 -61.5z" />
    <glyph glyph-name="macron" unicode="&#xe7;" horiz-adv-x="647" 
d="M525 160h82q-37 -81 -107.5 -127t-158.5 -46q-124 0 -211.5 82t-87.5 205q0 120 88 202.5t208 82.5q89 0 164 -48.5t106 -129.5h-83q-29 49 -79.5 78t-106.5 29q-92 0 -157.5 -61t-65.5 -152t63 -154t154 -63q119 0 192 102zM317 -10l-22 -50q11 5 26 5q32 0 51 -19.5
t19 -51.5q0 -34 -22 -58t-55 -24q-65 0 -79 64l39 4q1 -12 13.5 -20.5t26.5 -8.5q38 0 38 41q0 17 -12 29t-30 12q-22 0 -35 -19l-27 15l36 81h33z" />
    <glyph glyph-name="breve" unicode="&#xe8;" horiz-adv-x="650" 
d="M611 247h-495q3 -77 66 -133t140 -56q62 0 117 32.5t79 87.5h77q-29 -83 -104 -137t-162 -54q-120 0 -203.5 83t-83.5 203q0 119 83 202.5t202 83.5q134 0 220 -106q61 -74 64 -206zM116 314h421q-14 73 -74 123.5t-135 50.5q-78 0 -138.5 -49.5t-73.5 -124.5zM251 758
l178 -97l-29 -52l-177 95z" />
    <glyph glyph-name="dotaccent" unicode="&#xe9;" horiz-adv-x="650" 
d="M611 247h-495q3 -77 66 -133t140 -56q62 0 117 32.5t79 87.5h77q-29 -83 -104 -137t-162 -54q-120 0 -203.5 83t-83.5 203q0 119 83 202.5t202 83.5q134 0 220 -106q61 -74 64 -206zM116 314h421q-14 73 -74 123.5t-135 50.5q-78 0 -138.5 -49.5t-73.5 -124.5zM245 659
l172 104l31 -52l-173 -102z" />
    <glyph glyph-name="ring" unicode="&#xea;" horiz-adv-x="650" 
d="M611 247h-495q3 -77 66 -133t140 -56q62 0 117 32.5t79 87.5h77q-29 -83 -104 -137t-162 -54q-120 0 -203.5 83t-83.5 203q0 119 83 202.5t202 83.5q134 0 220 -106q61 -74 64 -206zM116 314h421q-14 73 -74 123.5t-135 50.5q-78 0 -138.5 -49.5t-73.5 -124.5zM167 604
l131 113h57l130 -113h-81l-78 65l-78 -65h-81z" />
    <glyph glyph-name="ogonek" unicode="&#xeb;" horiz-adv-x="650" 
d="M611 247h-495q3 -77 66 -133t140 -56q62 0 117 32.5t79 87.5h77q-29 -83 -104 -137t-162 -54q-120 0 -203.5 83t-83.5 203q0 119 83 202.5t202 83.5q134 0 220 -106q61 -74 64 -206zM116 314h421q-14 73 -74 123.5t-135 50.5q-78 0 -138.5 -49.5t-73.5 -124.5zM202 694
h74v-85h-74v85zM366 694h74v-85h-74v85z" />
    <glyph glyph-name="tilde" unicode="&#xec;" horiz-adv-x="200" 
d="M63 0v547h74v-547h-74zM15 751l178 -97l-29 -52l-177 95z" />
    <glyph glyph-name="hungarumlaut" unicode="&#xed;" horiz-adv-x="200" 
d="M63 0v547h74v-547h-74zM4 672l172 104l31 -52l-173 -102z" />
    <glyph glyph-name="mu" unicode="&#xee;" horiz-adv-x="200" 
d="M63 0v547h74v-547h-74zM-67 620l131 113h57l130 -113h-81l-78 65l-78 -65h-81z" />
    <glyph glyph-name="endash" unicode="&#xef;" horiz-adv-x="200" 
d="M63 0v547h74v-547h-74zM-22 707h74v-85h-74v85zM142 707h74v-85h-74v85z" />
    <glyph glyph-name="emdash" unicode="&#xf0;" horiz-adv-x="655" 
d="M329 488q-90 0 -151.5 -64t-61.5 -154q0 -88 62.5 -150t150.5 -62q90 0 150 64t60 155q0 87 -61.5 149t-148.5 62zM329 -13q-117 0 -202 83t-85 200q0 122 84 205.5t203 83.5q100 0 157 -57l2 2q-40 66 -158 152l-109 -38l-62 26l115 40q-41 22 -139 54l2 2l123 -1
q45 -10 75 -30l143 50l56 -28l-143 -50q95 -54 156 -156q66 -112 66 -248q0 -124 -82.5 -207t-201.5 -83z" />
    <glyph glyph-name="quoteleft" unicode="&#xf1;" horiz-adv-x="610" 
d="M63 0v547h70v-79h2q62 91 168 91q120 0 194 -91q50 -62 50 -180v-288h-74v288q0 85 -32 130q-50 70 -141 70q-85 0 -134 -67q-29 -40 -29 -133v-288h-74zM408 687l23 -40q-35 -35 -72 -35q-25 0 -63 19q-30 15 -45 15q-27 0 -48 -25l-26 44q34 37 78 37q24 0 57 -18
t49 -18q17 0 47 21z" />
    <glyph glyph-name="quoteright" unicode="&#xf2;" horiz-adv-x="655" 
d="M329 559q114 0 199 -84t85 -198q0 -118 -83 -204t-201 -86q-117 0 -202 83t-85 200q0 120 83.5 204.5t203.5 84.5zM329 488q-90 0 -151.5 -64t-61.5 -154q0 -88 62.5 -150t150.5 -62q90 0 150 64t60 155q0 90 -63.5 150.5t-146.5 60.5zM252 758l178 -97l-29 -52l-177 95z
" />
    <glyph glyph-name="quotesinglbase" unicode="&#xf3;" horiz-adv-x="655" 
d="M329 559q114 0 199 -84t85 -198q0 -118 -83 -204t-201 -86q-117 0 -202 83t-85 200q0 120 83.5 204.5t203.5 84.5zM329 488q-90 0 -151.5 -64t-61.5 -154q0 -88 62.5 -150t150.5 -62q90 0 150 64t60 155q0 90 -63.5 150.5t-146.5 60.5zM246 659l172 104l31 -52l-173 -102
z" />
    <glyph glyph-name="quotedblleft" unicode="&#xf4;" horiz-adv-x="655" 
d="M329 559q114 0 199 -84t85 -198q0 -118 -83 -204t-201 -86q-117 0 -202 83t-85 200q0 120 83.5 204.5t203.5 84.5zM329 488q-90 0 -151.5 -64t-61.5 -154q0 -88 62.5 -150t150.5 -62q90 0 150 64t60 155q0 90 -63.5 150.5t-146.5 60.5zM169 603l131 113h57l130 -113h-81
l-78 65l-78 -65h-81z" />
    <glyph glyph-name="quotedblright" unicode="&#xf5;" horiz-adv-x="655" 
d="M329 559q114 0 199 -84t85 -198q0 -118 -83 -204t-201 -86q-117 0 -202 83t-85 200q0 120 83.5 204.5t203.5 84.5zM329 488q-90 0 -151.5 -64t-61.5 -154q0 -88 62.5 -150t150.5 -62q90 0 150 64t60 155q0 90 -63.5 150.5t-146.5 60.5zM431 684l23 -40q-35 -35 -72 -35
q-25 0 -63 19q-30 15 -45 15q-27 0 -48 -25l-26 44q34 37 78 37q24 0 57 -18t49 -18q17 0 47 21z" />
    <glyph glyph-name="quotedblbase" unicode="&#xf6;" horiz-adv-x="655" 
d="M329 559q114 0 199 -84t85 -198q0 -118 -83 -204t-201 -86q-117 0 -202 83t-85 200q0 120 83.5 204.5t203.5 84.5zM329 488q-90 0 -151.5 -64t-61.5 -154q0 -88 62.5 -150t150.5 -62q90 0 150 64t60 155q0 90 -63.5 150.5t-146.5 60.5zM209 688h74v-85h-74v85zM373 688
h74v-85h-74v85z" />
    <glyph glyph-name="dagger" unicode="&#xf7;" horiz-adv-x="606" 
d="M51 263v76h504v-76h-504zM265 477v76h76v-76h-76zM265 49v76h76v-76h-76z" />
    <glyph glyph-name="daggerdbl" unicode="&#xf8;" horiz-adv-x="653" 
d="M184 27l-55 -72l-52 40l55 71q-40 34 -66 95q-24 57 -24 112q0 116 84 201t200 85q66 0 140 -38l8 -3l57 76l54 -41l-59 -76q85 -87 85 -204t-85 -201.5t-202 -84.5q-73 0 -140 40zM174 124l257 335q-48 29 -100 29q-88 0 -151.5 -61t-63.5 -149q0 -97 58 -154zM484 418
l-257 -335q46 -25 103 -25q89 0 153 70q54 59 54 147q0 84 -53 143z" />
    <glyph glyph-name="bullet" unicode="&#xf9;" horiz-adv-x="608" 
d="M545 547v-547h-70v85h-2q-48 -98 -179 -98q-106 0 -192 98q-39 44 -39 173v289h74v-289q0 -80 24 -121q46 -79 143 -79q85 0 134 67q33 45 33 133v289h74zM229 746l178 -97l-29 -52l-177 95z" />
    <glyph glyph-name="ellipsis" unicode="&#xfa;" horiz-adv-x="608" 
d="M545 547v-547h-70v85h-2q-48 -98 -179 -98q-106 0 -192 98q-39 44 -39 173v289h74v-289q0 -80 24 -121q46 -79 143 -79q85 0 134 67q33 45 33 133v289h74zM253 652l172 104l31 -52l-173 -102z" />
    <glyph glyph-name="perthousand" unicode="&#xfb;" horiz-adv-x="608" 
d="M545 547v-547h-70v85h-2q-48 -98 -179 -98q-106 0 -192 98q-39 44 -39 173v289h74v-289q0 -80 24 -121q46 -79 143 -79q85 0 134 67q33 45 33 133v289h74zM155 608l131 113h57l130 -113h-81l-78 65l-78 -65h-81z" />
    <glyph glyph-name="guilsinglleft" unicode="&#xfc;" horiz-adv-x="608" 
d="M545 547v-547h-70v85h-2q-48 -98 -179 -98q-106 0 -192 98q-39 44 -39 173v289h74v-289q0 -80 24 -121q46 -79 143 -79q85 0 134 67q33 45 33 133v289h74zM185 685h74v-85h-74v85zM349 685h74v-85h-74v85z" />
    <glyph glyph-name="guilsinglright" unicode="&#xfd;" horiz-adv-x="536" 
d="M448 547h79l-316 -739h-78l86 209l-210 530h79l175 -436zM222 652l172 104l31 -52l-173 -102z" />
    <glyph glyph-name="fraction" unicode="&#xfe;" horiz-adv-x="682" 
d="M63 739h74v-282h2q26 47 93 76q59 26 119 26q120 0 224 -106q26 -27 44 -73q21 -53 21 -109q0 -120 -87.5 -202t-208.5 -82q-65 0 -120 29q-61 32 -85 86h-2v-294h-74v931zM346 58q92 0 156 61t64 153q0 89 -63 152.5t-152 63.5q-91 0 -155 -60t-64 -150q0 -94 58 -153
q65 -67 156 -67z" />
    <glyph glyph-name="trademark" unicode="&#xff;" horiz-adv-x="536" 
d="M448 547h79l-316 -739h-78l86 209l-210 530h79l175 -436zM137 697h74v-85h-74v85zM301 697h74v-85h-74v85z" />
    <glyph glyph-name="minus" horiz-adv-x="300" 
d="M116 0v366l-80 -54v73l80 52v302h74v-255l80 53v-74l-80 -53v-410h-74z" />
    <glyph glyph-name="periodcentered" horiz-adv-x="277" 
d="M101 238v126h74v-126h-74z" />
    <glyph glyph-name="fi" horiz-adv-x="552" 
d="M74 661l170 124l37 -49l-173 -123zM271 661l171 124l37 -49l-173 -123z" />
    <glyph glyph-name="fl" horiz-adv-x="487" 
d="M98 0v480h-85v67h85q-4 90 51 142q52 50 144 50h14v-68l-14 1q-57 4 -89.5 -26t-32.5 -88l1 -11h136v-67h-136v-480h-74zM350 0v547h74v-547h-74zM350 613v126h74v-126h-74z" />
    <glyph glyph-name="uniF008" unicode="&#xf008;" horiz-adv-x="250" 
 />
    <glyph glyph-name="yhoahuyen" unicode="&#xf00d;" horiz-adv-x="1" 
d="M-173 749l178 -97l-29 -52l-177 95z" />
    <glyph glyph-name="yhoahoi" unicode="&#xf012;" horiz-adv-x="1" 
d="M-148 704l-45 27q11 40 41 61q36 20 72 16q46 -5 70.5 -30.5t24.5 -62.5q-3 -31 -42 -62q-42 -34 -46 -46h-47q0 29 44 60q34 24 34 45q2 19 -15 34t-38 14q-19 -1 -36 -17.5t-17 -38.5z" />
    <glyph glyph-name="yhoasac" unicode="&#xf01d;" horiz-adv-x="1" 
d="M5 670l23 -40q-35 -35 -72 -35q-25 0 -63 19q-30 15 -45 15q-27 0 -48 -25l-26 44q34 37 78 37q24 0 57 -18t49 -18q17 0 47 21z" />
    <glyph glyph-name="yhoanga" unicode="&#xf02a;" horiz-adv-x="1" 
d="M-140 -129v80h66v-80h-66z" />
    <glyph glyph-name="dhoa" horiz-adv-x="453" 
d="M74 716h58q19 -40 79 -40t79 40h56q-11 -45 -51 -69q-35 -22 -85 -22t-85 22q-40 24 -51 69z" />
    <glyph glyph-name="abhoasac" horiz-adv-x="502" 
d="M74 613l131 113h57l130 -113h-81l-78 65l-78 -65h-81z" />
    <glyph glyph-name="yhoanang" unicode="&#x111;" horiz-adv-x="685" 
d="M622 769v-83h64v-50h-64v-636h-70v100h-2q-78 -113 -219 -113q-122 0 -229 113q-22 19 -40 66q-20 53 -20 109q0 121 86.5 202.5t207.5 81.5q64 0 121.5 -28t88.5 -79h2v182h-250v50h250v85h74zM547 275q0 90 -64.5 151t-154.5 61q-88 0 -151.5 -62t-63.5 -150
q0 -90 63.5 -154t153.5 -64t153.5 64t63.5 154z" />
    <glyph glyph-name="yhoanang" unicode="&#x20ab;" horiz-adv-x="685" 
d="M622 769v-83h64v-50h-64v-636h-70v100h-2q-78 -113 -219 -113q-122 0 -229 113q-22 19 -40 66q-20 53 -20 109q0 121 86.5 202.5t207.5 81.5q64 0 121.5 -28t88.5 -79h2v182h-250v50h250v85h74zM547 275q0 90 -64.5 151t-154.5 61q-88 0 -151.5 -62t-63.5 -150
q0 -90 63.5 -154t153.5 -64t153.5 64t63.5 154z" />
    <glyph glyph-name="ahoasac" unicode="&#x110;" horiz-adv-x="790" 
d="M196 67h95q91 0 139 10q72 14 128 58q114 90 114 236q0 144 -115 234q-55 43 -127 57q-48 10 -139 10h-95v-245h130v-67h-130v-293zM326 0h-204v360h-96v67h96v312h199q184 0 290 -86q63 -51 99 -126.5t36 -155.5q0 -164 -121 -275q-61 -56 -140 -78q-63 -18 -159 -18z
" />
    <glyph glyph-name="ahoahuyen" unicode="&#x1a1;" horiz-adv-x="655" 
d="M329 559h1q80 0 144 -37q54 -31 84 -80q32 15 45 44q11 24 13 74h61q1 -153 -95 -156q31 -55 31 -127q0 -118 -83 -204t-201 -86q-117 0 -202 83t-85 200q0 120 83.5 204.5t203.5 84.5zM330 488q-90 0 -151.5 -64t-61.5 -154q0 -88 62.5 -150t150.5 -62q90 0 150 64
t60 155q0 90 -63.5 150.5t-146.5 60.5z" />
    <glyph glyph-name="ahoahoi" unicode="&#x1a0;" horiz-adv-x="869" 
d="M434 751v-1q114 0 204 -52q72 -42 110 -104q66 13 74 138h61q0 -180 -106 -180q47 -76 48 -180q1 -160 -114 -272.5t-277 -112.5q-157 0 -273.5 111t-116.5 268q0 161 114.5 273t275.5 112zM435 57q131 0 223.5 91.5t92.5 222.5q0 127 -94 217.5t-222 90.5
q-132 0 -224.5 -91.5t-92.5 -222.5q0 -127 95 -217.5t222 -90.5z" />
    <glyph glyph-name="ahoanga" unicode="&#x1b0;" horiz-adv-x="608" 
d="M545 547v-112q44 17 49 111h61q-7 -156 -110 -156v-390h-70v85h-2q-48 -98 -179 -98q-106 0 -192 98q-39 44 -39 173v289h74v-289q0 -80 24 -121q46 -79 143 -79q85 0 134 67q33 45 33 133v289h74z" />
    <glyph glyph-name="ahoanang" unicode="&#x1af;" horiz-adv-x="655" 
d="M76 739h74v-449q0 -101 34 -155q49 -77 144 -77q87 0 136 67q41 56 41 165v449h74v-126q46 35 50 126h61q-8 -172 -111 -172v-277q0 -137 -55 -209q-72 -94 -196 -94q-121 0 -193 88q-59 72 -59 215v449z" />
    <glyph glyph-name="ehoasac" unicode="&#x103;" horiz-adv-x="683" 
d="M620 547v-547h-71v103h-2q-29 -56 -88 -87q-55 -29 -122 -29q-139 0 -241 116q-19 21 -34 64q-20 54 -20 110q0 110 79 192q87 90 214 90q68 0 124 -29q60 -31 88 -87h2v104h71zM335 488q-90 0 -154.5 -63.5t-64.5 -153.5q0 -89 66 -151t155 -62q86 0 149 63.5t63 148.5
q0 91 -61.5 154.5t-152.5 63.5zM240 693h58q19 -40 79 -40t79 40h56q-11 -45 -51 -69q-35 -22 -85 -22t-85 22q-40 24 -51 69z" />
    <glyph glyph-name="ehoahuyen" unicode="&#x102;" horiz-adv-x="740" 
d="M11 0l319 739h82l317 -739h-80l-107 248h-344l-107 -248h-80zM227 315h286l-142 339zM238 875h58q19 -40 79 -40t79 40h56q-11 -45 -51 -69q-35 -22 -85 -22t-85 22q-40 24 -51 69z" />
    <glyph glyph-name="ehoahoi" horiz-adv-x="683" 
d="M620 547v-547h-71v103h-2q-29 -56 -88 -87q-55 -29 -122 -29q-139 0 -241 116q-19 21 -34 64q-20 54 -20 110q0 110 79 192q87 90 214 90q68 0 124 -29q60 -31 88 -87h2v104h71zM335 488q-90 0 -154.5 -63.5t-64.5 -153.5q0 -89 66 -151t155 -62q86 0 149 63.5t63 148.5
q0 91 -61.5 154.5t-152.5 63.5zM190 608l131 113h57l130 -113h-81l-78 65l-78 -65h-81z" />
    <glyph glyph-name="ehoanga" horiz-adv-x="740" 
d="M11 0l319 739h82l317 -739h-80l-107 248h-344l-107 -248h-80zM227 315h286l-142 339zM213 775l131 113h57l130 -113h-81l-78 65l-78 -65h-81z" />
    <glyph glyph-name="ehoanang" horiz-adv-x="650" 
d="M611 247h-495q3 -77 66 -133t140 -56q62 0 117 32.5t79 87.5h77q-29 -83 -104 -137t-162 -54q-120 0 -203.5 83t-83.5 203q0 119 83 202.5t202 83.5q134 0 220 -106q61 -74 64 -206zM116 314h421q-14 73 -74 123.5t-135 50.5q-78 0 -138.5 -49.5t-73.5 -124.5zM167 604
l131 113h57l130 -113h-81l-78 65l-78 -65h-81z" />
    <glyph glyph-name="ihoasac" horiz-adv-x="536" 
d="M76 0v739h404v-67h-330v-266h319v-67h-319v-272h330v-67h-404zM106 774l131 113h57l130 -113h-81l-78 65l-78 -65h-81z" />
    <glyph glyph-name="ihoahuyen" horiz-adv-x="655" 
d="M329 559q114 0 199 -84t85 -198q0 -118 -83 -204t-201 -86q-117 0 -202 83t-85 200q0 120 83.5 204.5t203.5 84.5zM329 488q-90 0 -151.5 -64t-61.5 -154q0 -88 62.5 -150t150.5 -62q90 0 150 64t60 155q0 90 -63.5 150.5t-146.5 60.5zM169 603l131 113h57l130 -113h-81
l-78 65l-78 -65h-81z" />
    <glyph glyph-name="ihoahoi" horiz-adv-x="869" 
d="M434 751q158 0 274.5 -111t116.5 -268q0 -161 -115 -273t-276 -112q-157 0 -273.5 111t-116.5 268q0 161 114.5 273t275.5 112zM435 58q131 0 223.5 91.5t92.5 222.5q0 127 -94 217.5t-222 90.5q-132 0 -224.5 -91.5t-92.5 -222.5q0 -127 95 -217.5t222 -90.5zM270 783
l131 113h57l130 -113h-81l-78 65l-78 -65h-81z" />
    <glyph glyph-name="ihoanga" horiz-adv-x="683" 
d="M620 547v-547h-71v103h-2q-29 -56 -88 -87q-55 -29 -122 -29q-139 0 -241 116q-19 21 -34 64q-20 54 -20 110q0 110 79 192q87 90 214 90q68 0 124 -29q60 -31 88 -87h2v104h71zM335 488q-90 0 -154.5 -63.5t-64.5 -153.5q0 -89 66 -151t155 -62q86 0 149 63.5t63 148.5
q0 91 -61.5 154.5t-152.5 63.5zM305 664l172 104l31 -52l-173 -102z" />
    <glyph glyph-name="ihoanang" horiz-adv-x="683" 
d="M620 547v-547h-71v103h-2q-29 -56 -88 -87q-55 -29 -122 -29q-139 0 -241 116q-19 21 -34 64q-20 54 -20 110q0 110 79 192q87 90 214 90q68 0 124 -29q60 -31 88 -87h2v104h71zM335 488q-90 0 -154.5 -63.5t-64.5 -153.5q0 -89 66 -151t155 -62q86 0 149 63.5t63 148.5
q0 91 -61.5 154.5t-152.5 63.5zM296 763l178 -97l-29 -52l-177 95z" />
    <glyph glyph-name="ohoasac" unicode="&#x1ea3;" horiz-adv-x="683" 
d="M620 547v-547h-71v103h-2q-29 -56 -88 -87q-55 -29 -122 -29q-139 0 -241 116q-19 21 -34 64q-20 54 -20 110q0 110 79 192q87 90 214 90q68 0 124 -29q60 -31 88 -87h2v104h71zM335 488q-90 0 -154.5 -63.5t-64.5 -153.5q0 -89 66 -151t155 -62q86 0 149 63.5t63 148.5
q0 91 -61.5 154.5t-152.5 63.5zM302 721l-45 27q11 40 41 61q36 20 72 16q46 -5 70.5 -30.5t24.5 -62.5q-3 -31 -42 -62q-42 -34 -46 -46h-47q0 29 44 60q34 24 34 45q2 19 -15 34t-38 14q-19 -1 -36 -17.5t-17 -38.5z" />
    <glyph glyph-name="ohoahuyen" horiz-adv-x="683" 
d="M620 547v-547h-71v103h-2q-29 -56 -88 -87q-55 -29 -122 -29q-139 0 -241 116q-19 21 -34 64q-20 54 -20 110q0 110 79 192q87 90 214 90q68 0 124 -29q60 -31 88 -87h2v104h71zM335 488q-90 0 -154.5 -63.5t-64.5 -153.5q0 -89 66 -151t155 -62q86 0 149 63.5t63 148.5
q0 91 -61.5 154.5t-152.5 63.5zM470 689l23 -40q-35 -35 -72 -35q-25 0 -63 19q-30 15 -45 15q-27 0 -48 -25l-26 44q34 37 78 37q24 0 57 -18t49 -18q17 0 47 21z" />
    <glyph glyph-name="ohoahoi" unicode="&#x1ea1;" horiz-adv-x="683" 
d="M620 547v-547h-71v103h-2q-29 -56 -88 -87q-55 -29 -122 -29q-139 0 -241 116q-19 21 -34 64q-20 54 -20 110q0 110 79 192q87 90 214 90q68 0 124 -29q60 -31 88 -87h2v104h71zM335 488q-90 0 -154.5 -63.5t-64.5 -153.5q0 -89 66 -151t155 -62q86 0 149 63.5t63 148.5
q0 91 -61.5 154.5t-152.5 63.5zM303 -156v80h66v-80h-66z" />
    <glyph glyph-name="ohoanga" horiz-adv-x="740" 
d="M11 0l319 739h82l317 -739h-80l-107 248h-344l-107 -248h-80zM227 315h286l-142 339zM289 839l172 104l31 -52l-173 -102z" />
    <glyph glyph-name="ohoanang" horiz-adv-x="740" 
d="M11 0l319 739h82l317 -739h-80l-107 248h-344l-107 -248h-80zM227 315h286l-142 339zM295 938l178 -97l-29 -52l-177 95z" />
    <glyph glyph-name="uhoasac" unicode="&#x1ea2;" horiz-adv-x="740" 
d="M11 0l319 739h82l317 -739h-80l-107 248h-344l-107 -248h-80zM227 315h286l-142 339zM311 886l-45 27q11 40 41 61q36 20 72 16q46 -5 70.5 -30.5t24.5 -62.5q-3 -31 -42 -62q-42 -34 -46 -46h-47q0 29 44 60q34 24 34 45q2 19 -15 34t-38 14q-19 -1 -36 -17.5t-17 -38.5
z" />
    <glyph glyph-name="uhoahuyen" horiz-adv-x="740" 
d="M11 0l319 739h82l317 -739h-80l-107 248h-344l-107 -248h-80zM227 315h286l-142 339zM474 864l23 -40q-35 -35 -72 -35q-25 0 -63 19q-30 15 -45 15q-27 0 -48 -25l-26 44q34 37 78 37q24 0 57 -18t49 -18q17 0 47 21z" />
    <glyph glyph-name="uhoahoi" unicode="&#x1ea0;" horiz-adv-x="740" 
d="M11 0l319 739h82l317 -739h-80l-107 248h-344l-107 -248h-80zM227 315h286l-142 339zM337 -148v80h66v-80h-66z" />
    <glyph glyph-name="uhoanga" horiz-adv-x="650" 
d="M611 247h-495q3 -77 66 -133t140 -56q62 0 117 32.5t79 87.5h77q-29 -83 -104 -137t-162 -54q-120 0 -203.5 83t-83.5 203q0 119 83 202.5t202 83.5q134 0 220 -106q61 -74 64 -206zM116 314h421q-14 73 -74 123.5t-135 50.5q-78 0 -138.5 -49.5t-73.5 -124.5zM245 659
l172 104l31 -52l-173 -102z" />
    <glyph glyph-name="uhoanang" horiz-adv-x="650" 
d="M611 247h-495q3 -77 66 -133t140 -56q62 0 117 32.5t79 87.5h77q-29 -83 -104 -137t-162 -54q-120 0 -203.5 83t-83.5 203q0 119 83 202.5t202 83.5q134 0 220 -106q61 -74 64 -206zM116 314h421q-14 73 -74 123.5t-135 50.5q-78 0 -138.5 -49.5t-73.5 -124.5zM251 758
l178 -97l-29 -52l-177 95z" />
    <glyph glyph-name="aahoa" unicode="&#x1ebb;" horiz-adv-x="650" 
d="M611 247h-495q3 -77 66 -133t140 -56q62 0 117 32.5t79 87.5h77q-29 -83 -104 -137t-162 -54q-120 0 -203.5 83t-83.5 203q0 119 83 202.5t202 83.5q134 0 220 -106q61 -74 64 -206zM116 314h421q-14 73 -74 123.5t-135 50.5q-78 0 -138.5 -49.5t-73.5 -124.5zM267 706
l-45 27q11 40 41 61q36 20 72 16q46 -5 70.5 -30.5t24.5 -62.5q-3 -31 -42 -62q-42 -34 -46 -46h-47q0 29 44 60q34 24 34 45q2 19 -15 34t-38 14q-19 -1 -36 -17.5t-17 -38.5z" />
    <glyph glyph-name="aahoasac" unicode="&#x1ebd;" horiz-adv-x="650" 
d="M611 247h-495q3 -77 66 -133t140 -56q62 0 117 32.5t79 87.5h77q-29 -83 -104 -137t-162 -54q-120 0 -203.5 83t-83.5 203q0 119 83 202.5t202 83.5q134 0 220 -106q61 -74 64 -206zM116 314h421q-14 73 -74 123.5t-135 50.5q-78 0 -138.5 -49.5t-73.5 -124.5zM430 684
l23 -40q-35 -35 -72 -35q-25 0 -63 19q-30 15 -45 15q-27 0 -48 -25l-26 44q34 37 78 37q24 0 57 -18t49 -18q17 0 47 21z" />
    <glyph glyph-name="aahoahuyen" unicode="&#x1eb9;" horiz-adv-x="650" 
d="M611 247h-495q3 -77 66 -133t140 -56q62 0 117 32.5t79 87.5h77q-29 -83 -104 -137t-162 -54q-120 0 -203.5 83t-83.5 203q0 119 83 202.5t202 83.5q134 0 220 -106q61 -74 64 -206zM116 314h421q-14 73 -74 123.5t-135 50.5q-78 0 -138.5 -49.5t-73.5 -124.5zM288 -156
v80h66v-80h-66z" />
    <glyph glyph-name="aahoahoi" horiz-adv-x="536" 
d="M76 0v739h404v-67h-330v-266h319v-67h-319v-272h330v-67h-404zM212 839l172 104l31 -52l-173 -102z" />
    <glyph glyph-name="aahoanga" horiz-adv-x="536" 
d="M76 0v739h404v-67h-330v-266h319v-67h-319v-272h330v-67h-404zM203 938l178 -97l-29 -52l-177 95z" />
    <glyph glyph-name="aahoanang" unicode="&#x1eba;" horiz-adv-x="536" 
d="M76 0v739h404v-67h-330v-266h319v-67h-319v-272h330v-67h-404zM219 886l-45 27q11 40 41 61q36 20 72 16q46 -5 70.5 -30.5t24.5 -62.5q-3 -31 -42 -62q-42 -34 -46 -46h-47q0 29 44 60q34 24 34 45q2 19 -15 34t-38 14q-19 -1 -36 -17.5t-17 -38.5z" />
    <glyph glyph-name="abhoa" unicode="&#x1ebc;" horiz-adv-x="536" 
d="M76 0v739h404v-67h-330v-266h319v-67h-319v-272h330v-67h-404zM382 864l23 -40q-35 -35 -72 -35q-25 0 -63 19q-30 15 -45 15q-27 0 -48 -25l-26 44q34 37 78 37q24 0 57 -18t49 -18q17 0 47 21z" />
    <glyph glyph-name="abhoahuyen" unicode="&#x1eb8;" horiz-adv-x="536" 
d="M76 0v739h404v-67h-330v-266h319v-67h-319v-272h330v-67h-404zM245 -148v80h66v-80h-66z" />
    <glyph glyph-name="abhoahoi" horiz-adv-x="655" 
d="M329 559q114 0 199 -84t85 -198q0 -118 -83 -204t-201 -86q-117 0 -202 83t-85 200q0 120 83.5 204.5t203.5 84.5zM329 488q-90 0 -151.5 -64t-61.5 -154q0 -88 62.5 -150t150.5 -62q90 0 150 64t60 155q0 90 -63.5 150.5t-146.5 60.5zM246 659l172 104l31 -52l-173 -102
z" />
    <glyph glyph-name="abhoanga" horiz-adv-x="655" 
d="M329 559q114 0 199 -84t85 -198q0 -118 -83 -204t-201 -86q-117 0 -202 83t-85 200q0 120 83.5 204.5t203.5 84.5zM329 488q-90 0 -151.5 -64t-61.5 -154q0 -88 62.5 -150t150.5 -62q90 0 150 64t60 155q0 90 -63.5 150.5t-146.5 60.5zM252 758l178 -97l-29 -52l-177 95z
" />
    <glyph glyph-name="abhoanang" unicode="&#x1ecf;" horiz-adv-x="655" 
d="M329 559q114 0 199 -84t85 -198q0 -118 -83 -204t-201 -86q-117 0 -202 83t-85 200q0 120 83.5 204.5t203.5 84.5zM329 488q-90 0 -151.5 -64t-61.5 -154q0 -88 62.5 -150t150.5 -62q90 0 150 64t60 155q0 90 -63.5 150.5t-146.5 60.5zM268 706l-45 27q11 40 41 61
q36 20 72 16q46 -5 70.5 -30.5t24.5 -62.5q-3 -31 -42 -62q-42 -34 -46 -46h-47q0 29 44 60q34 24 34 45q2 19 -15 34t-38 14q-19 -1 -36 -17.5t-17 -38.5z" />
    <glyph glyph-name="ebhoa" horiz-adv-x="655" 
d="M329 559q114 0 199 -84t85 -198q0 -118 -83 -204t-201 -86q-117 0 -202 83t-85 200q0 120 83.5 204.5t203.5 84.5zM329 488q-90 0 -151.5 -64t-61.5 -154q0 -88 62.5 -150t150.5 -62q90 0 150 64t60 155q0 90 -63.5 150.5t-146.5 60.5zM431 684l23 -40q-35 -35 -72 -35
q-25 0 -63 19q-30 15 -45 15q-27 0 -48 -25l-26 44q34 37 78 37q24 0 57 -18t49 -18q17 0 47 21z" />
    <glyph glyph-name="ebhoasac" unicode="&#x1ecd;" horiz-adv-x="655" 
d="M329 559q114 0 199 -84t85 -198q0 -118 -83 -204t-201 -86q-117 0 -202 83t-85 200q0 120 83.5 204.5t203.5 84.5zM329 488q-90 0 -151.5 -64t-61.5 -154q0 -88 62.5 -150t150.5 -62q90 0 150 64t60 155q0 90 -63.5 150.5t-146.5 60.5zM294 -156v80h66v-80h-66z" />
    <glyph glyph-name="ebhoahuyen" horiz-adv-x="869" 
d="M434 751q158 0 274.5 -111t116.5 -268q0 -161 -115 -273t-276 -112q-157 0 -273.5 111t-116.5 268q0 161 114.5 273t275.5 112zM435 58q131 0 223.5 91.5t92.5 222.5q0 127 -94 217.5t-222 90.5q-132 0 -224.5 -91.5t-92.5 -222.5q0 -127 95 -217.5t222 -90.5zM358 851
l172 104l31 -52l-173 -102z" />
    <glyph glyph-name="ebhoahoi" horiz-adv-x="869" 
d="M434 751q158 0 274.5 -111t116.5 -268q0 -161 -115 -273t-276 -112q-157 0 -273.5 111t-116.5 268q0 161 114.5 273t275.5 112zM435 58q131 0 223.5 91.5t92.5 222.5q0 127 -94 217.5t-222 90.5q-132 0 -224.5 -91.5t-92.5 -222.5q0 -127 95 -217.5t222 -90.5zM359 950
l178 -97l-29 -52l-177 95z" />
    <glyph glyph-name="ebhoanga" unicode="&#x1ece;" horiz-adv-x="869" 
d="M434 751q158 0 274.5 -111t116.5 -268q0 -161 -115 -273t-276 -112q-157 0 -273.5 111t-116.5 268q0 161 114.5 273t275.5 112zM435 58q131 0 223.5 91.5t92.5 222.5q0 127 -94 217.5t-222 90.5q-132 0 -224.5 -91.5t-92.5 -222.5q0 -127 95 -217.5t222 -90.5zM375 898
l-45 27q11 40 41 61q36 20 72 16q46 -5 70.5 -30.5t24.5 -62.5q-3 -31 -42 -62q-42 -34 -46 -46h-47q0 29 44 60q34 24 34 45q2 19 -15 34t-38 14q-19 -1 -36 -17.5t-17 -38.5z" />
    <glyph glyph-name="ebhoanang" horiz-adv-x="869" 
d="M434 751q158 0 274.5 -111t116.5 -268q0 -161 -115 -273t-276 -112q-157 0 -273.5 111t-116.5 268q0 161 114.5 273t275.5 112zM435 58q131 0 223.5 91.5t92.5 222.5q0 127 -94 217.5t-222 90.5q-132 0 -224.5 -91.5t-92.5 -222.5q0 -127 95 -217.5t222 -90.5zM538 876
l23 -40q-35 -35 -72 -35q-25 0 -63 19q-30 15 -45 15q-27 0 -48 -25l-26 44q34 37 78 37q24 0 57 -18t49 -18q17 0 47 21z" />
    <glyph glyph-name="obhoa" unicode="&#x1ecc;" horiz-adv-x="869" 
d="M434 751q158 0 274.5 -111t116.5 -268q0 -161 -115 -273t-276 -112q-157 0 -273.5 111t-116.5 268q0 161 114.5 273t275.5 112zM435 58q131 0 223.5 91.5t92.5 222.5q0 127 -94 217.5t-222 90.5q-132 0 -224.5 -91.5t-92.5 -222.5q0 -127 95 -217.5t222 -90.5zM401 -156
v80h66v-80h-66z" />
    <glyph glyph-name="obhoasac" horiz-adv-x="200" 
d="M63 0v547h74v-547h-74zM4 672l172 104l31 -52l-173 -102z" />
    <glyph glyph-name="obhoahuyen" horiz-adv-x="200" 
d="M63 0v547h74v-547h-74zM15 751l178 -97l-29 -52l-177 95z" />
    <glyph glyph-name="obhoahoi" unicode="&#x1ec9;" horiz-adv-x="200" 
d="M63 0v547h74v-547h-74zM41 719l-45 27q11 40 41 61q36 20 72 16q46 -5 70.5 -30.5t24.5 -62.5q-3 -31 -42 -62q-42 -34 -46 -46h-47q0 29 44 60q34 24 34 45q2 19 -15 34t-38 14q-19 -1 -36 -17.5t-17 -38.5z" />
    <glyph glyph-name="obhoanga" unicode="&#x129;" horiz-adv-x="200" 
d="M63 0v547h74v-547h-74zM199 687l23 -40q-35 -35 -72 -35q-25 0 -63 19q-30 15 -45 15q-27 0 -48 -25l-26 44q34 37 78 37q24 0 57 -18t49 -18q17 0 47 21z" />
    <glyph glyph-name="obhoanang" unicode="&#x1ecb;" horiz-adv-x="200" 
d="M63 0v547h74v-547h-74zM68 613v80h66v-80h-66zM67 -156v80h66v-80h-66z" />
    <glyph glyph-name="ochoa" horiz-adv-x="226" 
d="M76 0v739h74v-739h-74zM32 839l172 104l31 -52l-173 -102z" />
    <glyph glyph-name="ochoasac" horiz-adv-x="226" 
d="M76 0v739h74v-739h-74zM23 943l178 -97l-29 -52l-177 95z" />
    <glyph glyph-name="ochoahuyen" unicode="&#x1ec8;" horiz-adv-x="226" 
d="M76 0v739h74v-739h-74zM54 901l-45 27q11 40 41 61q36 20 72 16q46 -5 70.5 -30.5t24.5 -62.5q-3 -31 -42 -62q-42 -34 -46 -46h-47q0 29 44 60q34 24 34 45q2 19 -15 34t-38 14q-19 -1 -36 -17.5t-17 -38.5z" />
    <glyph glyph-name="ochoahoi" unicode="&#x128;" horiz-adv-x="226" 
d="M76 0v739h74v-739h-74zM217 869l23 -40q-35 -35 -72 -35q-25 0 -63 19q-30 15 -45 15q-27 0 -48 -25l-26 44q34 37 78 37q24 0 57 -18t49 -18q17 0 47 21z" />
    <glyph glyph-name="ochoanga" unicode="&#x1eca;" horiz-adv-x="226" 
d="M76 0v739h74v-739h-74zM80 -163v80h66v-80h-66z" />
    <glyph glyph-name="ochoanang" horiz-adv-x="608" 
d="M545 547v-547h-70v85h-2q-48 -98 -179 -98q-106 0 -192 98q-39 44 -39 173v289h74v-289q0 -80 24 -121q46 -79 143 -79q85 0 134 67q33 45 33 133v289h74zM253 652l172 104l31 -52l-173 -102z" />
    <glyph glyph-name="uchoa" horiz-adv-x="608" 
d="M545 547v-547h-70v85h-2q-48 -98 -179 -98q-106 0 -192 98q-39 44 -39 173v289h74v-289q0 -80 24 -121q46 -79 143 -79q85 0 134 67q33 45 33 133v289h74zM229 746l178 -97l-29 -52l-177 95z" />
    <glyph glyph-name="uchoasac" unicode="&#x1ee7;" horiz-adv-x="608" 
d="M545 547v-547h-70v85h-2q-48 -98 -179 -98q-106 0 -192 98q-39 44 -39 173v289h74v-289q0 -80 24 -121q46 -79 143 -79q85 0 134 67q33 45 33 133v289h74zM255 699l-45 27q11 40 41 61q36 20 72 16q46 -5 70.5 -30.5t24.5 -62.5q-3 -31 -42 -62q-42 -34 -46 -46h-47
q0 29 44 60q34 24 34 45q2 19 -15 34t-38 14q-19 -1 -36 -17.5t-17 -38.5z" />
    <glyph glyph-name="uchoahuyen" unicode="&#x169;" horiz-adv-x="608" 
d="M545 547v-547h-70v85h-2q-48 -98 -179 -98q-106 0 -192 98q-39 44 -39 173v289h74v-289q0 -80 24 -121q46 -79 143 -79q85 0 134 67q33 45 33 133v289h74zM408 672l23 -40q-35 -35 -72 -35q-25 0 -63 19q-30 15 -45 15q-27 0 -48 -25l-26 44q34 37 78 37q24 0 57 -18
t49 -18q17 0 47 21z" />
    <glyph glyph-name="uchoahoi" unicode="&#x1ee5;" horiz-adv-x="608" 
d="M545 547v-547h-70v85h-2q-48 -98 -179 -98q-106 0 -192 98q-39 44 -39 173v289h74v-289q0 -80 24 -121q46 -79 143 -79q85 0 134 67q33 45 33 133v289h74zM266 -156v80h66v-80h-66z" />
    <glyph glyph-name="uchoanga" horiz-adv-x="655" 
d="M76 739h74v-449q0 -101 34 -155q49 -77 144 -77q87 0 136 67q41 56 41 165v449h74v-449q0 -137 -55 -209q-72 -94 -196 -94q-121 0 -193 88q-59 72 -59 215v449zM281 849l172 104l31 -52l-173 -102z" />
    <glyph glyph-name="uchoanang" horiz-adv-x="655" 
d="M76 739h74v-449q0 -101 34 -155q49 -77 144 -77q87 0 136 67q41 56 41 165v449h74v-449q0 -137 -55 -209q-72 -94 -196 -94q-121 0 -193 88q-59 72 -59 215v449zM252 938l178 -97l-29 -52l-177 95z" />
    <glyph glyph-name="dth" unicode="&#x1ee6;" horiz-adv-x="655" 
d="M76 739h74v-449q0 -101 34 -155q49 -77 144 -77q87 0 136 67q41 56 41 165v449h74v-449q0 -137 -55 -209q-72 -94 -196 -94q-121 0 -193 88q-59 72 -59 215v449zM278 896l-45 27q11 40 41 61q36 20 72 16q46 -5 70.5 -30.5t24.5 -62.5q-3 -31 -42 -62q-42 -34 -46 -46
h-47q0 29 44 60q34 24 34 45q2 19 -15 34t-38 14q-19 -1 -36 -17.5t-17 -38.5z" />
    <glyph glyph-name="athsac" unicode="&#x168;" horiz-adv-x="655" 
d="M76 739h74v-449q0 -101 34 -155q49 -77 144 -77q87 0 136 67q41 56 41 165v449h74v-449q0 -137 -55 -209q-72 -94 -196 -94q-121 0 -193 88q-59 72 -59 215v449zM431 864l23 -40q-35 -35 -72 -35q-25 0 -63 19q-30 15 -45 15q-27 0 -48 -25l-26 44q34 37 78 37
q24 0 57 -18t49 -18q17 0 47 21z" />
    <glyph glyph-name="athhuyen" unicode="&#x1ee4;" horiz-adv-x="655" 
d="M76 739h74v-449q0 -101 34 -155q49 -77 144 -77q87 0 136 67q41 56 41 165v449h74v-449q0 -137 -55 -209q-72 -94 -196 -94q-121 0 -193 88q-59 72 -59 215v449zM294 -156v80h66v-80h-66z" />
    <glyph glyph-name="athhoi" horiz-adv-x="536" 
d="M448 547h79l-316 -739h-78l86 209l-210 530h79l175 -436zM222 652l172 104l31 -52l-173 -102z" />
    <glyph glyph-name="athnga" unicode="&#x1ef3;" horiz-adv-x="536" 
d="M448 547h79l-316 -739h-78l86 209l-210 530h79l175 -436zM193 746l178 -97l-29 -52l-177 95z" />
    <glyph glyph-name="athnang" unicode="&#x1ef7;" horiz-adv-x="536" 
d="M448 547h79l-316 -739h-78l86 209l-210 530h79l175 -436zM224 704l-45 27q11 40 41 61q36 20 72 16q46 -5 70.5 -30.5t24.5 -62.5q-3 -31 -42 -62q-42 -34 -46 -46h-47q0 29 44 60q34 24 34 45q2 19 -15 34t-38 14q-19 -1 -36 -17.5t-17 -38.5z" />
    <glyph glyph-name="ethsac" unicode="&#x1ef9;" horiz-adv-x="536" 
d="M448 547h79l-316 -739h-78l86 209l-210 530h79l175 -436zM372 672l23 -40q-35 -35 -72 -35q-25 0 -63 19q-30 15 -45 15q-27 0 -48 -25l-26 44q34 37 78 37q24 0 57 -18t49 -18q17 0 47 21z" />
    <glyph glyph-name="ethhuyen" unicode="&#x1ef5;" horiz-adv-x="536" 
d="M448 547h79l-316 -739h-78l86 209l-210 530h79l175 -436zM330 -190v80h66v-80h-66z" />
    <glyph glyph-name="ethhoi" horiz-adv-x="592" 
d="M259 0v247l-257 492h81l213 -415l213 415h81l-257 -492v-247h-74zM225 844l172 104l31 -52l-173 -102z" />
    <glyph glyph-name="ethnga" unicode="&#x1ef2;" horiz-adv-x="592" 
d="M259 0v247l-257 492h81l213 -415l213 415h81l-257 -492v-247h-74zM221 938l178 -97l-29 -52l-177 95z" />
    <glyph glyph-name="ethnang" unicode="&#x1ef6;" horiz-adv-x="592" 
d="M259 0v247l-257 492h81l213 -415l213 415h81l-257 -492v-247h-74zM257 896l-45 27q11 40 41 61q36 20 72 16q46 -5 70.5 -30.5t24.5 -62.5q-3 -31 -42 -62q-42 -34 -46 -46h-47q0 29 44 60q34 24 34 45q2 19 -15 34t-38 14q-19 -1 -36 -17.5t-17 -38.5z" />
    <glyph glyph-name="ithsac" unicode="&#x1ef8;" horiz-adv-x="592" 
d="M259 0v247l-257 492h81l213 -415l213 415h81l-257 -492v-247h-74zM400 864l23 -40q-35 -35 -72 -35q-25 0 -63 19q-30 15 -45 15q-27 0 -48 -25l-26 44q34 37 78 37q24 0 57 -18t49 -18q17 0 47 21z" />
    <glyph glyph-name="ithhuyen" unicode="&#x1ef4;" horiz-adv-x="592" 
d="M259 0v247l-257 492h81l213 -415l213 415h81l-257 -492v-247h-74zM263 -153v80h66v-80h-66z" />
    <glyph glyph-name="ithhoi" unicode="&#x1edb;" horiz-adv-x="655" 
d="M329 559h1q80 0 144 -37q54 -31 84 -80q32 15 45 44q11 24 13 74h61q1 -153 -95 -156q31 -55 31 -127q0 -118 -83 -204t-201 -86q-117 0 -202 83t-85 200q0 120 83.5 204.5t203.5 84.5zM330 488q-90 0 -151.5 -64t-61.5 -154q0 -88 62.5 -150t150.5 -62q90 0 150 64
t60 155q0 90 -63.5 150.5t-146.5 60.5zM247 659l172 104l31 -52l-173 -102z" />
    <glyph glyph-name="ithnga" unicode="&#x1edd;" horiz-adv-x="655" 
d="M329 559h1q80 0 144 -37q54 -31 84 -80q32 15 45 44q11 24 13 74h61q1 -153 -95 -156q31 -55 31 -127q0 -118 -83 -204t-201 -86q-117 0 -202 83t-85 200q0 120 83.5 204.5t203.5 84.5zM330 488q-90 0 -151.5 -64t-61.5 -154q0 -88 62.5 -150t150.5 -62q90 0 150 64
t60 155q0 90 -63.5 150.5t-146.5 60.5zM253 758l178 -97l-29 -52l-177 95z" />
    <glyph glyph-name="ithnang" unicode="&#x1edf;" horiz-adv-x="655" 
d="M329 559h1q80 0 144 -37q54 -31 84 -80q32 15 45 44q11 24 13 74h61q1 -153 -95 -156q31 -55 31 -127q0 -118 -83 -204t-201 -86q-117 0 -202 83t-85 200q0 120 83.5 204.5t203.5 84.5zM330 488q-90 0 -151.5 -64t-61.5 -154q0 -88 62.5 -150t150.5 -62q90 0 150 64
t60 155q0 90 -63.5 150.5t-146.5 60.5zM269 706l-45 27q11 40 41 61q36 20 72 16q46 -5 70.5 -30.5t24.5 -62.5q-3 -31 -42 -62q-42 -34 -46 -46h-47q0 29 44 60q34 24 34 45q2 19 -15 34t-38 14q-19 -1 -36 -17.5t-17 -38.5z" />
    <glyph glyph-name="othsac" unicode="&#x1ee1;" horiz-adv-x="655" 
d="M329 559h1q80 0 144 -37q54 -31 84 -80q32 15 45 44q11 24 13 74h61q1 -153 -95 -156q31 -55 31 -127q0 -118 -83 -204t-201 -86q-117 0 -202 83t-85 200q0 120 83.5 204.5t203.5 84.5zM330 488q-90 0 -151.5 -64t-61.5 -154q0 -88 62.5 -150t150.5 -62q90 0 150 64
t60 155q0 90 -63.5 150.5t-146.5 60.5zM432 684l23 -40q-35 -35 -72 -35q-25 0 -63 19q-30 15 -45 15q-27 0 -48 -25l-26 44q34 37 78 37q24 0 57 -18t49 -18q17 0 47 21z" />
    <glyph glyph-name="othhuyen" unicode="&#x1ee3;" horiz-adv-x="655" 
d="M329 559h1q80 0 144 -37q54 -31 84 -80q32 15 45 44q11 24 13 74h61q1 -153 -95 -156q31 -55 31 -127q0 -118 -83 -204t-201 -86q-117 0 -202 83t-85 200q0 120 83.5 204.5t203.5 84.5zM330 488q-90 0 -151.5 -64t-61.5 -154q0 -88 62.5 -150t150.5 -62q90 0 150 64
t60 155q0 90 -63.5 150.5t-146.5 60.5zM295 -156v80h66v-80h-66z" />
    <glyph glyph-name="othhoi" unicode="&#x1eda;" horiz-adv-x="869" 
d="M434 751v-1q114 0 204 -52q72 -42 110 -104q66 13 74 138h61q0 -180 -106 -180q47 -76 48 -180q1 -160 -114 -272.5t-277 -112.5q-157 0 -273.5 111t-116.5 268q0 161 114.5 273t275.5 112zM435 57q131 0 223.5 91.5t92.5 222.5q0 127 -94 217.5t-222 90.5
q-132 0 -224.5 -91.5t-92.5 -222.5q0 -127 95 -217.5t222 -90.5zM358 850l172 104l31 -52l-173 -102z" />
    <glyph glyph-name="othnga" unicode="&#x1edc;" horiz-adv-x="869" 
d="M434 751v-1q114 0 204 -52q72 -42 110 -104q66 13 74 138h61q0 -180 -106 -180q47 -76 48 -180q1 -160 -114 -272.5t-277 -112.5q-157 0 -273.5 111t-116.5 268q0 161 114.5 273t275.5 112zM435 57q131 0 223.5 91.5t92.5 222.5q0 127 -94 217.5t-222 90.5
q-132 0 -224.5 -91.5t-92.5 -222.5q0 -127 95 -217.5t222 -90.5zM359 949l178 -97l-29 -52l-177 95z" />
    <glyph glyph-name="othnang" unicode="&#x1ede;" horiz-adv-x="869" 
d="M434 751v-1q114 0 204 -52q72 -42 110 -104q66 13 74 138h61q0 -180 -106 -180q47 -76 48 -180q1 -160 -114 -272.5t-277 -112.5q-157 0 -273.5 111t-116.5 268q0 161 114.5 273t275.5 112zM435 57q131 0 223.5 91.5t92.5 222.5q0 127 -94 217.5t-222 90.5
q-132 0 -224.5 -91.5t-92.5 -222.5q0 -127 95 -217.5t222 -90.5zM375 897l-45 27q11 40 41 61q36 20 72 16q46 -5 70.5 -30.5t24.5 -62.5q-3 -31 -42 -62q-42 -34 -46 -46h-47q0 29 44 60q34 24 34 45q2 19 -15 34t-38 14q-19 -1 -36 -17.5t-17 -38.5z" />
    <glyph glyph-name="uthsac" unicode="&#x1ee0;" horiz-adv-x="869" 
d="M434 751v-1q114 0 204 -52q72 -42 110 -104q66 13 74 138h61q0 -180 -106 -180q47 -76 48 -180q1 -160 -114 -272.5t-277 -112.5q-157 0 -273.5 111t-116.5 268q0 161 114.5 273t275.5 112zM435 57q131 0 223.5 91.5t92.5 222.5q0 127 -94 217.5t-222 90.5
q-132 0 -224.5 -91.5t-92.5 -222.5q0 -127 95 -217.5t222 -90.5zM538 875l23 -40q-35 -35 -72 -35q-25 0 -63 19q-30 15 -45 15q-27 0 -48 -25l-26 44q34 37 78 37q24 0 57 -18t49 -18q17 0 47 21z" />
    <glyph glyph-name="uthhuyen" unicode="&#x1ee2;" horiz-adv-x="869" 
d="M434 751v-1q114 0 204 -52q72 -42 110 -104q66 13 74 138h61q0 -180 -106 -180q47 -76 48 -180q1 -160 -114 -272.5t-277 -112.5q-157 0 -273.5 111t-116.5 268q0 161 114.5 273t275.5 112zM435 57q131 0 223.5 91.5t92.5 222.5q0 127 -94 217.5t-222 90.5
q-132 0 -224.5 -91.5t-92.5 -222.5q0 -127 95 -217.5t222 -90.5zM401 -157v80h66v-80h-66z" />
    <glyph glyph-name="uthhoi" unicode="&#x1ee9;" horiz-adv-x="608" 
d="M545 547v-112q44 17 49 111h61q-7 -156 -110 -156v-390h-70v85h-2q-48 -98 -179 -98q-106 0 -192 98q-39 44 -39 173v289h74v-289q0 -80 24 -121q46 -79 143 -79q85 0 134 67q33 45 33 133v289h74zM258 652l172 104l31 -52l-173 -102z" />
    <glyph glyph-name="uthnga" unicode="&#x1eeb;" horiz-adv-x="608" 
d="M545 547v-112q44 17 49 111h61q-7 -156 -110 -156v-390h-70v85h-2q-48 -98 -179 -98q-106 0 -192 98q-39 44 -39 173v289h74v-289q0 -80 24 -121q46 -79 143 -79q85 0 134 67q33 45 33 133v289h74zM224 751l178 -97l-29 -52l-177 95z" />
    <glyph glyph-name="uthnang" unicode="&#x1eed;" horiz-adv-x="608" 
d="M545 547v-112q44 17 49 111h61q-7 -156 -110 -156v-390h-70v85h-2q-48 -98 -179 -98q-106 0 -192 98q-39 44 -39 173v289h74v-289q0 -80 24 -121q46 -79 143 -79q85 0 134 67q33 45 33 133v289h74zM260 704l-45 27q11 40 41 61q36 20 72 16q46 -5 70.5 -30.5t24.5 -62.5
q-3 -31 -42 -62q-42 -34 -46 -46h-47q0 29 44 60q34 24 34 45q2 19 -15 34t-38 14q-19 -1 -36 -17.5t-17 -38.5z" />
    <glyph glyph-name="aath" unicode="&#x1eef;" horiz-adv-x="608" 
d="M545 547v-112q44 17 49 111h61q-7 -156 -110 -156v-390h-70v85h-2q-48 -98 -179 -98q-106 0 -192 98q-39 44 -39 173v289h74v-289q0 -80 24 -121q46 -79 143 -79q85 0 134 67q33 45 33 133v289h74zM413 677l23 -40q-35 -35 -72 -35q-25 0 -63 19q-30 15 -45 15
q-27 0 -48 -25l-26 44q34 37 78 37q24 0 57 -18t49 -18q17 0 47 21z" />
    <glyph glyph-name="aathsac" unicode="&#x1ef1;" horiz-adv-x="608" 
d="M545 547v-112q44 17 49 111h61q-7 -156 -110 -156v-390h-70v85h-2q-48 -98 -179 -98q-106 0 -192 98q-39 44 -39 173v289h74v-289q0 -80 24 -121q46 -79 143 -79q85 0 134 67q33 45 33 133v289h74zM291 -156v80h66v-80h-66z" />
    <glyph glyph-name="aathhuyen" unicode="&#x1ee8;" horiz-adv-x="655" 
d="M76 739h74v-449q0 -101 34 -155q49 -77 144 -77q87 0 136 67q41 56 41 165v449h74v-126q46 35 50 126h61q-8 -172 -111 -172v-277q0 -137 -55 -209q-72 -94 -196 -94q-121 0 -193 88q-59 72 -59 215v449zM281 849l172 104l31 -52l-173 -102z" />
    <glyph glyph-name="aathhoi" unicode="&#x1eea;" horiz-adv-x="655" 
d="M76 739h74v-449q0 -101 34 -155q49 -77 144 -77q87 0 136 67q41 56 41 165v449h74v-126q46 35 50 126h61q-8 -172 -111 -172v-277q0 -137 -55 -209q-72 -94 -196 -94q-121 0 -193 88q-59 72 -59 215v449zM252 938l178 -97l-29 -52l-177 95z" />
    <glyph glyph-name="aathnga" unicode="&#x1eec;" horiz-adv-x="655" 
d="M76 739h74v-449q0 -101 34 -155q49 -77 144 -77q87 0 136 67q41 56 41 165v449h74v-126q46 35 50 126h61q-8 -172 -111 -172v-277q0 -137 -55 -209q-72 -94 -196 -94q-121 0 -193 88q-59 72 -59 215v449zM278 896l-45 27q11 40 41 61q36 20 72 16q46 -5 70.5 -30.5
t24.5 -62.5q-3 -31 -42 -62q-42 -34 -46 -46h-47q0 29 44 60q34 24 34 45q2 19 -15 34t-38 14q-19 -1 -36 -17.5t-17 -38.5z" />
    <glyph glyph-name="aathnang" unicode="&#x1eee;" horiz-adv-x="655" 
d="M76 739h74v-449q0 -101 34 -155q49 -77 144 -77q87 0 136 67q41 56 41 165v449h74v-126q46 35 50 126h61q-8 -172 -111 -172v-277q0 -137 -55 -209q-72 -94 -196 -94q-121 0 -193 88q-59 72 -59 215v449zM431 864l23 -40q-35 -35 -72 -35q-25 0 -63 19q-30 15 -45 15
q-27 0 -48 -25l-26 44q34 37 78 37q24 0 57 -18t49 -18q17 0 47 21z" />
    <glyph glyph-name="abth" unicode="&#x1ef0;" horiz-adv-x="655" 
d="M76 739h74v-449q0 -101 34 -155q49 -77 144 -77q87 0 136 67q41 56 41 165v449h74v-126q46 35 50 126h61q-8 -172 -111 -172v-277q0 -137 -55 -209q-72 -94 -196 -94q-121 0 -193 88q-59 72 -59 215v449zM294 -156v80h66v-80h-66z" />
    <glyph glyph-name="abthsac" unicode="&#x1eaf;" horiz-adv-x="683" 
d="M620 547v-547h-71v103h-2q-29 -56 -88 -87q-55 -29 -122 -29q-139 0 -241 116q-19 21 -34 64q-20 54 -20 110q0 110 79 192q87 90 214 90q68 0 124 -29q60 -31 88 -87h2v104h71zM335 488q-90 0 -154.5 -63.5t-64.5 -153.5q0 -89 66 -151t155 -62q86 0 149 63.5t63 148.5
q0 91 -61.5 154.5t-152.5 63.5zM240 693h58q19 -40 79 -40t79 40h56q-11 -45 -51 -69q-35 -22 -85 -22t-85 22q-40 24 -51 69zM335 773l172 104l31 -52l-173 -102z" />
    <glyph glyph-name="abthhuyen" unicode="&#x1eb1;" horiz-adv-x="683" 
d="M620 547v-547h-71v103h-2q-29 -56 -88 -87q-55 -29 -122 -29q-139 0 -241 116q-19 21 -34 64q-20 54 -20 110q0 110 79 192q87 90 214 90q68 0 124 -29q60 -31 88 -87h2v104h71zM335 488q-90 0 -154.5 -63.5t-64.5 -153.5q0 -89 66 -151t155 -62q86 0 149 63.5t63 148.5
q0 91 -61.5 154.5t-152.5 63.5zM240 693h58q19 -40 79 -40t79 40h56q-11 -45 -51 -69q-35 -22 -85 -22t-85 22q-40 24 -51 69zM251 867l178 -97l-29 -52l-177 95z" />
    <glyph glyph-name="abthhoi" unicode="&#x1eb3;" horiz-adv-x="683" 
d="M620 547v-547h-71v103h-2q-29 -56 -88 -87q-55 -29 -122 -29q-139 0 -241 116q-19 21 -34 64q-20 54 -20 110q0 110 79 192q87 90 214 90q68 0 124 -29q60 -31 88 -87h2v104h71zM335 488q-90 0 -154.5 -63.5t-64.5 -153.5q0 -89 66 -151t155 -62q86 0 149 63.5t63 148.5
q0 91 -61.5 154.5t-152.5 63.5zM240 693h58q19 -40 79 -40t79 40h56q-11 -45 -51 -69q-35 -22 -85 -22t-85 22q-40 24 -51 69zM327 825l-45 27q11 40 41 61q36 20 72 16q46 -5 70.5 -30.5t24.5 -62.5q-3 -31 -42 -62q-42 -34 -46 -46h-47q0 29 44 60q34 24 34 45
q2 19 -15 34t-38 14q-19 -1 -36 -17.5t-17 -38.5z" />
    <glyph glyph-name="abthnga" unicode="&#x1eb5;" horiz-adv-x="683" 
d="M620 547v-547h-71v103h-2q-29 -56 -88 -87q-55 -29 -122 -29q-139 0 -241 116q-19 21 -34 64q-20 54 -20 110q0 110 79 192q87 90 214 90q68 0 124 -29q60 -31 88 -87h2v104h71zM335 488q-90 0 -154.5 -63.5t-64.5 -153.5q0 -89 66 -151t155 -62q86 0 149 63.5t63 148.5
q0 91 -61.5 154.5t-152.5 63.5zM240 693h58q19 -40 79 -40t79 40h56q-11 -45 -51 -69q-35 -22 -85 -22t-85 22q-40 24 -51 69zM470 808l23 -40q-35 -35 -72 -35q-25 0 -63 19q-30 15 -45 15q-27 0 -48 -25l-26 44q34 37 78 37q24 0 57 -18t49 -18q17 0 47 21z" />
    <glyph glyph-name="abthnang" unicode="&#x1eb7;" horiz-adv-x="683" 
d="M620 547v-547h-71v103h-2q-29 -56 -88 -87q-55 -29 -122 -29q-139 0 -241 116q-19 21 -34 64q-20 54 -20 110q0 110 79 192q87 90 214 90q68 0 124 -29q60 -31 88 -87h2v104h71zM335 488q-90 0 -154.5 -63.5t-64.5 -153.5q0 -89 66 -151t155 -62q86 0 149 63.5t63 148.5
q0 91 -61.5 154.5t-152.5 63.5zM240 693h58q19 -40 79 -40t79 40h56q-11 -45 -51 -69q-35 -22 -85 -22t-85 22q-40 24 -51 69zM303 -146v80h66v-80h-66z" />
    <glyph glyph-name="ebth" unicode="&#x1eae;" horiz-adv-x="740" 
d="M11 0l319 739h82l317 -739h-80l-107 248h-344l-107 -248h-80zM227 315h286l-142 339zM238 875h58q19 -40 79 -40t79 40h56q-11 -45 -51 -69q-35 -22 -85 -22t-85 22q-40 24 -51 69zM333 955l172 104l31 -52l-173 -102z" />
    <glyph glyph-name="ebthsac" unicode="&#x1eb0;" horiz-adv-x="740" 
d="M11 0l319 739h82l317 -739h-80l-107 248h-344l-107 -248h-80zM227 315h286l-142 339zM238 875h58q19 -40 79 -40t79 40h56q-11 -45 -51 -69q-35 -22 -85 -22t-85 22q-40 24 -51 69zM249 1049l178 -97l-29 -52l-177 95z" />
    <glyph glyph-name="ebthhuyen" unicode="&#x1eb2;" horiz-adv-x="740" 
d="M11 0l319 739h82l317 -739h-80l-107 248h-344l-107 -248h-80zM227 315h286l-142 339zM238 875h58q19 -40 79 -40t79 40h56q-11 -45 -51 -69q-35 -22 -85 -22t-85 22q-40 24 -51 69zM325 1007l-45 27q11 40 41 61q36 20 72 16q46 -5 70.5 -30.5t24.5 -62.5q-3 -31 -42 -62
q-42 -34 -46 -46h-47q0 29 44 60q34 24 34 45q2 19 -15 34t-38 14q-19 -1 -36 -17.5t-17 -38.5z" />
    <glyph glyph-name="ebthhoi" unicode="&#x1eb4;" horiz-adv-x="740" 
d="M11 0l319 739h82l317 -739h-80l-107 248h-344l-107 -248h-80zM227 315h286l-142 339zM238 875h58q19 -40 79 -40t79 40h56q-11 -45 -51 -69q-35 -22 -85 -22t-85 22q-40 24 -51 69zM468 990l23 -40q-35 -35 -72 -35q-25 0 -63 19q-30 15 -45 15q-27 0 -48 -25l-26 44
q34 37 78 37q24 0 57 -18t49 -18q17 0 47 21z" />
    <glyph glyph-name="ebthnga" unicode="&#x1eb6;" horiz-adv-x="740" 
d="M11 0l319 739h82l317 -739h-80l-107 248h-344l-107 -248h-80zM227 315h286l-142 339zM238 875h58q19 -40 79 -40t79 40h56q-11 -45 -51 -69q-35 -22 -85 -22t-85 22q-40 24 -51 69zM341 -154v80h66v-80h-66z" />
    <glyph glyph-name="ebthnang" unicode="&#x1ea5;" horiz-adv-x="683" 
d="M620 547v-547h-71v103h-2q-29 -56 -88 -87q-55 -29 -122 -29q-139 0 -241 116q-19 21 -34 64q-20 54 -20 110q0 110 79 192q87 90 214 90q68 0 124 -29q60 -31 88 -87h2v104h71zM335 488q-90 0 -154.5 -63.5t-64.5 -153.5q0 -89 66 -151t155 -62q86 0 149 63.5t63 148.5
q0 91 -61.5 154.5t-152.5 63.5zM190 608l131 113h57l130 -113h-81l-78 65l-78 -65h-81zM445 736l172 104l31 -52l-173 -102z" />
    <glyph glyph-name="obth" unicode="&#x1ea7;" horiz-adv-x="683" 
d="M620 547v-547h-71v103h-2q-29 -56 -88 -87q-55 -29 -122 -29q-139 0 -241 116q-19 21 -34 64q-20 54 -20 110q0 110 79 192q87 90 214 90q68 0 124 -29q60 -31 88 -87h2v104h71zM335 488q-90 0 -154.5 -63.5t-64.5 -153.5q0 -89 66 -151t155 -62q86 0 149 63.5t63 148.5
q0 91 -61.5 154.5t-152.5 63.5zM190 608l131 113h57l130 -113h-81l-78 65l-78 -65h-81zM321 885l178 -97l-29 -52l-177 95z" />
    <glyph glyph-name="obthsac" unicode="&#x1ea9;" horiz-adv-x="683" 
d="M620 547v-547h-71v103h-2q-29 -56 -88 -87q-55 -29 -122 -29q-139 0 -241 116q-19 21 -34 64q-20 54 -20 110q0 110 79 192q87 90 214 90q68 0 124 -29q60 -31 88 -87h2v104h71zM335 488q-90 0 -154.5 -63.5t-64.5 -153.5q0 -89 66 -151t155 -62q86 0 149 63.5t63 148.5
q0 91 -61.5 154.5t-152.5 63.5zM190 608l131 113h57l130 -113h-81l-78 65l-78 -65h-81zM437 788l-45 27q11 40 41 61q36 20 72 16q46 -5 70.5 -30.5t24.5 -62.5q-3 -31 -42 -62q-42 -34 -46 -46h-47q0 29 44 60q34 24 34 45q2 19 -15 34t-38 14q-19 -1 -36 -17.5t-17 -38.5z
" />
    <glyph glyph-name="obthhuyen" unicode="&#x1eab;" horiz-adv-x="683" 
d="M620 547v-547h-71v103h-2q-29 -56 -88 -87q-55 -29 -122 -29q-139 0 -241 116q-19 21 -34 64q-20 54 -20 110q0 110 79 192q87 90 214 90q68 0 124 -29q60 -31 88 -87h2v104h71zM335 488q-90 0 -154.5 -63.5t-64.5 -153.5q0 -89 66 -151t155 -62q86 0 149 63.5t63 148.5
q0 91 -61.5 154.5t-152.5 63.5zM190 608l131 113h57l130 -113h-81l-78 65l-78 -65h-81zM450 841l23 -40q-35 -35 -72 -35q-25 0 -63 19q-30 15 -45 15q-27 0 -48 -25l-26 44q34 37 78 37q24 0 57 -18t49 -18q17 0 47 21z" />
    <glyph glyph-name="obthhoi" unicode="&#x1ead;" horiz-adv-x="683" 
d="M620 547v-547h-71v103h-2q-29 -56 -88 -87q-55 -29 -122 -29q-139 0 -241 116q-19 21 -34 64q-20 54 -20 110q0 110 79 192q87 90 214 90q68 0 124 -29q60 -31 88 -87h2v104h71zM335 488q-90 0 -154.5 -63.5t-64.5 -153.5q0 -89 66 -151t155 -62q86 0 149 63.5t63 148.5
q0 91 -61.5 154.5t-152.5 63.5zM190 608l131 113h57l130 -113h-81l-78 65l-78 -65h-81zM308 -151v80h66v-80h-66z" />
    <glyph glyph-name="obthnga" unicode="&#x1ea4;" horiz-adv-x="740" 
d="M11 0l319 739h82l317 -739h-80l-107 248h-344l-107 -248h-80zM227 315h286l-142 339zM213 775l131 113h57l130 -113h-81l-78 65l-78 -65h-81zM468 903l172 104l31 -52l-173 -102z" />
    <glyph glyph-name="obthnang" unicode="&#x1ea6;" horiz-adv-x="740" 
d="M11 0l319 739h82l317 -739h-80l-107 248h-344l-107 -248h-80zM227 315h286l-142 339zM213 775l131 113h57l130 -113h-81l-78 65l-78 -65h-81zM344 1052l178 -97l-29 -52l-177 95z" />
    <glyph glyph-name="octh" unicode="&#x1ea8;" horiz-adv-x="740" 
d="M11 0l319 739h82l317 -739h-80l-107 248h-344l-107 -248h-80zM227 315h286l-142 339zM213 775l131 113h57l130 -113h-81l-78 65l-78 -65h-81zM460 955l-45 27q11 40 41 61q36 20 72 16q46 -5 70.5 -30.5t24.5 -62.5q-3 -31 -42 -62q-42 -34 -46 -46h-47q0 29 44 60
q34 24 34 45q2 19 -15 34t-38 14q-19 -1 -36 -17.5t-17 -38.5z" />
    <glyph glyph-name="octhsac" unicode="&#x1eaa;" horiz-adv-x="740" 
d="M11 0l319 739h82l317 -739h-80l-107 248h-344l-107 -248h-80zM227 315h286l-142 339zM213 775l131 113h57l130 -113h-81l-78 65l-78 -65h-81zM473 1008l23 -40q-35 -35 -72 -35q-25 0 -63 19q-30 15 -45 15q-27 0 -48 -25l-26 44q34 37 78 37q24 0 57 -18t49 -18
q17 0 47 21z" />
    <glyph glyph-name="octhhuyen" unicode="&#x1eac;" horiz-adv-x="740" 
d="M11 0l319 739h82l317 -739h-80l-107 248h-344l-107 -248h-80zM227 315h286l-142 339zM213 775l131 113h57l130 -113h-81l-78 65l-78 -65h-81zM341 -144v80h66v-80h-66z" />
    <glyph glyph-name="octhhoi" unicode="&#x1ebf;" horiz-adv-x="650" 
d="M611 247h-495q3 -77 66 -133t140 -56q62 0 117 32.5t79 87.5h77q-29 -83 -104 -137t-162 -54q-120 0 -203.5 83t-83.5 203q0 119 83 202.5t202 83.5q134 0 220 -106q61 -74 64 -206zM116 314h421q-14 73 -74 123.5t-135 50.5q-78 0 -138.5 -49.5t-73.5 -124.5zM167 604
l131 113h57l130 -113h-81l-78 65l-78 -65h-81zM422 732l172 104l31 -52l-173 -102z" />
    <glyph glyph-name="octhnga" unicode="&#x1ec1;" horiz-adv-x="650" 
d="M611 247h-495q3 -77 66 -133t140 -56q62 0 117 32.5t79 87.5h77q-29 -83 -104 -137t-162 -54q-120 0 -203.5 83t-83.5 203q0 119 83 202.5t202 83.5q134 0 220 -106q61 -74 64 -206zM116 314h421q-14 73 -74 123.5t-135 50.5q-78 0 -138.5 -49.5t-73.5 -124.5zM167 604
l131 113h57l130 -113h-81l-78 65l-78 -65h-81zM298 881l178 -97l-29 -52l-177 95z" />
    <glyph glyph-name="octhnang" unicode="&#x1ec3;" horiz-adv-x="650" 
d="M611 247h-495q3 -77 66 -133t140 -56q62 0 117 32.5t79 87.5h77q-29 -83 -104 -137t-162 -54q-120 0 -203.5 83t-83.5 203q0 119 83 202.5t202 83.5q134 0 220 -106q61 -74 64 -206zM116 314h421q-14 73 -74 123.5t-135 50.5q-78 0 -138.5 -49.5t-73.5 -124.5zM167 604
l131 113h57l130 -113h-81l-78 65l-78 -65h-81zM414 784l-45 27q11 40 41 61q36 20 72 16q46 -5 70.5 -30.5t24.5 -62.5q-3 -31 -42 -62q-42 -34 -46 -46h-47q0 29 44 60q34 24 34 45q2 19 -15 34t-38 14q-19 -1 -36 -17.5t-17 -38.5z" />
    <glyph glyph-name="ucth" unicode="&#x1ec5;" horiz-adv-x="650" 
d="M611 247h-495q3 -77 66 -133t140 -56q62 0 117 32.5t79 87.5h77q-29 -83 -104 -137t-162 -54q-120 0 -203.5 83t-83.5 203q0 119 83 202.5t202 83.5q134 0 220 -106q61 -74 64 -206zM116 314h421q-14 73 -74 123.5t-135 50.5q-78 0 -138.5 -49.5t-73.5 -124.5zM167 604
l131 113h57l130 -113h-81l-78 65l-78 -65h-81zM427 837l23 -40q-35 -35 -72 -35q-25 0 -63 19q-30 15 -45 15q-27 0 -48 -25l-26 44q34 37 78 37q24 0 57 -18t49 -18q17 0 47 21z" />
    <glyph glyph-name="ucthsac" unicode="&#x1ec7;" horiz-adv-x="650" 
d="M611 247h-495q3 -77 66 -133t140 -56q62 0 117 32.5t79 87.5h77q-29 -83 -104 -137t-162 -54q-120 0 -203.5 83t-83.5 203q0 119 83 202.5t202 83.5q134 0 220 -106q61 -74 64 -206zM116 314h421q-14 73 -74 123.5t-135 50.5q-78 0 -138.5 -49.5t-73.5 -124.5zM167 604
l131 113h57l130 -113h-81l-78 65l-78 -65h-81zM285 -155v80h66v-80h-66z" />
    <glyph glyph-name="ucthhuyen" unicode="&#x1ebe;" horiz-adv-x="536" 
d="M76 0v739h404v-67h-330v-266h319v-67h-319v-272h330v-67h-404zM106 774l131 113h57l130 -113h-81l-78 65l-78 -65h-81zM361 902l172 104l31 -52l-173 -102z" />
    <glyph glyph-name="ucthhoi" unicode="&#x1ec0;" horiz-adv-x="536" 
d="M76 0v739h404v-67h-330v-266h319v-67h-319v-272h330v-67h-404zM106 774l131 113h57l130 -113h-81l-78 65l-78 -65h-81zM237 1051l178 -97l-29 -52l-177 95z" />
    <glyph glyph-name="ucthnga" unicode="&#x1ec2;" horiz-adv-x="536" 
d="M76 0v739h404v-67h-330v-266h319v-67h-319v-272h330v-67h-404zM106 774l131 113h57l130 -113h-81l-78 65l-78 -65h-81zM353 954l-45 27q11 40 41 61q36 20 72 16q46 -5 70.5 -30.5t24.5 -62.5q-3 -31 -42 -62q-42 -34 -46 -46h-47q0 29 44 60q34 24 34 45q2 19 -15 34
t-38 14q-19 -1 -36 -17.5t-17 -38.5z" />
    <glyph glyph-name="ucthnang" unicode="&#x1ec4;" horiz-adv-x="536" 
d="M76 0v739h404v-67h-330v-266h319v-67h-319v-272h330v-67h-404zM106 774l131 113h57l130 -113h-81l-78 65l-78 -65h-81zM366 1007l23 -40q-35 -35 -72 -35q-25 0 -63 19q-30 15 -45 15q-27 0 -48 -25l-26 44q34 37 78 37q24 0 57 -18t49 -18q17 0 47 21z" />
    <glyph glyph-name="ythsac" unicode="&#x1ec6;" horiz-adv-x="536" 
d="M76 0v739h404v-67h-330v-266h319v-67h-319v-272h330v-67h-404zM106 774l131 113h57l130 -113h-81l-78 65l-78 -65h-81zM234 -140v80h66v-80h-66z" />
    <glyph glyph-name="ythhuyen" unicode="&#x1ed1;" horiz-adv-x="655" 
d="M329 559q114 0 199 -84t85 -198q0 -118 -83 -204t-201 -86q-117 0 -202 83t-85 200q0 120 83.5 204.5t203.5 84.5zM329 488q-90 0 -151.5 -64t-61.5 -154q0 -88 62.5 -150t150.5 -62q90 0 150 64t60 155q0 90 -63.5 150.5t-146.5 60.5zM169 603l131 113h57l130 -113h-81
l-78 65l-78 -65h-81zM424 731l172 104l31 -52l-173 -102z" />
    <glyph glyph-name="ythhoi" unicode="&#x1ed3;" horiz-adv-x="655" 
d="M329 559q114 0 199 -84t85 -198q0 -118 -83 -204t-201 -86q-117 0 -202 83t-85 200q0 120 83.5 204.5t203.5 84.5zM329 488q-90 0 -151.5 -64t-61.5 -154q0 -88 62.5 -150t150.5 -62q90 0 150 64t60 155q0 90 -63.5 150.5t-146.5 60.5zM169 603l131 113h57l130 -113h-81
l-78 65l-78 -65h-81zM300 880l178 -97l-29 -52l-177 95z" />
    <glyph glyph-name="ythnga" unicode="&#x1ed5;" horiz-adv-x="655" 
d="M329 559q114 0 199 -84t85 -198q0 -118 -83 -204t-201 -86q-117 0 -202 83t-85 200q0 120 83.5 204.5t203.5 84.5zM329 488q-90 0 -151.5 -64t-61.5 -154q0 -88 62.5 -150t150.5 -62q90 0 150 64t60 155q0 90 -63.5 150.5t-146.5 60.5zM169 603l131 113h57l130 -113h-81
l-78 65l-78 -65h-81zM416 783l-45 27q11 40 41 61q36 20 72 16q46 -5 70.5 -30.5t24.5 -62.5q-3 -31 -42 -62q-42 -34 -46 -46h-47q0 29 44 60q34 24 34 45q2 19 -15 34t-38 14q-19 -1 -36 -17.5t-17 -38.5z" />
    <glyph glyph-name="ythnang" unicode="&#x1ed7;" horiz-adv-x="655" 
d="M329 559q114 0 199 -84t85 -198q0 -118 -83 -204t-201 -86q-117 0 -202 83t-85 200q0 120 83.5 204.5t203.5 84.5zM329 488q-90 0 -151.5 -64t-61.5 -154q0 -88 62.5 -150t150.5 -62q90 0 150 64t60 155q0 90 -63.5 150.5t-146.5 60.5zM169 603l131 113h57l130 -113h-81
l-78 65l-78 -65h-81zM429 836l23 -40q-35 -35 -72 -35q-25 0 -63 19q-30 15 -45 15q-27 0 -48 -25l-26 44q34 37 78 37q24 0 57 -18t49 -18q17 0 47 21z" />
    <glyph glyph-name="inanghoa" unicode="&#x1ed9;" horiz-adv-x="655" 
d="M329 559q114 0 199 -84t85 -198q0 -118 -83 -204t-201 -86q-117 0 -202 83t-85 200q0 120 83.5 204.5t203.5 84.5zM329 488q-90 0 -151.5 -64t-61.5 -154q0 -88 62.5 -150t150.5 -62q90 0 150 64t60 155q0 90 -63.5 150.5t-146.5 60.5zM169 603l131 113h57l130 -113h-81
l-78 65l-78 -65h-81zM287 -156v80h66v-80h-66z" />
    <glyph glyph-name="ingahoa" unicode="&#x1ed0;" horiz-adv-x="869" 
d="M434 751q158 0 274.5 -111t116.5 -268q0 -161 -115 -273t-276 -112q-157 0 -273.5 111t-116.5 268q0 161 114.5 273t275.5 112zM435 58q131 0 223.5 91.5t92.5 222.5q0 127 -94 217.5t-222 90.5q-132 0 -224.5 -91.5t-92.5 -222.5q0 -127 95 -217.5t222 -90.5zM270 783
l131 113h57l130 -113h-81l-78 65l-78 -65h-81zM525 911l172 104l31 -52l-173 -102z" />
    <glyph glyph-name="ihoihoa" unicode="&#x1ed2;" horiz-adv-x="869" 
d="M434 751q158 0 274.5 -111t116.5 -268q0 -161 -115 -273t-276 -112q-157 0 -273.5 111t-116.5 268q0 161 114.5 273t275.5 112zM435 58q131 0 223.5 91.5t92.5 222.5q0 127 -94 217.5t-222 90.5q-132 0 -224.5 -91.5t-92.5 -222.5q0 -127 95 -217.5t222 -90.5zM270 783
l131 113h57l130 -113h-81l-78 65l-78 -65h-81zM401 1060l178 -97l-29 -52l-177 95z" />
    <glyph glyph-name="ihuyenhoa" unicode="&#x1ed4;" horiz-adv-x="869" 
d="M434 751q158 0 274.5 -111t116.5 -268q0 -161 -115 -273t-276 -112q-157 0 -273.5 111t-116.5 268q0 161 114.5 273t275.5 112zM435 58q131 0 223.5 91.5t92.5 222.5q0 127 -94 217.5t-222 90.5q-132 0 -224.5 -91.5t-92.5 -222.5q0 -127 95 -217.5t222 -90.5zM270 783
l131 113h57l130 -113h-81l-78 65l-78 -65h-81zM517 963l-45 27q11 40 41 61q36 20 72 16q46 -5 70.5 -30.5t24.5 -62.5q-3 -31 -42 -62q-42 -34 -46 -46h-47q0 29 44 60q34 24 34 45q2 19 -15 34t-38 14q-19 -1 -36 -17.5t-17 -38.5z" />
    <glyph glyph-name="isachoa" unicode="&#x1ed6;" horiz-adv-x="869" 
d="M434 751q158 0 274.5 -111t116.5 -268q0 -161 -115 -273t-276 -112q-157 0 -273.5 111t-116.5 268q0 161 114.5 273t275.5 112zM435 58q131 0 223.5 91.5t92.5 222.5q0 127 -94 217.5t-222 90.5q-132 0 -224.5 -91.5t-92.5 -222.5q0 -127 95 -217.5t222 -90.5zM270 783
l131 113h57l130 -113h-81l-78 65l-78 -65h-81zM530 1016l23 -40q-35 -35 -72 -35q-25 0 -63 19q-30 15 -45 15q-27 0 -48 -25l-26 44q34 37 78 37q24 0 57 -18t49 -18q17 0 47 21z" />
    <glyph glyph-name="bnanghoa" unicode="&#x1ed8;" horiz-adv-x="869" 
d="M434 751q158 0 274.5 -111t116.5 -268q0 -161 -115 -273t-276 -112q-157 0 -273.5 111t-116.5 268q0 161 114.5 273t275.5 112zM435 58q131 0 223.5 91.5t92.5 222.5q0 127 -94 217.5t-222 90.5q-132 0 -224.5 -91.5t-92.5 -222.5q0 -127 95 -217.5t222 -90.5zM270 783
l131 113h57l130 -113h-81l-78 65l-78 -65h-81zM403 -146v80h66v-80h-66z" />
    <glyph glyph-name="bngahoa" unicode="&#xf00a;" 
d="M-409 659l172 104l31 -52l-173 -102z" />
    <glyph glyph-name="bhoihoa" unicode="&#xf00f;" 
d="M-403 753l178 -97l-29 -52l-177 95z" />
    <glyph glyph-name="bhuyenhoa" unicode="&#xf014;" 
d="M-387 706l-45 27q11 40 41 61q36 20 72 16q46 -5 70.5 -30.5t24.5 -62.5q-3 -31 -42 -62q-42 -34 -46 -46h-47q0 29 44 60q34 24 34 45q2 19 -15 34t-38 14q-19 -1 -36 -17.5t-17 -38.5z" />
    <glyph glyph-name="bsachoa" unicode="&#xf019;" 
d="M-224 684l23 -40q-35 -35 -72 -35q-25 0 -63 19q-30 15 -45 15q-27 0 -48 -25l-26 44q34 37 78 37q24 0 57 -18t49 -18q17 0 47 21z" />
    <glyph glyph-name="bsachoa" unicode="&#xf01b;" 
d="M-224 684l23 -40q-35 -35 -72 -35q-25 0 -63 19q-30 15 -45 15q-27 0 -48 -25l-26 44q34 37 78 37q24 0 57 -18t49 -18q17 0 47 21z" />
    <glyph glyph-name="bsachoa" unicode="&#xf01a;" 
d="M-224 684l23 -40q-35 -35 -72 -35q-25 0 -63 19q-30 15 -45 15q-27 0 -48 -25l-26 44q34 37 78 37q24 0 57 -18t49 -18q17 0 47 21z" />
    <glyph glyph-name="bhoa" unicode="&#xf023;" 
d="M-366 -151v80h66v-80h-66z" />
    <glyph glyph-name="bhoa" unicode="&#xf02c;" 
d="M-366 -151v80h66v-80h-66z" />
    <glyph glyph-name="bhoa" unicode="&#xf028;" 
d="M-366 -151v80h66v-80h-66z" />
    <glyph glyph-name="bhoa" unicode="&#xf027;" 
d="M-366 -151v80h66v-80h-66z" />
    <glyph glyph-name="bhoa" unicode="&#xf026;" 
d="M-366 -151v80h66v-80h-66z" />
    <glyph glyph-name="bhoa" unicode="&#xf025;" 
d="M-366 -151v80h66v-80h-66z" />
    <glyph glyph-name="bhoa" unicode="&#xf024;" 
d="M-366 -151v80h66v-80h-66z" />
    <glyph glyph-name="bnangth" unicode="&#xf009;" 
d="M-352 770l172 104l31 -52l-173 -102z" />
    <glyph glyph-name="bngath" unicode="&#xf00e;" 
d="M-441 874l178 -97l-29 -52l-177 95z" />
    <glyph glyph-name="bhoith" unicode="&#xf013;" 
d="M-365 817l-45 27q11 40 41 61q36 20 72 16q46 -5 70.5 -30.5t24.5 -62.5q-3 -31 -42 -62q-42 -34 -46 -46h-47q0 29 44 60q34 24 34 45q2 19 -15 34t-38 14q-19 -1 -36 -17.5t-17 -38.5z" />
    <glyph glyph-name="bhuyenth" unicode="&#xf018;" 
d="M-207 820l23 -40q-35 -35 -72 -35q-25 0 -63 19q-30 15 -45 15q-27 0 -48 -25l-26 44q34 37 78 37q24 0 57 -18t49 -18q17 0 47 21z" />
    <glyph glyph-name="bsacth" unicode="&#x301;" 
d="M-228 731l172 104l31 -52l-173 -102z" />
    <glyph glyph-name="bsacth" unicode="&#x302;" 
d="M-228 731l172 104l31 -52l-173 -102z" />
    <glyph glyph-name="bth" unicode="&#x300;" 
d="M-357 880l178 -97l-29 -52l-177 95z" />
    <glyph glyph-name="cnanghoa" unicode="&#x309;" 
d="M-251 803l-45 27q11 40 41 61q36 20 72 16q46 -5 70.5 -30.5t24.5 -62.5q-3 -31 -42 -62q-42 -34 -46 -46h-47q0 29 44 60q34 24 34 45q2 19 -15 34t-38 14q-19 -1 -36 -17.5t-17 -38.5z" />
    <glyph glyph-name="cngahoa" unicode="&#x303;" 
d="M-218 836l23 -40q-35 -35 -72 -35q-25 0 -63 19q-30 15 -45 15q-27 0 -48 -25l-26 44q34 37 78 37q24 0 57 -18t49 -18q17 0 47 21z" />
    <glyph glyph-name="choihoa" unicode="&#x341;" 
d="M-494 854l172 104l31 -52l-173 -102z" />
    <glyph glyph-name="choihoa" unicode="&#xf007;" 
d="M-494 854l172 104l31 -52l-173 -102z" />
    <glyph glyph-name="chuyenhoa" unicode="&#x340;" 
d="M-508 948l178 -97l-29 -52l-177 95z" />
    <glyph glyph-name="chuyenhoa" unicode="&#xf00c;" 
d="M-508 948l178 -97l-29 -52l-177 95z" />
    <glyph glyph-name="csachoa" unicode="&#xf011;" 
d="M-477 901l-45 27q11 40 41 61q36 20 72 16q46 -5 70.5 -30.5t24.5 -62.5q-3 -31 -42 -62q-42 -34 -46 -46h-47q0 29 44 60q34 24 34 45q2 19 -15 34t-38 14q-19 -1 -36 -17.5t-17 -38.5z" />
    <glyph glyph-name="choa" unicode="&#x342;" 
d="M-334 874l23 -40q-35 -35 -72 -35q-25 0 -63 19q-30 15 -45 15q-27 0 -48 -25l-26 44q34 37 78 37q24 0 57 -18t49 -18q17 0 47 21z" />
    <glyph glyph-name="choa" unicode="&#xf030;" 
d="M-334 874l23 -40q-35 -35 -72 -35q-25 0 -63 19q-30 15 -45 15q-27 0 -48 -25l-26 44q34 37 78 37q24 0 57 -18t49 -18q17 0 47 21z" />
    <glyph glyph-name="choa" unicode="&#xf02e;" 
d="M-334 874l23 -40q-35 -35 -72 -35q-25 0 -63 19q-30 15 -45 15q-27 0 -48 -25l-26 44q34 37 78 37q24 0 57 -18t49 -18q17 0 47 21z" />
    <glyph glyph-name="choa" unicode="&#xf01c;" 
d="M-334 874l23 -40q-35 -35 -72 -35q-25 0 -63 19q-30 15 -45 15q-27 0 -48 -25l-26 44q34 37 78 37q24 0 57 -18t49 -18q17 0 47 21z" />
    <glyph glyph-name="choa" unicode="&#xf017;" 
d="M-334 874l23 -40q-35 -35 -72 -35q-25 0 -63 19q-30 15 -45 15q-27 0 -48 -25l-26 44q34 37 78 37q24 0 57 -18t49 -18q17 0 47 21z" />
    <glyph glyph-name="choa" unicode="&#xf016;" 
d="M-334 874l23 -40q-35 -35 -72 -35q-25 0 -63 19q-30 15 -45 15q-27 0 -48 -25l-26 44q34 37 78 37q24 0 57 -18t49 -18q17 0 47 21z" />
    <glyph glyph-name="cnangth" unicode="&#x323;" 
d="M-461 -151v80h66v-80h-66z" />
    <glyph glyph-name="cnangth" unicode="&#xf02b;" 
d="M-461 -151v80h66v-80h-66z" />
    <glyph glyph-name="cnangth" unicode="&#xf029;" 
d="M-461 -151v80h66v-80h-66z" />
    <glyph glyph-name="cnangth" unicode="&#xf022;" 
d="M-461 -151v80h66v-80h-66z" />
    <glyph glyph-name="cnangth" unicode="&#xf021;" 
d="M-461 -151v80h66v-80h-66z" />
    <glyph glyph-name="cnangth" unicode="&#xf020;" 
d="M-461 -151v80h66v-80h-66z" />
    <glyph glyph-name="cnangth" unicode="&#xf01f;" 
d="M-461 -151v80h66v-80h-66z" />
    <glyph glyph-name="cnangth" unicode="&#xf01e;" 
d="M-461 -151v80h66v-80h-66z" />
    <glyph glyph-name="cngath" 
d="M-407 950l172 104l31 -52l-173 -102z" />
    <glyph glyph-name="choith" 
d="M-496 1054l178 -97l-29 -52l-177 95z" />
    <glyph glyph-name="chuyenth" 
d="M-415 1007l-45 27q11 40 41 61q36 20 72 16q46 -5 70.5 -30.5t24.5 -62.5q-3 -31 -42 -62q-42 -34 -46 -46h-47q0 29 44 60q34 24 34 45q2 19 -15 34t-38 14q-19 -1 -36 -17.5t-17 -38.5z" />
    <glyph glyph-name="csacth" 
d="M-272 1000l23 -40q-35 -35 -72 -35q-25 0 -63 19q-30 15 -45 15q-27 0 -48 -25l-26 44q34 37 78 37q24 0 57 -18t49 -18q17 0 47 21z" />
    <glyph glyph-name="cth" unicode="&#xf006;" 
d="M-333 906l172 104l31 -52l-173 -102z" />
    <glyph glyph-name="abngahoa" unicode="&#xf00b;" 
d="M-457 1050l178 -97l-29 -52l-177 95z" />
    <glyph glyph-name="abhoihoa" unicode="&#xf010;" 
d="M-346 953l-45 27q11 40 41 61q36 20 72 16q46 -5 70.5 -30.5t24.5 -62.5q-3 -31 -42 -62q-42 -34 -46 -46h-47q0 29 44 60q34 24 34 45q2 19 -15 34t-38 14q-19 -1 -36 -17.5t-17 -38.5z" />
    <glyph glyph-name="abhuyenhoa" unicode="&#xf015;" 
d="M-333 1011l23 -40q-35 -35 -72 -35q-25 0 -63 19q-30 15 -45 15q-27 0 -48 -25l-26 44q34 37 78 37q24 0 57 -18t49 -18q17 0 47 21z" />
    <glyph glyph-name="abhuyenhoa" unicode="&#xf02f;" 
d="M-333 1011l23 -40q-35 -35 -72 -35q-25 0 -63 19q-30 15 -45 15q-27 0 -48 -25l-26 44q34 37 78 37q24 0 57 -18t49 -18q17 0 47 21z" />
    <glyph glyph-name="abhuyenhoa" unicode="&#xf02d;" 
d="M-333 1011l23 -40q-35 -35 -72 -35q-25 0 -63 19q-30 15 -45 15q-27 0 -48 -25l-26 44q34 37 78 37q24 0 57 -18t49 -18q17 0 47 21z" />
    <glyph glyph-name="absachoa" 
d="M-440 696h58q19 -40 79 -40t79 40h56q-11 -45 -51 -69q-35 -22 -85 -22t-85 22q-40 24 -51 69z" />
    <glyph glyph-name="aangahoa" 
d="M-440 696h58q19 -40 79 -40t79 40h56q-11 -45 -51 -69q-35 -22 -85 -22t-85 22q-40 24 -51 69zM-345 776l172 104l31 -52l-173 -102z" />
    <glyph glyph-name="aahoihoa" 
d="M-440 696h58q19 -40 79 -40t79 40h56q-11 -45 -51 -69q-35 -22 -85 -22t-85 22q-40 24 -51 69zM-429 870l178 -97l-29 -52l-177 95z" />
    <glyph glyph-name="aahuyenhoa" 
d="M-440 696h58q19 -40 79 -40t79 40h56q-11 -45 -51 -69q-35 -22 -85 -22t-85 22q-40 24 -51 69zM-353 828l-45 27q11 40 41 61q36 20 72 16q46 -5 70.5 -30.5t24.5 -62.5q-3 -31 -42 -62q-42 -34 -46 -46h-47q0 29 44 60q34 24 34 45q2 19 -15 34t-38 14q-19 -1 -36 -17.5
t-17 -38.5z" />
    <glyph glyph-name="aasachoa" 
d="M-440 696h58q19 -40 79 -40t79 40h56q-11 -45 -51 -69q-35 -22 -85 -22t-85 22q-40 24 -51 69zM-210 811l23 -40q-35 -35 -72 -35q-25 0 -63 19q-30 15 -45 15q-27 0 -48 -25l-26 44q34 37 78 37q24 0 57 -18t49 -18q17 0 47 21z" />
    <glyph glyph-name="ananghoa" 
d="M-440 696h58q19 -40 79 -40t79 40h56q-11 -45 -51 -69q-35 -22 -85 -22t-85 22q-40 24 -51 69zM-377 -143v80h66v-80h-66z" />
    <glyph glyph-name="angahoa" 
d="M-505 871h58q19 -40 79 -40t79 40h56q-11 -45 -51 -69q-35 -22 -85 -22t-85 22q-40 24 -51 69z" />
    <glyph glyph-name="ahoihoa" 
d="M-505 871h58q19 -40 79 -40t79 40h56q-11 -45 -51 -69q-35 -22 -85 -22t-85 22q-40 24 -51 69zM-410 951l172 104l31 -52l-173 -102z" />
    <glyph glyph-name="ahuyenhoa" 
d="M-505 871h58q19 -40 79 -40t79 40h56q-11 -45 -51 -69q-35 -22 -85 -22t-85 22q-40 24 -51 69zM-494 1045l178 -97l-29 -52l-177 95z" />
    <glyph glyph-name="asachoa" 
d="M-505 871h58q19 -40 79 -40t79 40h56q-11 -45 -51 -69q-35 -22 -85 -22t-85 22q-40 24 -51 69zM-418 1003l-45 27q11 40 41 61q36 20 72 16q46 -5 70.5 -30.5t24.5 -62.5q-3 -31 -42 -62q-42 -34 -46 -46h-47q0 29 44 60q34 24 34 45q2 19 -15 34t-38 14
q-19 -1 -36 -17.5t-17 -38.5z" />
    <glyph glyph-name="abngath" 
d="M-505 871h58q19 -40 79 -40t79 40h56q-11 -45 -51 -69q-35 -22 -85 -22t-85 22q-40 24 -51 69zM-275 986l23 -40q-35 -35 -72 -35q-25 0 -63 19q-30 15 -45 15q-27 0 -48 -25l-26 44q34 37 78 37q24 0 57 -18t49 -18q17 0 47 21z" />
    <glyph glyph-name="abhoith" 
d="M-505 871h58q19 -40 79 -40t79 40h56q-11 -45 -51 -69q-35 -22 -85 -22t-85 22q-40 24 -51 69zM-407 -153v80h66v-80h-66z" />
    <glyph glyph-name="abhuyenth" 
d="M-490 603l131 113h57l130 -113h-81l-78 65l-78 -65h-81z" />
    <glyph glyph-name="absacth" 
d="M-490 603l131 113h57l130 -113h-81l-78 65l-78 -65h-81zM-235 731l172 104l31 -52l-173 -102z" />
    <glyph glyph-name="aangath" 
d="M-490 603l131 113h57l130 -113h-81l-78 65l-78 -65h-81zM-359 880l178 -97l-29 -52l-177 95z" />
    <glyph glyph-name="aahoith" 
d="M-490 603l131 113h57l130 -113h-81l-78 65l-78 -65h-81zM-243 783l-45 27q11 40 41 61q36 20 72 16q46 -5 70.5 -30.5t24.5 -62.5q-3 -31 -42 -62q-42 -34 -46 -46h-47q0 29 44 60q34 24 34 45q2 19 -15 34t-38 14q-19 -1 -36 -17.5t-17 -38.5z" />
    <glyph glyph-name="aahuyenth" 
d="M-490 603l131 113h57l130 -113h-81l-78 65l-78 -65h-81zM-230 836l23 -40q-35 -35 -72 -35q-25 0 -63 19q-30 15 -45 15q-27 0 -48 -25l-26 44q34 37 78 37q24 0 57 -18t49 -18q17 0 47 21z" />
    <glyph glyph-name="aasacth" 
d="M-490 603l131 113h57l130 -113h-81l-78 65l-78 -65h-81zM-372 -156v80h66v-80h-66z" />
    <glyph glyph-name="anangth" 
d="M-600 788l131 113h57l130 -113h-81l-78 65l-78 -65h-81z" />
    <glyph glyph-name="angath" 
d="M-600 788l131 113h57l130 -113h-81l-78 65l-78 -65h-81zM-345 916l172 104l31 -52l-173 -102z" />
    <glyph glyph-name="ahoith" 
d="M-600 788l131 113h57l130 -113h-81l-78 65l-78 -65h-81zM-469 1065l178 -97l-29 -52l-177 95z" />
    <glyph glyph-name="ahuyenth" 
d="M-600 788l131 113h57l130 -113h-81l-78 65l-78 -65h-81zM-353 968l-45 27q11 40 41 61q36 20 72 16q46 -5 70.5 -30.5t24.5 -62.5q-3 -31 -42 -62q-42 -34 -46 -46h-47q0 29 44 60q34 24 34 45q2 19 -15 34t-38 14q-19 -1 -36 -17.5t-17 -38.5z" />
    <glyph glyph-name="asacth" 
d="M-600 788l131 113h57l130 -113h-81l-78 65l-78 -65h-81zM-340 1021l23 -40q-35 -35 -72 -35q-25 0 -63 19q-30 15 -45 15q-27 0 -48 -25l-26 44q34 37 78 37q24 0 57 -18t49 -18q17 0 47 21z" />
    <glyph glyph-name="ab" 
d="M-600 788l131 113h57l130 -113h-81l-78 65l-78 -65h-81zM-472 -141v80h66v-80h-66z" />
    <glyph glyph-name="aa" horiz-adv-x="1" 
d="M-190 854l172 104l31 -52l-173 -102z" />
    <glyph glyph-name="nang" horiz-adv-x="1" 
d="M-193 939l178 -97l-29 -52l-177 95z" />
    <glyph glyph-name="nga" horiz-adv-x="1" 
d="M-163 884l-45 27q11 40 41 61q36 20 72 16q46 -5 70.5 -30.5t24.5 -62.5q-3 -31 -42 -62q-42 -34 -46 -46h-47q0 29 44 60q34 24 34 45q2 19 -15 34t-38 14q-19 -1 -36 -17.5t-17 -38.5z" />
    <glyph glyph-name="hoi" horiz-adv-x="1" 
d="M-5 870l23 -40q-35 -35 -72 -35q-25 0 -63 19q-30 15 -45 15q-27 0 -48 -25l-26 44q34 37 78 37q24 0 57 -18t49 -18q17 0 47 21z" />
    <glyph glyph-name="huyen" horiz-adv-x="1" 
d="M-150 -139v80h66v-80h-66z" />
  </font>
</defs>
</svg>
