<?xml version="1.0" standalone="no"?> <!DOCTYPE svg PUBLIC "-//W3C//DTD SVG 1.0//EN" "http://www.w3.org/TR/2001/REC-SVG-20010904/DTD/svg10.dtd" > <svg xmlns="http://www.w3.org/2000/svg" width="100%" height="100%">
<defs >
<font id="ciderscriptwebfont" horiz-adv-x="552" ><font-face
    font-family="UOSM Lobster 1.4"
    units-per-em="1000"
    panose-1="2 0 5 6 0 0 0 2 0 3"
    ascent="1160"
    descent="-250"
    alphabetic="0" />
<missing-glyph horiz-adv-x="385" />
<glyph unicode=" " glyph-name="space" horiz-adv-x="217" />
<glyph unicode="!" glyph-name="exclam" horiz-adv-x="257" d="M98 231L169 700H313L183 231H98ZM193 80Q193 47 170 24T114 0Q81 0 58 23T34 80Q34 113 57 136T114 159Q147 159 170 136T193 80Z" />
<glyph unicode="&quot;" glyph-name="quotedbl" horiz-adv-x="420" d="M123 750H228L137 561H62L123 750ZM280 750H385L294 561H219L280 750Z" />
<glyph unicode="#" glyph-name="numbersign" horiz-adv-x="659" d="M332 111H214L184 -27H127L152 111H45L66 213H170L191 326H89L110 428H209L261 718H349L284 428H389L441 718H529L464 428H568L548 326H442L417 213H524L504 111H394L364 -27H307L332 111ZM237
213H350L371 326H262L237 213Z" />
<glyph unicode="$" glyph-name="dollar" horiz-adv-x="403" d="M134 108Q88 112 56 137T24 222Q24 261 45 284T96 308Q117 308 128 301T139 283Q118 279 109 259T99 209Q99 187 111 172T141 148L177 344Q159 359 140 373T106 403T81 438T71 481Q71 509 84 532T120
573T169 600T225 612L244 718H302L277 609Q293 606 308 601T336 586T356 562T364 526Q364 491 352 471T316 450Q304 450 296 455T277 473Q290 481 295 495T301 525Q301 536 294 549T269 569L233 408Q252 396 272 382T308 350T335 309T346 255Q346 219 333 192T295
146T238 118T166 107L137 -27H110L134 108ZM241 234Q241 257 233 275T212 310L175 144Q211 149 226 175T241 234ZM166 500Q166 481 173 467T194 439L218 574Q189 568 178 546T166 500Z" />
<glyph unicode="%" glyph-name="percent" horiz-adv-x="644" d="M193 0H121L507 750H579L193 0ZM269 702Q313 702 332 673T351 589Q351 557 342 520T313 450T267 396T203 374Q174 374 155 381T126 404T111 440T107 488Q107 532 118 571T150 639T201 685T269 702ZM181
519Q180 510 180 499T179 476Q179 452 184 432T206 411Q226 411 241 427T268 469T285 531T291 604Q291 630 287 648T266 667Q255 667 242 658T216 630T194 583T181 519ZM517 328Q561 328 585 299T609 215Q609 183 601 146T574 76T525 22T451 0Q422 0 403 7T374
30T359 66T355 114Q355 158 366 197T398 265T449 311T517 328ZM424 145Q423 136 423 125T422 102Q422 78 427 58T449 37Q469 37 484 52T509 92T525 151T531 223Q531 249 525 270T503 291Q492 291 480 282T456 255T436 209T424 145Z" />
<glyph unicode="&amp;" glyph-name="ampersand" horiz-adv-x="682" d="M682 413Q682 392 670 370T637 328T589 294T530 274Q501 171 463 115T382 31T298 -1T218 -6Q166 -6 128 11T63 56T24 121T11 196Q11 232 22 267T56 333T113 385T192 417Q141 445 117 485T93
569Q93 603 107 635T150 693T220 734T315 750Q350 750 383 743T442 719T483 678T499 616Q499 576 483 550T429 524Q417 524 402 528T372 550Q381 553 389 562T403 584T412 610T416 632Q416 638 415 650T407 675T388 696T350 706Q323 706 301 696T262 670T237 631T228
583Q228 539 258 495T360 418Q312 398 279 374T226 324T196 271T186 217Q186 190 195 166T220 123T257 95T303 84Q329 84 356 93T407 123T452 181T484 272Q465 274 448 276T413 278Q347 278 319 233L312 234Q327 296 377 335T505 375Q526 375 544 373T581 370Q609
370 636 380T676 413H682Z" />
<glyph unicode="&apos;" glyph-name="quotesingle" horiz-adv-x="268" d="M163 750H268L177 561H102L163 750Z" />
<glyph unicode="(" glyph-name="parenleft" horiz-adv-x="437" d="M477 710Q440 691 406 655T342 570T288 462T247 338T221 206T211 73Q211 -13 228 -88T284 -221L251 -250Q192 -185 165 -94T138 100Q138 198 161 298T226 487T329 645T464 750L477 710Z" />
<glyph unicode=")" glyph-name="parenright" horiz-adv-x="413" d="M-29 -210Q27 -182 75 -116T160 38T216 227T237 427Q237 512 220 588T164 721L197 750Q256 685 283 594T310 400Q310 302 287 202T222 13T119 -145T-16 -250L-29 -210Z" />
<glyph unicode="*" glyph-name="asterisk" horiz-adv-x="515" d="M287 752V617L394 679L424 627L315 564L424 501L394 449L287 511V376H223V511L116 449L86 501L195 564L86 627L116 679L223 617V752H287Z" />
<glyph unicode="+" glyph-name="plus" horiz-adv-x="515" d="M318 317H445L422 205H294L267 82H154L181 205H53L77 317H205L232 439H345L318 317Z" />
<glyph unicode="," glyph-name="comma" horiz-adv-x="216" d="M24 75Q24 108 47 131T103 155Q136 155 153 134T171 79Q171 56 162 30T137 -24T96 -78T41 -126Q32 -120 32 -109Q32 -96 40 -85T58 -64T76 -43T84 -18Q84 -7 71 2Q51 15 38 32T24 75Z" />
<glyph unicode="-" glyph-name="hyphen" horiz-adv-x="290" d="M220 222H19L37 301H237L220 222Z" />
<glyph unicode="." glyph-name="period" horiz-adv-x="263" d="M31 75Q31 108 54 131T110 155Q143 155 166 132T190 75Q190 42 167 19T110 -4Q77 -4 54 19T31 75Z" />
<glyph unicode="/" glyph-name="slash" horiz-adv-x="311" d="M83 -250H11L223 750H295L83 -250Z" />
<glyph unicode="0" glyph-name="zero" horiz-adv-x="546" d="M377 750Q471 750 513 683T555 489Q555 439 546 383T518 272T473 166T411 76T332 14T237 -9Q172 -9 132 8T69 60T38 143T30 254Q30 356 54 446T123 604T232 711T377 750ZM188 325Q186 305 185 280T183
226Q183 198 185 171T194 123T212 88T242 75Q285 75 318 117T375 227T411 380T424 553Q424 584 422 610T415 656T399 687T370 698Q347 698 319 672T263 596T215 478T188 325Z" />
<glyph unicode="1" glyph-name="one" horiz-adv-x="317" d="M165 0H21L153 624H58L70 670Q91 670 116 672T172 682T241 705T324 748L165 0Z" />
<glyph unicode="2" glyph-name="two" horiz-adv-x="492" d="M111 132Q155 132 200 123T302 114Q328 114 345 118T377 132T405 153T436 183Q437 171 437 161T437 139Q437 102 433 74T415 27T379 -1T318 -11Q277 -11 248 -6T192 7T137 19T70 25Q61 25 51 22T30 14T9
5T-9 -3Q-11 5 -11 13T-11 30Q-11 85 13 131T74 219T153 304T232 392T293 492T318 613Q318 650 299 672T257 695Q232 695 216 690T191 674T179 648T176 614Q176 605 178 595T184 575T196 557T214 546Q176 512 138 512Q107 512 87 535T66 602Q66 627 77 653T112
701T176 735T272 749Q323 749 359 738T418 705T451 654T462 588Q462 532 442 486T389 401T316 327T236 261T162 198T106 132H111V132Z" />
<glyph unicode="3" glyph-name="three" horiz-adv-x="514" d="M205 257Q176 255 159 244T132 216T120 182T117 149Q117 120 123 103T141 76T165 63T193 60Q225 60 251 74T295 111T322 165T332 229Q332 257 325 285T301 339T259 385T199 418Q241 430 273 452T326
501T359 557T370 613Q370 648 351 671T294 695Q258 695 237 674T215 617Q215 597 223 575T253 546Q234 529 215 521T177 512Q147 512 126 534T105 597Q105 631 121 659T165 707T230 738T312 749Q358 749 393 737T451 705T486 659T498 603Q498 553 464 503T361 417Q427
395 457 351T487 252Q487 207 467 161T410 78T321 18T205 -5Q183 -5 150 0T84 22T29 73T6 165Q6 228 36 268T127 308Q155 308 177 297T205 257Z" />
<glyph unicode="4" glyph-name="four" horiz-adv-x="476" d="M8 275Q21 316 45 365T94 469T136 579T154 690Q154 722 147 750Q169 750 189 744T224 726T249 697T258 655Q258 607 243 567T205 490T157 419T112 349H268L349 730L497 750L411 349H475L455 275H395L337
0H193L252 275H8Z" />
<glyph unicode="5" glyph-name="five" horiz-adv-x="517" d="M500 749Q501 741 501 733T502 716Q502 692 496 671T477 634T441 609T387 600Q367 600 344 603T299 610T256 619T220 625L180 444Q215 461 246 468T305 475Q350 475 383 459T438 414T470 348T481 268Q481
216 465 167T413 80T322 18T191 -5Q162 -5 131 0T74 20T32 64T15 139Q15 178 27 205T57 249T99 273T145 281Q206 281 216 230Q177 225 152 202T126 134Q126 112 133 98T153 76T179 65T208 62Q239 62 263 78T303 121T327 180T335 246Q335 318 306 354T225 391Q184
391 145 372T76 335L158 734Q211 728 253 723T338 717Q376 717 415 724T500 749Z" />
<glyph unicode="6" glyph-name="six" horiz-adv-x="497" d="M225 305Q205 334 205 363Q205 385 216 403T247 434T291 455T346 463Q382 463 407 448T449 410T473 357T481 298Q481 233 459 178T400 82T314 18T211 -5Q151 -5 113 11T54 54T24 117T16 193Q16 202 16
211T17 230Q24 343 49 438T119 603T227 711T374 750Q402 750 423 743T459 724T481 697T489 667Q489 642 468 622T400 600Q416 615 416 636Q416 656 402 673T366 690Q360 690 345 687T310 671T268 630T223 555T183 435T154 258Q152 235 151 217T149 182Q149 145
155 124T171 91T196 76T229 73Q253 73 277 91T321 138T353 206T366 284Q366 299 364 316T356 348T340 371T313 381Q285 381 264 361T225 305Z" />
<glyph unicode="7" glyph-name="seven" horiz-adv-x="464" d="M512 750Q499 731 474 692T417 605T353 503T290 403T240 318T211 265Q179 192 179 136Q179 106 190 84T228 39Q219 15 194 8T136 0Q113 0 95 5T62 24T41 62T33 125Q33 186 58 249T127 379T228 515T348
657Q304 663 263 663Q197 663 144 647T56 592Q48 626 48 650Q48 699 79 724T184 750H512V750Z" />
<glyph unicode="8" glyph-name="eight" horiz-adv-x="499" d="M208 67Q233 67 254 81T291 118T314 172T323 235Q323 276 308 315T260 383Q229 362 206 335T168 279T145 220T137 163Q137 121 155 94T208 67ZM203 -5Q152 -5 113 12T46 57T6 121T-8 196Q-8 230 3
264T36 328T92 381T172 417Q127 443 107 478T87 553Q87 589 103 624T149 687T219 732T310 749Q357 749 392 738T451 706T487 660T499 604Q499 553 464 502T359 417Q423 397 451 355T480 261Q480 215 460 168T402 83T314 20T203 -5ZM271 451Q296 467 315 489T346
536T365 585T372 631Q372 661 360 681T323 701Q298 701 279 690T246 661T225 619T218 570Q218 537 231 506T271 451Z" />
<glyph unicode="9" glyph-name="nine" horiz-adv-x="489" d="M288 424Q309 398 309 374Q309 355 299 339T270 310T228 290T175 282Q137 282 111 298T67 339T42 396T34 457Q34 519 54 572T109 665T191 727T293 750Q351 750 388 731T447 680T477 605T486 515Q486
402 463 307T396 142T289 34T147 -5Q118 -5 96 3T59 25T37 56T29 90Q29 105 32 118T45 141T71 158T115 164Q101 150 101 130Q101 109 116 92T154 74Q161 74 177 76T213 90T257 127T300 198T337 314T361 487Q362 501 362 514T363 539Q363 585 357 613T339 658T311
679T275 684Q251 684 228 665T187 615T159 545T148 467Q148 451 150 433T159 400T176 374T204 364Q232 364 253 376T288 424Z" />
<glyph unicode=":" glyph-name="colon" horiz-adv-x="267" d="M41 135Q41 168 64 191T120 215Q153 215 176 192T200 135Q200 102 177 79T120 56Q87 56 64 79T41 135ZM91 375Q91 408 114 431T170 455Q203 455 226 432T250 375Q250 342 227 319T170 296Q137 296
114 319T91 375Z" />
<glyph unicode=";" glyph-name="semicolon" horiz-adv-x="276" d="M94 331Q94 364 117 387T173 411Q206 411 229 388T253 331Q253 298 230 275T173 252Q140 252 117 275T94 331ZM46 91Q46 124 69 147T125 171Q158 171 175 150T193 95Q193 72 184 46T159 -8T118
-62T63 -110Q54 -104 54 -93Q54 -80 62 -69T80 -48T98 -27T106 -2Q106 9 93 18Q73 31 60 48T46 91Z" />
<glyph unicode="&lt;" glyph-name="less" horiz-adv-x="359" d="M326 374L85 254L279 158L267 101L20 238L29 279L336 429L326 374Z" />
<glyph unicode="=" glyph-name="equal" horiz-adv-x="515" d="M445 316H76L100 428H468L445 316ZM401 101H32L56 213H424L401 101Z" />
<glyph unicode="&gt;" glyph-name="greater" horiz-adv-x="344" d="M84 429L330 279L319 225L15 101L29 158L269 254L75 374L84 429Z" />
<glyph unicode="?" glyph-name="question" horiz-adv-x="441" d="M425 579Q425 531 411 497T374 437T324 389T269 346T220 296T185 232H119Q119 267 132 296T166 350T210 400T254 451T287 508T301 577Q301 614 285 630T246 646Q232 646 218 640T192 623T173 597T166
563Q166 554 168 544T174 525T186 508T204 497Q191 476 172 466T131 455Q102 455 79 476T55 539Q55 564 66 592T103 645T168 684T265 700Q316 700 347 691T396 665T419 626T425 579ZM207 80Q207 47 184 24T128 0Q95 0 72 23T48 80Q48 113 71 136T128 159Q161 159
184 136T207 80Z" />
<glyph unicode="@" glyph-name="at" horiz-adv-x="562" d="M195 -38Q148 -38 111 -28T47 5T6 67T-8 164Q-8 246 19 317T92 442T201 526T333 557Q356 557 383 552T435 531T475 483T491 400Q491 351 477 304T438 220T384 159T321 136Q304 136 294 142T277 159Q267
145 252 133T218 120Q185 120 170 138T154 189Q154 206 158 230T169 282T188 336T214 384T247 418T286 432Q300 432 309 427T324 414L328 430L383 424L338 232Q336 226 335 220T334 209Q334 190 347 190Q362 190 376 217T400 281T417 355T424 414Q424 427 421 441T408
467T381 485T336 493Q281 493 238 464T164 389T118 285T102 170Q102 140 107 118T126 81T163 59T224 52Q280 52 314 68T374 118Q388 112 392 99T397 73Q397 49 383 29T343 -6T280 -29T195 -38ZM316 382Q309 390 298 390Q276 390 261 368T237 317T223 257T219 212Q219
181 237 181Q244 181 252 185T270 195Q270 205 273 216L316 382Z" />
<glyph unicode="A" glyph-name="A" horiz-adv-x="668" d="M391 0L468 363Q430 380 399 388T334 399Q306 338 282 274T241 149T214 35T204 -58Q204 -82 208 -94T218 -114Q198 -114 175 -112T131 -100T98 -69T84 -8Q84 26 94 72T124 171T171 283T231 399Q184 396
154 385T114 347Q118 347 122 337T127 316Q127 298 111 288T71 277Q45 277 27 291T9 335Q9 360 24 382T67 422T131 448T213 458Q233 458 265 455Q303 515 345 568T433 662T523 726T613 750Q630 750 652 747T692 736L535 0H391ZM535 679Q490 655 444 591T355 442Q385
436 416 428T477 407L535 679Z" />
<glyph unicode="B" glyph-name="B" horiz-adv-x="635" d="M378 656L331 434H337Q367 434 393 449T438 487T469 539T481 596Q481 617 474 636T451 671T410 695T349 704Q305 704 261 689T180 644T122 569T99 461Q99 442 101 430T105 411T110 400T113 393Q63 393
35 413T6 485Q6 537 36 584T116 669T232 728T369 750Q424 750 464 737T530 701T569 651T582 591Q582 546 557 503T482 432Q514 426 536 411T573 374T593 326T600 271Q600 235 590 186T554 91T486 15T381 -17Q365 -17 348 -14T316 -3T292 19T282 57Q282 82 295 115Q314
95 329 87T362 79Q389 79 408 96T439 140T456 198T461 259Q461 285 457 308T441 348T412 376T366 386Q360 386 347 386T320 383L238 0H94L230 636L378 656Z" />
<glyph unicode="C" glyph-name="C" horiz-adv-x="497" d="M523 170Q503 120 469 85T395 27T314 -6T238 -16Q182 -16 141 -3T73 39T33 115T19 230Q19 275 26 331T51 445T95 558T161 655T251 724T368 750Q403 750 433 743T486 719T522 678T535 616Q535 576 519 550T465
524Q453 524 438 528T408 550Q426 559 440 586T454 642Q454 666 441 684T393 703Q365 703 339 683T290 627T248 546T215 448T193 342T185 236Q185 201 190 173T208 124T245 92T305 80Q364 80 414 106T500 180L523 170Z" />
<glyph unicode="D" glyph-name="D" horiz-adv-x="663" d="M378 656L258 95Q285 75 315 75Q360 75 395 115T455 219T493 361T507 515Q507 566 497 602T467 660T421 693T361 704Q305 704 257 688T174 640T119 563T99 461Q99 442 101 430T105 411T110 400T113 393Q63
393 35 414T6 486Q6 537 35 585T116 669T234 728T378 750Q451 750 501 727T584 664T630 572T645 462Q645 376 623 291T562 139T474 29T368 -13Q339 -13 309 -1T246 40L238 0H94L230 636L378 656Z" />
<glyph unicode="E" glyph-name="E" horiz-adv-x="459" d="M484 170Q464 126 433 91T363 32T280 -5T191 -18Q143 -18 108 -4T51 35T18 91T7 158Q7 197 19 238T56 316T114 379T192 417Q160 440 146 471T131 537Q131 576 147 614T192 683T262 733T350 752Q380 752
406 744T451 720T482 681T493 627Q493 582 471 553T419 523Q392 523 372 550Q381 553 389 562T403 583T412 610T416 637Q416 668 399 680T361 693Q339 693 320 681T288 649T267 604T259 552Q259 530 264 509T282 470T314 439T360 418Q320 409 287 384T231 324T194
252T181 179Q181 137 203 108T276 78Q299 78 325 84T377 104T425 136T461 180L484 170Z" />
<glyph unicode="F" glyph-name="F" horiz-adv-x="459" d="M475 450L459 376H313L232 0H88L232 668Q203 667 179 657T138 624T112 561T102 461Q102 442 104 430T108 411T113 400T116 393Q64 393 37 414T9 490Q9 540 27 587T87 670T192 728T350 750Q380 750 424
744T516 738Q539 738 562 740T606 750Q601 734 597 716T583 681T557 650T511 630Q476 630 441 635T371 649L329 450H475Z" />
<glyph unicode="G" glyph-name="G" horiz-adv-x="578" d="M546 418L464 42Q452 -15 434 -61T386 -140T313 -189T208 -207Q172 -207 146 -195T103 -164T78 -120T69 -69Q69 -44 77 -19T100 25T138 56T191 68Q206 68 223 67T255 59T279 39T289 1Q289 -17 283 -39Q264
-23 251 -18T223 -13Q188 -13 171 -37T153 -89Q153 -115 168 -136T216 -157Q233 -157 247 -153T274 -135T297 -97T316 -34L356 145Q334 133 314 126T277 116T249 111T234 109Q173 109 132 129T65 185T30 266T19 365Q19 437 43 506T112 629T223 716T373 750Q408
750 441 743T501 719T543 678T559 616Q559 576 543 550T489 524Q483 524 474 525T456 529T437 537T420 550Q429 553 437 562T451 584T460 610T464 632Q464 638 462 650T454 673T433 694T395 703Q354 703 314 672T243 590T192 479T173 357Q173 324 179 294T200 242T236
206T289 192Q317 192 337 200T374 229L417 419L546 418Z" />
<glyph unicode="H" glyph-name="H" horiz-adv-x="665" d="M339 450H486L550 748H694L535 0H391L471 376H324L244 0H100L245 680Q179 652 142 597T105 461Q105 442 107 430T111 411T116 400T119 393Q67 393 40 414T12 490Q12 540 43 587T125 670T237 728T363 750Q374
750 383 750T403 748L339 450Z" />
<glyph unicode="I" glyph-name="I" horiz-adv-x="375" d="M238 0H94L239 679Q173 652 136 597T99 461Q99 442 101 430T105 411T110 400T113 393Q61 393 34 414T6 490Q6 540 37 587T119 670T231 728T357 750Q368 750 377 750T397 748L238 0Z" />
<glyph unicode="J" glyph-name="J" horiz-adv-x="536" d="M578 750L428 40Q416 -17 397 -63T346 -141T271 -190T165 -207Q93 -207 55 -168T17 -66Q17 -41 25 -17T48 26T86 56T139 68Q154 68 171 67T203 59T227 39T237 1Q237 -17 231 -39Q212 -23 199 -18T171 -13Q136
-13 119 -36T101 -87Q101 -107 107 -120T124 -141T146 -153T169 -157Q186 -157 199 -153T224 -135T245 -97T264 -34L421 680Q355 653 318 598T280 461Q280 442 282 430T286 411T291 400T294 393Q242 393 215 414T187 490Q187 540 218 587T300 670T412 728T538 750H578Z"
/>
<glyph unicode="K" glyph-name="K" horiz-adv-x="601" d="M332 442Q348 463 371 494T419 559T469 626T514 686T546 729T559 745H664L386 425Q396 425 404 425T421 426Q457 426 481 418T519 396T539 362T545 319Q545 288 538 254T521 186T504 121T496 66Q496 43
506 25T535 0Q503 -9 479 -13T436 -17Q412 -17 397 -11T373 4T361 26T358 50Q358 75 366 108T384 178T402 249T411 313Q411 343 398 362T351 381Q344 381 336 380T318 377L238 0H94L239 680Q173 652 136 597T99 461Q99 442 101 430T105 411T110 400T113 393Q61
393 34 414T6 490Q6 540 37 587T119 670T231 728T357 750Q368 750 377 750T397 748L332 442Z" />
<glyph unicode="L" glyph-name="L" horiz-adv-x="379" d="M243 20Q282 11 321 -10T402 -53T487 -92T579 -109Q599 -109 620 -106T663 -93Q655 -165 628 -207T559 -250Q523 -250 489 -233T419 -191T349 -137T276 -82T198 -40T113 -23Q107 -23 102 -23T90 -24L239
669Q173 642 136 587T99 451Q99 432 101 420T105 401T110 390T113 383Q61 383 34 404T6 480Q6 530 37 577T119 660T231 718T357 740Q368 740 377 740T397 738L243 20Z" />
<glyph unicode="M" glyph-name="M" horiz-adv-x="787" d="M555 0L619 449L431 0H294L314 451L147 0H67L321 687Q246 662 204 605T162 462Q162 442 164 430T168 411T173 400T176 393Q127 393 98 413T69 484Q69 532 97 579T171 665T273 726T387 750Q426 750 463
736L440 209L660 736H804L699 0H555Z" />
<glyph unicode="N" glyph-name="N" horiz-adv-x="668" d="M714 748L555 0H434L349 523L238 0H94L238 679Q172 652 136 597T99 461Q99 442 101 430T105 411T110 400T113 393Q61 393 34 414T6 490Q6 533 26 579T83 663T172 725T289 750Q312 750 336 749T382 736L461
206L570 748H714Z" />
<glyph unicode="O" glyph-name="O" horiz-adv-x="665" d="M431 656Q408 642 387 613T346 545T310 461T281 368T263 275T256 191Q256 140 269 108T314 75Q339 75 364 94T413 147T456 226T491 321T514 425T523 529Q523 572 518 605T499 660T459 693T395 704Q338
704 286 686T194 635T131 555T107 447Q107 418 112 409T117 393Q69 393 43 412T16 477Q16 529 49 578T138 666T267 727T419 750Q485 750 530 731T603 678T643 597T656 494Q656 446 647 390T619 279T570 172T499 81T405 18T287 -6Q248 -6 215 5T158 40T121 102T108
195Q108 235 115 285T138 388T176 490T229 578T296 640T379 664Q392 664 404 663T431 656Z" />
<glyph unicode="P" glyph-name="P" horiz-adv-x="573" d="M378 656L307 322Q345 325 377 349T432 408T469 485T482 568Q482 596 475 620T453 663T415 693T358 704Q236 704 168 640T99 461Q99 442 101 430T105 411T110 400T113 393Q61 393 34 414T6 490Q6 540 37
587T119 670T231 728T357 750Q418 750 463 734T536 690T579 628T593 553Q593 505 573 458T516 372T425 309T304 285H299L238 0H94L230 636L378 656Z" />
<glyph unicode="Q" glyph-name="Q" horiz-adv-x="665" d="M431 656Q408 642 387 613T346 545T310 461T281 368T263 275T256 191Q256 179 256 169T258 148Q294 157 320 157Q346 157 365 150T400 130Q425 162 447 208T487 307T513 418T523 529Q523 572 518 605T499
660T459 693T395 704Q338 704 286 686T194 635T131 555T107 447Q107 418 112 409T117 393Q69 393 43 412T16 477Q16 529 49 578T138 666T267 727T419 750Q485 750 530 731T603 678T643 597T656 494Q656 441 645 380T611 258T551 143T465 52Q476 36 488 22T515 -4T548
-22T590 -29Q595 -29 600 -29T612 -27Q592 -79 567 -96T509 -113Q476 -113 454 -103T418 -75T396 -36T380 8Q336 -6 287 -6Q248 -6 215 5T158 40T121 102T108 195Q108 235 115 285T138 388T176 490T229 578T296 640T379 664Q392 664 404 663T431 656ZM314 75Q323
75 333 77T352 86Q343 101 330 110T295 120Q281 120 266 116Q280 75 314 75Z" />
<glyph unicode="R" glyph-name="R" horiz-adv-x="601" d="M378 656L329 425H337Q368 425 394 441T439 483T468 539T479 599Q479 620 473 639T454 672T419 695T369 704Q308 704 259 688T174 640T119 563T99 461Q99 442 101 430T105 411T110 400T113 393Q61 393
34 414T6 490Q6 540 37 587T119 670T231 728T357 750Q416 750 459 737T529 701T570 650T584 590Q584 544 556 497T476 419Q516 408 530 381T545 319Q545 288 538 254T521 186T504 121T496 66Q496 43 506 25T535 0Q503 -9 479 -13T436 -17Q412 -17 397 -11T373 4T361
26T358 50Q358 75 366 108T384 178T402 249T411 313Q411 343 398 362T351 381Q344 381 336 380T318 377L238 0H94L230 636L378 656Z" />
<glyph unicode="S" glyph-name="S" horiz-adv-x="570" d="M544 630Q544 586 522 558T462 529Q434 529 416 550Q436 562 448 586T461 636Q461 662 445 682T387 703Q345 703 320 680T295 612Q295 575 311 548T353 496T407 447T462 392T503 322T520 229Q520 166 497
119T434 41T344 -5T239 -21Q196 -21 158 -12T90 19T44 72T27 151Q27 191 40 222T74 273T121 304T174 315Q187 315 202 312T230 302T252 281T262 249Q242 249 221 244T183 228T156 199T145 155Q145 136 151 119T169 89T199 67T241 59Q292 59 324 94T357 192Q357
235 342 269T304 333T255 390T205 445T167 503T152 571Q152 610 170 643T219 699T292 736T383 750Q401 750 428 747T481 731T525 695T544 630Z" />
<glyph unicode="T" glyph-name="T" horiz-adv-x="481" d="M594 620Q557 620 519 626T439 642L301 0H157L299 662H287Q247 662 213 653T154 622T114 560T99 460Q99 441 101 429T105 410T110 399T113 392Q61 392 34 413T6 489Q6 539 24 586T84 669T189 727T347 749Q392
749 424 746T483 738T538 730T603 726Q638 726 668 732T719 747Q717 681 686 651T594 620Z" />
<glyph unicode="U" glyph-name="U" horiz-adv-x="716" d="M761 748L695 436Q671 322 646 239T582 101T488 20T348 -7Q294 -7 257 3T198 34T165 84T155 152Q155 227 180 329T237 560L270 692Q188 670 141 612T93 462Q93 442 95 430T99 411T104 400T107 393Q57 393
29 413T0 485Q0 538 32 586T116 670T237 728T378 750Q391 750 400 749T426 745Q391 616 366 524T324 366T299 256T291 181Q291 138 306 115T360 91Q381 91 399 94T432 108T462 142T490 203T520 299T553 439L620 748H761Z" />
<glyph unicode="V" glyph-name="V" horiz-adv-x="615" d="M406 133L616 745H686L408 0H256V683Q174 657 137 601T99 461Q99 442 101 430T105 411T110 400T113 393Q61 393 34 414T6 490Q6 540 37 587T119 670T231 728T357 750Q368 750 377 750T397 748L406 133Z" />
<glyph unicode="W" glyph-name="W" horiz-adv-x="962" d="M406 133L616 745H747V133L962 745H1032L754 0H606V509L408 0H261V683Q179 657 139 601T99 461Q99 442 101 430T105 411T110 400T113 393Q61 393 34 414T6 490Q6 540 37 587T119 670T231 728T357 750Q368
750 377 750T397 748L406 133Z" />
<glyph unicode="X" glyph-name="X" horiz-adv-x="620" d="M393 0L340 250L195 0H134L322 332L248 683Q178 657 139 601T99 461Q99 442 101 430T105 411T110 400T113 393Q61 393 34 414T6 490Q6 540 37 587T119 670T231 728T357 750Q368 750 377 750T397 748L440
540L556 745H626L458 454L552 0H393Z" />
<glyph unicode="Y" glyph-name="Y" horiz-adv-x="620" d="M278 0L344 308L248 683Q178 657 139 601T99 461Q99 442 101 430T105 411T110 400T113 393Q61 393 34 414T6 490Q6 540 37 587T119 670T231 728T357 750Q368 750 377 750T397 748L484 390L632 745H698L504
308L438 0H278Z" />
<glyph unicode="Z" glyph-name="Z" horiz-adv-x="542" d="M407 85Q402 85 396 91T389 116Q389 132 394 143T409 161T428 171T449 174Q477 174 488 156T500 116Q500 97 491 77T466 39T426 11T372 0H11L361 696Q345 696 321 697T271 698Q253 698 237 697T208 694T187
687T179 676Q184 676 190 669T196 644Q196 627 190 617T176 599T157 590T137 587Q108 587 97 606T86 646Q86 665 94 683T117 717T156 741T209 750H552L207 65Q227 65 252 64T303 63Q338 63 367 67T407 85Z" />
<glyph unicode="[" glyph-name="bracketleft" horiz-adv-x="400" d="M169 -250H-24L188 750H381L368 688H247L61 -188H182L169 -250Z" />
<glyph unicode="\" glyph-name="backslash" horiz-adv-x="362" d="M42 750H114L326 -250H254L42 750Z" />
<glyph unicode="]" glyph-name="bracketright" horiz-adv-x="400" d="M188 750H381L169 -250H-24L-11 -188H110L296 688H175L188 750Z" />
<glyph unicode="^" glyph-name="asciicircum" horiz-adv-x="421" d="M311 561L251 641L94 561H50L262 750H283L343 561H311Z" />
<glyph unicode="_" glyph-name="underscore" horiz-adv-x="444" d="M387 0H36L54 79H404L387 0Z" />
<glyph unicode="`" glyph-name="grave" horiz-adv-x="201" d="M24 750H129L158 561H83L24 750Z" />
<glyph unicode="a" glyph-name="a" horiz-adv-x="526" d="M480 500L408 160Q404 143 404 128Q404 85 445 85Q474 85 494 113T526 179H568Q547 118 521 82T467 26T413 0T367 -6Q325 -6 300 17T269 86Q257 69 243 53T210 23T169 2T120 -6Q94 -6 71 2T28 30T-2 79T-13
155Q-13 189 -6 228T15 306T50 381T100 444T164 488T244 505Q287 505 306 491T325 454V447L336 500H480ZM275 443Q243 443 217 414T173 342T145 252T135 169Q135 140 140 125T153 102T169 93T185 91Q196 91 208 96T233 113T254 140T268 179L316 405Q316 414 308
428T275 443Z" />
<glyph unicode="b" glyph-name="b" horiz-adv-x="444" d="M107 680L255 700L207 475Q238 494 256 498T289 503Q315 503 337 494T374 465T398 413T407 332Q407 303 402 267T383 193T350 119T299 56T227 11T133 -6Q64 -6 29 28T-7 122Q-7 150 0 179L107 680ZM306
336Q306 354 303 371T293 402T276 424T253 432Q248 432 240 431T223 428T206 423T194 414L139 160Q136 148 136 137Q136 91 189 91Q213 91 234 114T272 174T297 253T306 336Z" />
<glyph unicode="c" glyph-name="c" horiz-adv-x="384" d="M279 356Q291 389 291 415Q291 434 284 445T263 456Q247 456 232 442T202 405T176 351T154 288T140 223T135 162Q135 111 153 95T207 78Q237 78 261 86T306 107T346 139T384 179H418Q397 144 370 111T309
52T234 10T143 -6Q72 -6 30 31T-13 153Q-13 182 -7 219T12 296T45 374T96 442T165 490T256 509Q289 509 310 501T344 480T362 451T367 417Q367 380 352 362T314 344Q297 344 279 356Z" />
<glyph unicode="d" glyph-name="d" horiz-adv-x="525" d="M522 700L407 160Q403 143 403 128Q403 107 413 99T444 91Q473 91 493 116T525 179H567Q546 118 520 83T466 29T412 5T366 0Q325 0 300 22T268 86Q257 69 243 53T210 23T169 2T120 -6Q94 -6 71 2T28 30T-2
79T-13 155Q-13 189 -6 228T15 306T50 381T100 444T164 488T244 505Q287 505 306 491T325 454V450L374 680L522 700ZM267 179L316 408Q314 417 306 430T275 443Q243 443 217 414T173 342T145 252T135 169Q135 140 140 125T153 102T169 93T185 91Q206 91 231 111T267
174V179Z" />
<glyph unicode="e" glyph-name="e" horiz-adv-x="384" d="M135 162Q135 111 153 95T207 78Q237 78 261 86T306 107T346 139T384 179H418Q397 144 370 111T309 52T234 10T143 -6Q72 -6 30 31T-13 153Q-13 182 -7 219T11 296T45 374T96 442T166 490T257 509Q290
509 311 501T345 480T362 449T367 413Q367 370 348 333T297 267T224 222T137 202Q136 191 136 181T135 162ZM290 415Q290 434 285 445T265 456Q246 456 228 438T194 390T165 324T145 250Q174 252 200 266T246 303T278 355T290 415Z" />
<glyph unicode="f" glyph-name="f" horiz-adv-x="267" d="M335 600Q336 608 336 614T337 627Q337 644 326 652T299 661Q291 661 281 658T261 645T243 620T229 579L212 500H285L278 460H204L89 -80Q78 -134 58 -167T13 -218T-38 -243T-90 -250Q-113 -250 -134 -243T-171
-221T-198 -186T-208 -142Q-208 -108 -195 -84T-158 -44T-103 -15T-36 8L85 579Q96 633 116 666T162 717T215 742T267 749Q290 749 311 742T348 720T375 685T385 641Q385 618 382 600H335ZM-153 -128Q-153 -139 -142 -150T-113 -161Q-97 -161 -82 -145T-56 -83L-43
-25Q-67 -33 -87 -42T-121 -64T-144 -92T-153 -128Z" />
<glyph unicode="g" glyph-name="g" horiz-adv-x="507" d="M480 500L381 36Q427 52 456 83T507 179H549Q534 129 514 96T469 42T420 10T372 -8L357 -80Q346 -134 326 -167T281 -218T229 -243T177 -250Q131 -250 98 -226T65 -153Q65 -122 80 -98T118 -56T171 -26T228
-4L240 49Q218 26 189 10T120 -6Q94 -6 71 2T28 30T-2 79T-13 155Q-13 189 -6 228T15 306T50 381T100 444T164 488T244 505Q287 505 306 491T325 454V448L336 500H480ZM275 443Q243 443 217 414T173 342T145 252T135 169Q135 140 140 125T153 102T169 93T185 91Q195
91 207 96T230 111T250 135T265 169L316 406Q316 410 314 416T308 429T295 439T275 443ZM120 -139Q120 -150 128 -161T154 -172Q170 -172 186 -150T212 -83L218 -54Q199 -61 181 -69T150 -88T128 -111T120 -139Z" />
<glyph unicode="h" glyph-name="h" horiz-adv-x="505" d="M288 362Q288 413 251 413Q236 413 224 403T201 379T184 350T175 325L106 0H-38L107 680L255 700L201 448Q233 484 264 494T318 504Q366 504 397 478T429 391Q429 361 422 325T405 253T389 186T381 133Q381
114 389 103T421 91Q437 91 449 97T471 115T489 143T505 179H547Q526 117 502 81T453 25T405 0T361 -6Q328 -6 306 3T269 29T249 65T243 107Q243 132 250 166T265 236T281 304T288 362Z" />
<glyph unicode="i" glyph-name="i" horiz-adv-x="267" d="M88 633Q88 666 111 689T167 713Q200 713 223 690T247 633Q247 600 224 577T167 554Q134 554 111 577T88 633ZM212 500L140 160Q136 143 136 128Q136 107 146 99T177 91Q206 91 231 116T267 179H309Q288
118 260 82T203 26T147 0T99 -6Q54 -6 23 22T-8 114Q-8 141 0 179L68 500H212Z" />
<glyph unicode="j" glyph-name="j" horiz-adv-x="240" d="M213 500L114 36Q160 52 189 83T240 179H282Q267 129 247 96T202 42T153 10T105 -8L90 -80Q79 -134 59 -167T14 -218T-38 -243T-90 -250Q-136 -250 -169 -226T-202 -153Q-202 -122 -187 -98T-149 -56T-96
-26T-38 -4L69 500H213ZM80 634Q80 667 103 690T159 714Q192 714 215 691T239 634Q239 601 216 578T159 555Q126 555 103 578T80 634ZM-147 -139Q-147 -150 -139 -161T-113 -172Q-97 -172 -81 -150T-55 -83L-49 -54Q-68 -61 -86 -69T-117 -88T-139 -111T-147 -139Z"
/>
<glyph unicode="k" glyph-name="k" horiz-adv-x="518" d="M472 500L272 361Q280 363 288 364T305 365Q361 365 388 331T415 248Q415 239 414 230T411 210L400 160Q398 152 397 144T395 128Q395 113 403 102T434 91Q450 91 462 97T484 115T502 143T518 179H560Q539
116 514 79T464 24T416 0T376 -6Q314 -6 282 23T250 108Q250 131 256 160L264 199Q266 209 267 218T268 236Q268 258 260 271T232 284Q215 284 197 274T158 247L106 0H-38L107 680L255 700L180 348L373 500H472Z" />
<glyph unicode="l" glyph-name="l" horiz-adv-x="267" d="M255 700L140 160Q136 143 136 128Q136 107 146 99T177 91Q206 91 231 116T267 179H309Q288 118 260 82T203 26T147 0T99 -6Q54 -6 23 22T-8 114Q-8 141 0 179L107 680L255 700Z" />
<glyph unicode="m" glyph-name="m" horiz-adv-x="752" d="M535 362Q535 413 499 413Q472 413 452 386T421 321L353 0H209L282 345Q285 357 285 370Q285 387 279 400T255 414Q226 414 206 387T174 321L106 0H-38L68 500H212L201 448Q233 484 265 494T323 505Q363
505 390 486T426 419Q444 447 463 463T500 489T534 501T565 504Q613 504 644 478T676 391Q676 361 669 325T652 253T636 186T628 133Q628 114 636 103T668 91Q684 91 696 97T718 115T736 143T752 179H794Q773 117 749 81T700 25T652 0T608 -6Q575 -6 553 3T516
29T496 65T490 107Q490 132 497 166T512 236T528 304T535 362Z" />
<glyph unicode="n" glyph-name="n" horiz-adv-x="505" d="M288 362Q288 413 252 413Q225 413 205 386T174 321L106 0H-38L68 500H212L201 448Q233 484 264 494T318 504Q366 504 397 478T429 391Q429 361 422 325T405 253T389 186T381 133Q381 114 389 103T421
91Q437 91 449 97T471 115T489 143T505 179H547Q526 117 502 81T453 25T405 0T361 -6Q328 -6 306 3T269 29T249 65T243 107Q243 132 250 166T265 236T281 304T288 362Z" />
<glyph unicode="o" glyph-name="o" horiz-adv-x="439" d="M260 509Q388 509 388 349Q392 347 399 347Q416 347 436 352T477 365T517 385T553 407L562 380Q533 349 487 328T385 297Q379 228 358 172T306 77T233 17T146 -4Q111 -4 82 4T31 32T-2 81T-14 154Q-14
183 -8 220T11 297T46 375T97 442T168 490T260 509ZM186 86Q204 86 222 102T256 146T284 212T302 294Q286 298 281 309T275 336Q275 357 283 370T306 390Q304 422 296 435T268 448Q241 448 217 418T175 345T146 253T135 167Q135 142 137 127T146 102T162 90T186
86Z" />
<glyph unicode="p" glyph-name="p" horiz-adv-x="468" d="M220 537L204 462Q226 481 254 493T321 505Q346 505 368 497T407 471T433 422T443 347Q443 313 438 274T422 196T393 120T347 56T283 11T197 -6Q159 -6 140 5T112 30L60 -214L-91 -250L76 537H220ZM166
81Q205 81 232 110T275 180T299 268T306 350Q306 379 301 395T288 420T272 431T256 433Q239 433 220 421T187 384L128 104Q131 96 140 89T166 81Z" />
<glyph unicode="q" glyph-name="q" horiz-adv-x="486" d="M479 500L327 -214L176 -250L239 49Q217 26 188 10T120 -6Q94 -6 71 2T28 30T-2 79T-13 155Q-13 189 -6 228T15 306T50 381T100 444T164 488T244 505Q287 505 306 490T325 452L335 500H479ZM275 443Q243
443 217 414T173 342T145 252T135 169Q135 140 140 125T153 102T169 93T185 91Q205 91 228 109T263 162L316 409Q314 418 306 430T275 443Z" />
<glyph unicode="r" glyph-name="r" horiz-adv-x="376" d="M212 500L199 438Q225 461 254 480T320 500Q354 500 371 477T389 425Q389 412 385 399T371 376T349 359T317 352Q296 352 289 362T278 385T273 407T259 418Q236 418 221 408T186 380L106 0H-38L68 500H212Z" />
<glyph unicode="s" glyph-name="s" horiz-adv-x="382" d="M424 179Q385 134 346 104T271 54Q255 37 236 26T196 8T154 -3T114 -6Q76 -6 49 5T3 35T-23 76T-32 122Q-32 157 -16 181T21 215Q63 290 92 363T144 511L292 531Q296 434 300 374T307 277T312 216T314
167Q314 145 310 129Q353 154 382 179H424ZM92 179Q92 161 80 146T48 130Q40 130 33 132T21 143Q21 108 35 91T82 73Q98 73 114 77T142 93T161 122T169 166Q169 185 168 203T164 246T158 308T150 403Q135 354 115 308T69 214Q79 209 85 201T92 179Z" />
<glyph unicode="t" glyph-name="t" horiz-adv-x="267" d="M246 658L212 500H272L264 460H204L140 160Q136 143 136 128Q136 107 146 99T177 91Q206 91 231 116T267 179H309Q288 118 260 82T203 26T147 0T99 -6Q54 -6 23 22T-8 114Q-8 141 0 179L60 460H27L35 500H68L98
638L246 658Z" />
<glyph unicode="u" glyph-name="u" horiz-adv-x="505" d="M459 500L387 160Q383 143 383 128Q383 107 393 99T424 91Q453 91 473 116T505 179H547Q526 118 500 82T446 26T392 0T346 -6Q303 -6 278 18T247 89Q228 58 209 40T170 11T133 -2T99 -6Q54 -6 23 22T-8
114Q-8 141 0 179L68 500H212L140 160Q137 145 137 132Q137 115 143 103T167 91Q196 91 216 116T247 179L315 500H459Z" />
<glyph unicode="v" glyph-name="v" horiz-adv-x="414" d="M336 520Q354 520 366 513T385 493T396 465T399 433Q399 393 392 345T371 248T333 154T279 73T206 16T114 -6Q57 -6 24 23T-9 112Q-9 120 -8 133T-4 160L68 500H212L140 160Q135 137 135 124Q135 109 143
100T169 91Q193 91 215 108T257 153T292 216T319 289T336 362T342 425Q340 420 328 418T310 415Q292 415 283 432T274 466Q274 489 289 504T336 520Z" />
<glyph unicode="w" glyph-name="w" horiz-adv-x="661" d="M212 500L140 160Q137 148 137 135Q137 118 143 105T167 91Q196 91 216 116T247 179L315 500H459L387 160Q382 137 382 124Q382 109 390 100T416 91Q440 91 462 108T504 153T539 216T566 289T583 362T589
425Q587 420 575 418T557 415Q539 415 530 432T521 466Q521 489 536 504T583 520Q601 520 613 513T632 493T643 465T646 433Q646 393 639 345T618 248T580 154T526 73T453 16T361 -6Q312 -6 281 15T241 78Q223 51 204 35T167 9T131 -3T99 -6Q54 -6 23 22T-8 114Q-8
141 0 179L68 500H212Z" />
<glyph unicode="x" glyph-name="x" horiz-adv-x="522" d="M370 178Q376 129 391 110T432 91Q461 91 486 116T522 179H564Q544 121 518 85T464 29T409 1T360 -6Q315 -6 284 35T238 168L100 0H28L230 228L214 340Q206 390 198 406T176 423Q161 423 144 408T108 363T72
287T42 179H0Q12 234 31 292T79 397T147 475T236 505Q266 505 286 494T318 465T336 426T344 386L353 310Q395 357 416 391T440 454Q435 453 431 453T423 452Q397 452 387 468T376 508Q376 534 396 545T444 557Q458 557 468 549T486 528T496 499T500 466Q500 442
492 420T466 372T422 316T361 248L370 178Z" />
<glyph unicode="y" glyph-name="y" horiz-adv-x="486" d="M459 500L360 36Q406 52 435 83T486 179H528Q513 129 493 96T448 42T399 10T351 -8L336 -80Q325 -134 305 -167T260 -218T208 -243T156 -250Q110 -250 77 -226T44 -153Q44 -122 59 -98T97 -56T150 -26T207
-4L219 50Q187 15 156 5T99 -6Q54 -6 23 22T-8 114Q-8 141 0 179L68 500H212L140 160Q137 148 137 135Q137 118 143 105T167 91Q195 91 214 114T245 173L315 500H459ZM99 -139Q99 -150 107 -161T133 -172Q149 -172 165 -150T191 -83L197 -54Q178 -61 160 -69T129
-88T107 -111T99 -139Z" />
<glyph unicode="z" glyph-name="z" horiz-adv-x="428" d="M306 91Q296 92 292 98T287 112Q287 126 301 140T343 155Q366 155 376 141T387 107Q387 90 379 71T355 36T317 10T265 0H0L255 446H199Q176 446 160 444T144 430Q144 428 145 428T149 426T153 421T155
408Q155 380 138 368T101 355Q84 355 70 366T55 399Q55 414 63 432T86 465T122 490T171 500H428L183 77Q196 76 217 74T259 71Q277 71 290 75T306 91Z" />
<glyph unicode="{" glyph-name="braceleft" horiz-adv-x="352" d="M374 700Q343 700 322 696T283 674Q256 644 247 611T237 536L243 365Q241 321 231 295T203 254Q215 240 215 218Q215 185 197 142T156 52T115 -41T96 -124Q96 -160 115 -182T181 -204L172 -249H163Q140
-249 124 -248T94 -243T70 -231T49 -207Q38 -191 34 -174T30 -140Q30 -105 44 -68T78 10T117 91T147 175Q150 187 150 197Q150 211 142 219T109 228Q96 228 77 225L89 282Q107 279 120 279Q144 279 157 289T177 316T185 352T187 390Q187 432 184 471T180 549Q180
577 188 612T215 678T264 729T340 750H383L374 700Z" />
<glyph unicode="|" glyph-name="bar" horiz-adv-x="532" d="M312 -250H219V751H312V-250Z" />
<glyph unicode="}" glyph-name="braceright" horiz-adv-x="352" d="M39 -199Q70 -199 91 -195T130 -173Q157 -143 166 -110T176 -35L170 136Q172 180 182 206T210 247Q198 261 198 283Q198 316 216 359T257 449T298 541T317 625Q317 661 298 683T232 705L241 750H250Q272
750 289 749T319 744T343 732T364 708Q375 692 379 675T383 641Q383 606 369 569T335 491T296 410T266 326Q263 314 263 304Q263 290 271 282T304 273Q316 273 336 276L324 219Q306 222 293 222Q269 222 256 212T236 185T228 149T226 111Q226 69 229 30T233 -48Q233
-77 225 -111T198 -177T149 -228T73 -249H30L39 -199Z" />
<glyph unicode="~" glyph-name="asciitilde" horiz-adv-x="431" d="M450 669Q446 651 431 634T394 602T345 578T289 569Q264 569 243 575T201 587T162 600T121 606Q83 606 55 580L49 582Q73 630 116 655T216 680Q243 680 264 675T304 664T341 652T381 647Q400
647 416 653T444 670L450 669Z" />
</font>
</defs>
</svg>
